<svg width="71" height="48" viewBox="0 0 71 48" fill="none" xmlns="http://www.w3.org/2000/svg">
<path d="M12.5505 11.8368C13.259 11.6286 13.9875 11.4621 14.6834 11.2006C17.4646 10.1571 19.5799 8.28867 21.0432 5.64219C22.0777 3.76988 23.4043 2.17211 25.2287 1.08178C28.0826 -0.623988 31.7641 -0.26488 34.2919 1.9236C34.554 2.15 34.8248 2.36858 35.0731 2.61189C35.2323 2.76672 35.3339 2.7342 35.4944 2.60668C36.159 2.07583 36.791 1.48122 37.5182 1.05965C40.5527 -0.698153 44.1664 -0.233654 46.8222 2.19033C47.928 3.2 48.8108 4.38402 49.5531 5.69944C51.3901 8.95352 54.1073 10.9664 57.6972 11.721C57.8051 11.7431 57.9116 11.7704 58.0909 11.8108C57.6646 11.911 57.301 11.9839 56.9449 12.0827C53.6709 12.9948 51.1933 14.9738 49.5093 18.0002C48.4798 19.853 47.1682 21.4391 45.3651 22.5255C42.4924 24.2586 38.801 23.9034 36.2556 21.6967C36.001 21.4755 35.7364 21.2634 35.4957 21.0266C35.3301 20.8639 35.2223 20.8978 35.053 21.0318C34.3722 21.5718 33.7239 22.1794 32.9791 22.6036C29.961 24.3224 26.3823 23.8488 23.7466 21.4482C22.6545 20.4541 21.7704 19.2922 21.042 17.9911C19.2012 14.7018 16.4703 12.663 12.8477 11.9058C12.7424 11.8875 12.6396 11.8589 12.5505 11.8368ZM23.2564 11.8394C24.3008 12.4223 25.0319 13.2641 25.5296 14.3389C26.0563 15.4747 26.7722 16.4818 27.6362 17.3705C29.3854 19.1712 31.4907 20.268 33.9283 20.687C34.4098 20.7703 34.9 20.8705 35.384 20.8575C35.9245 20.8418 36.4687 20.7326 37.0003 20.6167C40.7169 19.8049 43.4253 17.6424 45.1244 14.145C45.5758 13.216 46.2303 12.4848 47.1005 11.9565C47.1657 11.9175 47.2259 11.868 47.3199 11.8003C46.2528 11.211 45.5256 10.3666 45.0266 9.29313C44.4986 8.15721 43.7839 7.15022 42.92 6.26022C41.1708 4.45947 39.0655 3.36264 36.6279 2.94367C36.1464 2.8604 35.6562 2.76022 35.1722 2.77323C34.6318 2.78885 34.0875 2.89814 33.5558 3.01393C29.8393 3.82713 27.1309 5.98699 25.4319 9.48566C25.1384 10.0894 24.761 10.6294 24.2607 11.0665C23.9535 11.3372 23.615 11.5662 23.2564 11.8394ZM32.5653 2.08884C32.5227 2.042 32.5076 2.01598 32.4863 2.00297C32.4073 1.95352 32.3283 1.90408 32.2443 1.86375C30.0074 0.787724 27.7917 0.825456 25.6588 2.11747C24.0751 3.07769 22.9178 4.4894 22.02 6.12621C20.642 8.64256 18.6758 10.4915 16.1179 11.6768C16.0402 11.7132 15.9662 11.7548 15.847 11.816C15.9662 11.8785 16.0288 11.9162 16.0941 11.9461C18.6571 13.1236 20.6307 14.966 22.005 17.485C22.6783 18.7197 23.531 19.8023 24.5792 20.7195C26.4099 22.3212 28.4989 22.8624 30.8437 22.2978C31.4455 22.1534 32.0198 21.9217 32.6067 21.5536C32.2706 21.4429 31.9898 21.3597 31.7139 21.2595C28.4136 20.0716 26.0049 17.8493 24.455 14.629C23.8017 13.2693 22.7674 12.3612 21.3567 11.9097C21.2839 11.8863 21.2137 11.8538 21.0996 11.8082C22.6795 11.3476 23.7905 10.3939 24.499 8.92749C26.1529 5.50948 28.7722 3.26895 32.3221 2.17211C32.3986 2.14869 32.4725 2.12007 32.5653 2.08884ZM37.9959 2.0459C38.0336 2.08754 38.0436 2.10965 38.0587 2.11486C38.322 2.20334 38.5878 2.28141 38.8486 2.37638C42.1489 3.56561 44.5551 5.78921 46.1036 9.01081C46.7569 10.3704 47.7939 11.276 49.2046 11.7262C49.2747 11.7483 49.3412 11.7835 49.4478 11.829C47.8817 12.287 46.7708 13.2303 46.0661 14.6876C44.4097 18.116 41.7877 20.3657 38.2266 21.4638C38.1526 21.4859 38.0812 21.5159 37.9634 21.5588C38.0637 21.6225 38.1151 21.6615 38.1715 21.6902C40.4448 22.8612 42.7094 22.8365 44.9024 21.5132C46.4874 20.5569 47.6409 19.1387 48.5387 17.5032C49.9231 14.979 51.8967 13.1236 54.4697 11.9448C54.5374 11.9136 54.6001 11.8693 54.7017 11.8095C54.5775 11.7483 54.5048 11.7106 54.4308 11.6754C51.9017 10.5019 49.9406 8.68288 48.5776 6.19257C48.0008 5.13866 47.2936 4.19145 46.4485 3.34962C44.7119 1.61784 42.6705 0.829355 40.2492 1.22099C39.458 1.3459 38.7132 1.61783 37.9959 2.0459Z" fill="white"/>
<path d="M41.596 6.7786C39.813 9.85328 38.0788 12.8445 36.3196 15.8768C36.1273 15.4701 35.9468 15.1178 35.7984 14.7523C35.7651 14.6723 35.8233 14.5332 35.8744 14.4424C37.0591 12.3615 38.2485 10.2843 39.4368 8.20455C39.4878 8.11499 39.5353 8.0218 39.6077 7.88619C39.4771 7.87778 39.3869 7.86806 39.2978 7.86683C38.6924 7.86444 38.087 7.86683 37.4828 7.86204C35.2559 7.84631 33.029 7.82934 30.8021 7.81237C30.4341 7.80997 30.1254 7.66348 29.8584 7.4093C29.7479 7.30517 29.7266 7.22648 29.8287 7.09936C30.935 5.72788 32.3322 4.83209 34.0653 4.54279C36.5131 4.13363 38.6141 4.84783 40.3662 6.62729C40.447 6.7096 40.5858 6.76166 40.7021 6.77134C40.9728 6.79313 41.2434 6.7786 41.596 6.7786ZM31.7945 6.73503C34.1496 6.73503 36.5047 6.73503 38.8598 6.73503C37.1588 5.18798 33.9039 4.94225 31.7945 6.73503Z" fill="white"/>
<path d="M27.9697 8.49219C31.4506 8.49219 34.883 8.49219 38.3687 8.49219C38.1055 8.84273 37.8672 9.17117 37.6146 9.48604C37.5767 9.53276 37.4724 9.53527 37.3976 9.53645C36.3378 9.54758 35.2778 9.55369 34.2179 9.56231C32.8509 9.57211 31.485 9.58199 30.118 9.59304C30.0493 9.59304 29.9805 9.60166 29.8714 9.61029C29.9461 9.75789 30.0054 9.88338 30.073 10.0039C31.4542 12.4591 32.833 14.9155 34.2202 17.367C34.455 17.7815 34.5178 18.2034 34.3933 18.6622C34.353 18.8111 34.2843 18.8504 34.1266 18.8221C31.2028 18.2969 29.0439 16.1948 28.4084 13.2217C28.1653 12.0863 28.2068 10.9511 28.5151 9.83047C28.5637 9.65332 28.5566 9.50697 28.457 9.34824C28.291 9.08502 28.1464 8.80706 27.9697 8.49219ZM32.9386 17.319C31.7482 15.2058 30.5745 13.1221 29.3853 11.0113C28.6111 12.8896 30.8958 16.9438 32.9386 17.319Z" fill="white"/>
<path d="M30.8384 10.2299C31.2474 10.2832 31.592 10.344 31.9391 10.3675C32.1314 10.3812 32.2166 10.4792 32.3043 10.6304C33.5316 12.756 34.765 14.8777 35.9972 17.0008C36.0471 17.0864 36.0995 17.1682 36.1762 17.2935C36.2468 17.1868 36.3029 17.1099 36.3491 17.0281C37.7554 14.5665 39.1629 12.1062 40.5655 9.64214C40.7835 9.25894 41.0842 8.99974 41.5067 8.88318C41.676 8.83608 41.7892 8.85339 41.8549 9.05308C42.7815 11.8519 42.314 14.3718 40.3501 16.5693C39.4235 17.6048 38.2546 18.2645 36.9128 18.6129C36.7923 18.6439 36.6706 18.7568 36.5951 18.8634C36.4501 19.068 36.3393 19.2962 36.1823 19.569C34.3937 16.4452 32.6306 13.3624 30.8384 10.2299ZM41.1585 10.8524C39.9433 12.9829 38.7501 15.0737 37.5326 17.2066C39.6426 16.8049 41.8221 12.9743 41.1585 10.8524Z" fill="white"/>
<path d="M0 43.718H1.43842L2.35378 40.3001H7.88333L8.79869 43.718H10.2371L6.7064 30.4305H3.54935L0 43.718ZM2.67135 38.9752L4.63284 31.6978H5.60424L7.56573 38.9752H2.67135ZM12.0436 31.9666H13.4446V30.2769H12.0436V31.9666ZM10.3249 47.9999C12.8095 46.6942 13.4446 45.8494 13.4446 43.4875V34.1172H12.0436V43.4683C12.0436 45.3117 11.6512 45.7533 9.76453 46.867L10.3249 47.9999ZM16.1113 43.718H17.5123V35.9221C18.0728 35.6149 19.175 35.2117 20.1463 35.2117C21.8837 35.2117 22.1452 36.1525 22.1452 38.6871V43.718H23.5463V38.6487C23.5463 35.2308 22.9671 33.9252 20.4079 33.9252C19.3804 33.9252 18.1475 34.4244 17.5123 34.7892V34.1172H16.1113V43.718ZM28.1994 43.91C29.4323 43.91 30.8334 43.4683 31.562 43.1419C31.8048 43.4107 32.1037 43.5835 32.4213 43.6987C32.8136 43.8524 33.2432 43.91 33.7849 43.91L33.841 42.7578C33.2432 42.7003 32.7949 42.489 32.7575 41.913V37.0166C32.7575 34.9236 31.8609 33.9252 29.7499 33.9252C28.573 33.9252 26.9665 34.1747 26.0885 34.3476L26.1445 35.4421C27.0973 35.3461 28.7225 35.1924 29.6752 35.1924C30.7773 35.1924 31.3565 35.6725 31.3565 37.0166V37.8423L28.4236 38.1303C26.4994 38.3031 25.5654 39.1288 25.5654 40.9721C25.5654 42.9115 26.4994 43.91 28.1994 43.91ZM28.4236 42.7003C27.4709 42.7003 27.0038 42.0474 27.0038 40.9337C27.0038 39.8776 27.4521 39.3208 28.5917 39.2056L31.3565 38.9368V42.105C30.684 42.3738 29.4323 42.7003 28.4236 42.7003ZM42.7887 41.3754V43.718H35.5592V30.6609H38.1371V41.3754H42.7887ZM47.8078 43.9484C46.3507 43.9484 45.2984 43.5708 44.6508 42.8155C44.0032 42.0602 43.6793 40.8377 43.6793 39.148C43.6793 37.3815 44.0156 36.0629 44.6881 35.1924C45.3731 34.322 46.4317 33.8868 47.8638 33.8868C49.184 33.8868 50.1803 34.2515 50.8528 34.9812C51.5377 35.6981 51.8802 36.7798 51.8802 38.2263L51.6934 40.0121H46.2013C46.2261 40.4601 46.3009 40.8057 46.4254 41.0489C46.5625 41.2793 46.7741 41.4458 47.0605 41.5482C47.3595 41.6378 47.7705 41.6826 48.2935 41.6826C48.7045 41.6826 49.1964 41.6698 49.7693 41.6442C50.3421 41.6186 50.7593 41.593 51.0209 41.5674L51.544 41.5098L51.5813 43.4107C50.1741 43.7692 48.9162 43.9484 47.8078 43.9484ZM49.4144 38.0535C49.4144 37.2854 49.2961 36.7542 49.0594 36.4597C48.8353 36.1525 48.4305 35.9989 47.8452 35.9989C47.2474 35.9989 46.824 36.1589 46.5749 36.479C46.3258 36.7862 46.195 37.311 46.1825 38.0535H49.4144ZM53.6692 34.1172H56.1538V34.6548C56.627 34.3732 57.0442 34.1747 57.4054 34.0595C57.779 33.9443 58.1775 33.8868 58.601 33.8868C59.7467 33.8868 60.5624 34.2644 61.0482 35.0196C61.5338 35.7749 61.7766 36.9398 61.7766 38.5143V43.718H59.2734V38.5912C59.2734 37.7078 59.1676 37.087 58.9558 36.7286C58.7566 36.3701 58.3706 36.1909 57.7977 36.1909C57.3867 36.1909 56.9197 36.2806 56.3966 36.4597L56.1724 36.5366V43.718H53.6692V34.1172ZM67.2638 43.9484C66.4419 43.9484 65.4394 43.8332 64.2562 43.6028L63.6585 43.4875L63.7332 41.337C65.2401 41.5418 66.3361 41.6442 67.021 41.6442C67.4818 41.6442 67.843 41.593 68.1045 41.4906C68.3785 41.3881 68.5154 41.1961 68.5154 40.9145C68.5154 40.6585 68.3847 40.4729 68.1232 40.3577C67.8741 40.2425 67.4506 40.1336 66.8529 40.0312C66.6287 40.0057 66.473 39.98 66.3858 39.9544C65.7632 39.8392 65.2526 39.6985 64.854 39.532C64.4555 39.3528 64.1317 39.0775 63.8826 38.7064C63.6335 38.3223 63.509 37.7911 63.509 37.1126C63.509 36.0245 63.8328 35.2181 64.4804 34.6932C65.128 34.1684 66.0185 33.9059 67.1518 33.9059C67.8243 33.9059 68.8144 34.0275 70.122 34.2708L70.7385 34.386L70.7011 36.5174C69.1942 36.3126 68.0796 36.2101 67.3573 36.2101C66.9338 36.2101 66.5976 36.2549 66.3485 36.3445C66.1119 36.4342 65.9936 36.6069 65.9936 36.863C65.9936 37.1318 66.1181 37.3238 66.3672 37.439C66.6162 37.5415 67.021 37.6439 67.5814 37.7462L68.2353 37.8614C69.2316 38.0663 69.9414 38.3735 70.3649 38.7832C70.7883 39.18 71 39.8264 71 40.7225C71 41.8234 70.6949 42.6363 70.0846 43.1611C69.4744 43.686 68.5342 43.9484 67.2638 43.9484Z" fill="white"/>
</svg>
