<svg width="741" height="139" viewBox="0 0 741 139" fill="none" xmlns="http://www.w3.org/2000/svg">
<path d="M107.721 49.6068V94.7068L104.921 97.5068L82.3207 120.007L68.2207 134.107C61.8207 140.207 51.7207 139.907 45.6207 133.507C39.7207 127.307 39.7207 117.707 45.6207 111.507L59.7207 97.4068L82.3207 74.9068L85.1207 72.1068L107.721 49.6068ZM407.721 45.7068C415.721 45.7068 422.021 48.2068 426.521 53.2068C431.021 58.2068 433.521 65.3068 433.921 74.5068C434.021 75.4068 434.021 76.6068 434.021 78.1068V79.1068C434.021 81.1068 434.021 82.6068 433.921 83.8068C433.621 92.7068 431.121 99.7068 426.521 104.807C421.921 109.907 415.621 112.507 407.721 112.507C399.721 112.507 393.721 109.807 389.821 104.307V131.607C389.921 133.307 388.521 134.607 386.921 134.707C386.821 134.707 386.821 134.707 386.721 134.707H370.721C369.921 134.707 369.021 134.407 368.421 133.807C367.821 133.207 367.421 132.407 367.521 131.607V50.0068C367.521 49.2068 367.821 48.3068 368.421 47.8068C369.021 47.2068 369.821 46.9068 370.721 46.9068H385.421C387.121 46.8068 388.421 48.2068 388.521 49.8068C388.521 49.9068 388.521 49.9068 388.521 50.0068V54.5068C392.921 48.6068 399.321 45.7068 407.721 45.7068ZM169.021 23.5068C175.521 23.3068 181.921 24.6068 187.921 27.3068C192.721 29.4068 196.921 32.6068 200.121 36.7068C203.021 40.5068 204.521 44.1068 204.621 47.8068C204.621 48.5068 204.321 49.2068 203.921 49.7068C203.421 50.2068 202.821 50.5068 202.021 50.5068H184.721C183.021 50.6068 181.421 49.7068 180.521 48.3068C179.821 46.4068 178.521 44.8068 176.721 43.9068C174.321 42.6068 171.721 42.0068 169.021 42.1068C165.521 42.1068 162.921 42.7068 161.021 44.0068C159.121 45.2068 158.121 47.2068 158.221 49.4068C158.221 51.8068 159.421 53.7068 161.921 55.0068C164.421 56.4068 169.021 57.7068 175.721 59.1068C183.521 60.5068 189.621 62.2068 194.221 64.3068C198.321 66.0068 201.821 68.8068 204.321 72.5068C206.521 75.8068 207.621 80.1068 207.621 85.2068C207.721 90.5068 206.021 95.6068 202.821 99.8068C199.321 104.107 194.721 107.407 189.421 109.307C183.121 111.607 176.521 112.707 169.921 112.607C161.921 112.607 155.121 111.407 149.521 109.107C143.921 106.807 139.721 103.707 136.821 99.9068C134.021 96.4068 132.421 92.0068 132.221 87.6068C132.221 86.9068 132.521 86.2068 133.021 85.7068C133.521 85.2068 134.221 84.9068 134.921 85.0068H151.321C152.121 85.0068 153.021 85.1068 153.721 85.5068C154.521 86.0068 155.121 86.5068 155.721 87.2068C156.921 89.3068 158.621 91.0068 160.721 92.1068C163.521 93.5068 166.621 94.2068 169.821 94.0068C174.321 94.0068 177.721 93.3068 180.121 92.0068C182.521 90.7068 183.721 88.8068 183.721 86.4068C183.721 84.8068 183.121 83.2068 181.821 82.1068C180.021 80.7068 178.021 79.7068 175.921 79.1068C173.221 78.2068 169.321 77.3068 164.221 76.2068C154.221 74.2068 146.721 71.2068 141.821 67.2068C136.921 63.2068 134.421 57.4068 134.421 49.9068C134.321 45.0068 135.821 40.2068 138.721 36.2068C141.821 32.0068 146.021 28.8068 150.821 26.9068C156.621 24.5068 162.821 23.3068 169.021 23.5068ZM632.721 45.7068C639.821 45.7068 645.821 47.1068 650.721 50.0068C655.521 52.7068 659.321 56.8068 661.721 61.8068C664.221 67.1068 665.421 72.9068 665.321 78.8068V81.9068C665.321 83.6068 664.021 85.1068 662.221 85.1068C662.121 85.1068 662.121 85.1068 662.021 85.1068H622.821V85.8068C622.721 89.0068 623.621 92.1068 625.421 94.8068C627.021 97.0068 629.621 98.3068 632.421 98.2068C634.121 98.3068 635.721 97.9068 637.221 97.0068C638.521 96.2068 639.621 95.2068 640.621 94.0068C641.121 93.4068 641.721 92.9068 642.421 92.5068C643.121 92.3068 643.821 92.1068 644.621 92.2068H660.821C661.521 92.2068 662.221 92.4068 662.721 92.9068C663.221 93.3068 663.521 93.9068 663.521 94.6068C663.521 96.7068 662.321 99.3068 659.921 102.107C657.021 105.307 653.321 107.907 649.321 109.507C644.121 111.707 638.521 112.707 632.821 112.607C622.721 112.607 614.821 109.907 609.021 104.507C603.221 99.1068 600.321 91.3068 600.121 81.0068V77.2068C600.421 67.4068 603.521 59.7068 609.321 54.2068C615.121 48.7068 622.821 45.7068 632.721 45.7068ZM737.521 23.5068C738.321 23.5068 739.221 23.8068 739.821 24.4068C740.421 25.0068 740.821 25.8068 740.721 26.6068V108.207C740.721 109.007 740.421 109.907 739.821 110.407C739.221 111.007 738.421 111.307 737.521 111.307H722.721C721.021 111.307 719.621 109.907 719.621 108.207V104.407C715.221 109.807 708.821 112.507 700.421 112.607C692.421 112.607 686.121 110.107 681.521 105.107C676.921 100.107 674.521 92.9068 674.221 83.6068L674.121 79.3068L674.221 74.8068C674.521 65.8068 677.021 58.7068 681.621 53.6068C686.221 48.5068 692.521 45.9068 700.421 45.9068C707.821 45.9068 713.821 48.3068 718.321 53.1068V26.8068C718.321 26.0068 718.621 25.2068 719.221 24.6068C719.821 24.0068 720.621 23.7068 721.421 23.7068L737.521 23.5068ZM236.721 46.9068C237.521 46.9068 238.421 47.2068 239.021 47.8068C239.621 48.4068 240.021 49.2068 239.921 50.0068V108.107C239.921 108.907 239.621 109.707 239.021 110.307C238.421 110.907 237.621 111.207 236.721 111.207H221.221C219.521 111.207 218.121 109.807 218.121 108.107V50.0068C218.121 49.2068 218.421 48.3068 219.021 47.8068C219.621 47.2068 220.421 46.9068 221.221 46.9068H236.721ZM331.121 45.7068C337.921 45.7068 343.421 48.0068 347.621 52.6068C351.821 57.2068 354.021 64.0068 354.021 73.1068V108.207C354.021 109.007 353.721 109.807 353.121 110.407C352.521 111.007 351.721 111.307 350.921 111.307H335.721C334.921 111.307 334.021 111.007 333.421 110.407C332.821 109.807 332.521 109.007 332.521 108.207V74.0068C332.521 70.2068 331.721 67.4068 330.121 65.7068C328.421 63.9068 326.121 62.9068 323.621 63.0068C321.221 62.9068 318.921 63.9068 317.421 65.7068C315.821 67.5068 315.021 70.3068 315.021 74.0068V108.207C315.021 109.007 314.721 109.807 314.121 110.407C313.521 111.007 312.721 111.307 311.921 111.307H296.721C295.921 111.307 295.021 111.007 294.421 110.407C293.821 109.807 293.421 109.007 293.521 108.207V73.9068C293.521 70.1068 292.721 67.3068 291.021 65.6068C289.321 63.8068 287.021 62.9068 284.621 62.9068C282.221 62.8068 279.921 63.8068 278.321 65.6068C276.721 67.4068 275.821 70.1068 275.821 73.8068V108.207C275.821 109.007 275.521 109.807 274.921 110.407C274.321 111.007 273.521 111.307 272.721 111.307H257.121C255.421 111.307 254.021 109.907 254.021 108.207V50.1068C254.021 49.3068 254.321 48.4068 254.921 47.9068C255.521 47.3068 256.321 47.0068 257.121 47.0068H271.421C273.121 46.9068 274.421 48.3068 274.521 49.9068C274.521 50.0068 274.521 50.0068 274.521 50.1068V54.3068C276.621 51.8068 279.221 49.7068 282.221 48.3068C285.521 46.6068 289.121 45.8068 292.821 45.8068C301.921 45.8068 308.121 49.3068 311.521 56.4068C313.621 53.2068 316.421 50.6068 319.821 48.7068C323.221 46.7068 327.121 45.7068 331.121 45.7068ZM464.521 23.5068C466.121 23.4068 467.521 24.7068 467.621 26.3068C467.621 26.4068 467.621 26.5068 467.621 26.6068V108.207C467.621 109.007 467.321 109.807 466.721 110.407C466.121 111.007 465.321 111.407 464.521 111.307H449.021C448.221 111.307 447.321 111.007 446.721 110.407C446.121 109.807 445.721 109.007 445.821 108.207V26.6068C445.821 25.8068 446.121 24.9068 446.721 24.4068C447.321 23.8068 448.121 23.5068 449.021 23.5068H464.521ZM500.221 46.9068C501.021 46.9068 501.921 47.2068 502.521 47.8068C503.121 48.4068 503.521 49.2068 503.421 50.0068V108.107C503.421 108.907 503.121 109.807 502.521 110.307C501.921 110.907 501.121 111.207 500.221 111.207H484.721C483.021 111.207 481.621 109.807 481.621 108.107V50.0068C481.621 49.2068 481.921 48.3068 482.521 47.8068C483.121 47.2068 483.921 46.9068 484.721 46.9068H500.221ZM585.421 19.8068C586.221 19.8068 587.021 20.1068 587.621 20.7068C588.221 21.3068 588.521 22.1068 588.521 22.9068V33.5068C588.521 34.3068 588.221 35.1068 587.621 35.7068C587.021 36.3068 586.221 36.7068 585.421 36.6068H553.721C551.021 36.6068 549.221 37.2068 548.121 38.4068C547.021 39.6068 546.521 41.4068 546.421 43.9068V47.0068H585.521C587.221 47.0068 588.521 48.3068 588.621 49.9068C588.621 50.0068 588.621 50.0068 588.621 50.1068V108.207C588.621 109.007 588.321 109.807 587.721 110.407C587.121 111.007 586.321 111.407 585.521 111.307H570.421C569.621 111.307 568.721 111.007 568.121 110.407C567.521 109.807 567.121 109.007 567.221 108.207V63.8068H546.421V108.207C546.421 109.007 546.121 109.807 545.521 110.407C544.921 111.007 544.121 111.407 543.321 111.307H528.221C527.421 111.307 526.521 111.007 525.921 110.407C525.321 109.807 524.921 109.007 525.021 108.207V63.8068H515.721C514.921 63.8068 514.021 63.5068 513.421 62.9068C512.821 62.3068 512.421 61.5068 512.521 60.7068V50.1068C512.521 49.3068 512.821 48.4068 513.421 47.9068C514.021 47.3068 514.821 47.0068 515.721 47.0068H525.021V43.3068C525.021 35.1068 527.421 29.1068 532.221 25.4068C537.021 21.7068 543.821 19.8068 552.821 19.8068H585.421ZM707.721 62.9068C704.021 62.9068 701.321 64.0068 699.721 66.2068C698.121 68.4068 697.221 71.4068 696.921 75.3068L696.821 79.1068L696.921 82.9068C697.221 86.8068 698.121 89.8068 699.721 92.0068C701.321 94.2068 704.021 95.3068 707.721 95.3068C711.221 95.3068 713.921 94.2068 715.621 91.9068C717.421 89.4068 718.421 86.4068 718.421 83.3068C718.621 81.0068 718.621 79.4068 718.621 78.6068C718.621 77.8068 718.521 76.2068 718.421 74.0068C718.421 71.1068 717.321 68.3068 715.521 66.0068C713.721 63.9068 711.121 62.9068 707.721 62.9068ZM400.521 62.9068C397.021 62.9068 394.321 64.0068 392.621 66.3068C390.821 68.8068 389.821 71.8068 389.721 74.9068C389.621 75.8068 389.621 77.0068 389.621 78.6068V79.6068C389.621 81.6068 389.621 83.1068 389.721 84.2068C389.821 87.1068 390.821 89.9068 392.621 92.2068C394.421 94.3068 397.021 95.3068 400.521 95.3068C404.221 95.3068 406.921 94.2068 408.521 92.0068C410.121 89.8068 411.021 86.8068 411.321 82.9068C411.421 82.1068 411.421 80.8068 411.421 79.1068C411.421 77.4068 411.421 76.1068 411.321 75.3068C411.121 71.4068 410.121 68.4068 408.521 66.2068C406.921 64.0068 404.221 62.9068 400.521 62.9068ZM102.121 44.0068L79.6207 66.5068L76.8207 69.3068L54.3207 91.8068L51.5207 94.6068H6.4207L31.8207 69.2068L54.4207 46.7068L57.2207 43.9068H102.121V44.0068ZM40.1207 4.50679C46.5207 -1.49321 56.6207 -1.19323 62.6207 5.20677C68.4207 11.3068 68.3207 20.9068 62.6207 27.0068L23.1207 66.5068L0.720703 89.0068V43.9068L3.52071 41.1068L26.0207 18.6068L40.1207 4.50679ZM632.721 59.7068C629.921 59.5068 627.221 60.8068 625.521 63.0068C623.821 65.2068 623.021 68.3068 623.021 72.2068V72.4068H642.721V72.2068C642.721 68.2068 641.821 65.2068 640.121 63.0068C638.221 60.8068 635.521 59.5068 632.721 59.7068ZM236.721 20.1068C237.621 20.1068 238.421 20.4068 239.021 21.0068C239.621 21.6068 239.921 22.4068 239.921 23.3068V34.8068C239.921 35.7068 239.621 36.5068 239.021 37.1068C238.421 37.7068 237.621 38.0068 236.721 38.0068H221.221C220.421 38.0068 219.521 37.7068 219.021 37.1068C218.421 36.5068 218.121 35.7068 218.121 34.8068V23.3068C218.121 22.4068 218.421 21.6068 219.021 21.0068C219.621 20.4068 220.321 20.1068 221.221 20.1068H236.721ZM500.221 20.1068C502.021 20.1068 503.421 21.5068 503.421 23.2068C503.421 23.2068 503.421 23.2068 503.421 23.3068V34.8068C503.421 36.5068 502.021 38.0068 500.321 38.0068H500.221H484.721C483.921 38.0068 483.021 37.7068 482.521 37.1068C481.921 36.5068 481.621 35.7068 481.621 34.8068V23.3068C481.621 22.4068 481.921 21.6068 482.521 21.0068C483.121 20.4068 483.821 20.1068 484.721 20.1068H500.221Z" fill="#FFAC41"/>
</svg>
