<svg width="190" height="40" viewBox="0 0 190 40" fill="none" xmlns="http://www.w3.org/2000/svg">
<path d="M47.7998 23.4996L50.5998 22.8996C50.8998 24.7996 52.1998 25.6996 54.1998 25.6996C56.2998 25.6996 57.3998 24.7996 57.3998 23.4996C57.3998 19.5996 48.2998 22.6996 48.2998 16.2996C48.2998 13.5996 50.6998 11.5996 54.1998 11.5996C57.0998 11.5996 59.6998 13.1996 60.0998 15.9996L57.3998 16.7996C57.0998 15.1996 55.7998 14.2996 53.9998 14.2996C52.2998 14.2996 51.0998 15.0996 51.0998 16.2996C51.0998 19.7996 60.3998 16.6996 60.3998 23.1996C60.3998 26.2996 57.8998 28.3996 54.0998 28.3996C50.5998 28.3996 48.1998 26.5996 47.7998 23.4996Z" fill="white"/>
<path d="M81.7002 11.9996H84.7002V14.0996H84.9002C85.6002 12.7996 87.2002 11.5996 89.5002 11.5996C93.1002 11.5996 95.4002 14.2996 95.4002 17.6996V27.9996H92.4002V18.2996C92.4002 15.9996 90.7002 14.4996 88.7002 14.4996C86.5002 14.4996 84.7002 16.1996 84.7002 18.5996V27.9996H81.7002V11.9996Z" fill="white"/>
<path d="M113.5 7.40039H116.5V14.1004H116.7C117.4 12.8004 119 11.6004 121.3 11.6004C124.9 11.6004 127.2 14.3004 127.2 17.7004V28.0004H124.2V18.3004C124.2 16.0004 122.5 14.5004 120.4 14.5004C118.2 14.5004 116.4 16.2004 116.4 18.4004V28.0004H113.4V7.40039H113.5Z" fill="white"/>
<path d="M130.9 19.9996C130.9 14.8996 134.5 11.5996 138.8 11.5996C143.7 11.5996 146.5 15.0996 146.5 19.7996V20.7996H134C134 23.8996 135.9 25.7996 138.9 25.7996C140.9 25.7996 142.8 24.6996 143.3 22.6996L146.2 23.3996C145.2 26.5996 142.4 28.3996 138.9 28.3996C134.1 28.3996 130.9 24.8996 130.9 19.9996ZM143.4 18.4996C143.2 15.7996 141.2 14.2996 138.8 14.2996C136.3 14.2996 134.3 16.0996 134.1 18.4996H143.4Z" fill="white"/>
<path d="M149.5 23.4996L152.3 22.8996C152.6 24.7996 153.9 25.6996 155.9 25.6996C158 25.6996 159.1 24.7996 159.1 23.4996C159.1 19.5996 150 22.6996 150 16.2996C150 13.5996 152.4 11.5996 155.9 11.5996C158.8 11.5996 161.4 13.1996 161.8 15.9996L159.1 16.7996C158.8 15.1996 157.5 14.2996 155.7 14.2996C154 14.2996 152.8 15.0996 152.8 16.2996C152.8 19.7996 162.1 16.6996 162.1 23.1996C162.1 26.2996 159.6 28.3996 155.8 28.3996C152.3 28.3996 149.9 26.5996 149.5 23.4996Z" fill="white"/>
<path d="M172.5 19.9996C172.5 15.1996 175.6 11.5996 180 11.5996C183.1 11.5996 184.6 13.3996 185.2 14.2996H185.4V11.9996H188.4V24.4996C188.4 24.9996 188.7 25.1996 189.2 25.1996H189.9V27.9996H187.7C186.4 27.9996 185.4 27.1996 185.4 25.7996H185.2C184.6 26.5996 183.3 28.3996 180.1 28.3996C175.8 28.3996 172.5 24.8996 172.5 19.9996ZM185.6 19.9996C185.6 16.3996 183.3 14.3996 180.6 14.3996C177.7 14.3996 175.6 16.6996 175.6 19.9996C175.6 23.3996 177.8 25.5996 180.6 25.5996C183.6 25.5996 185.6 23.0996 185.6 19.9996Z" fill="white"/>
<path d="M166.2 12.8996V27.9996H169.2V11.5996L166.2 12.8996Z" fill="white"/>
<path d="M78.4998 12H75.1998L70.6998 25.1H70.4998L66.0998 12H62.7998L68.4998 28H69.2998V28.1C68.7998 29.2 68.1998 29.8 66.8998 29.8H63.9998V32.6H66.8998C69.3998 32.6 70.9998 31.7 71.8998 29.5L78.4998 12Z" fill="white"/>
<path d="M169.3 7.40039H166.3V10.4004H169.3V7.40039Z" fill="white"/>
<path d="M109.4 14.6004V12.0004H104.7V7.40039L101.9 8.60039V12.0004H98.7998V14.6004H101.7V23.3004C101.7 26.6004 103.7 28.0004 106.7 28.0004H109.3V25.3004H106.8C105.4 25.3004 104.8 24.7004 104.8 23.2004V14.6004H109.4Z" fill="white"/>
<mask id="mask0_875_3697" style="mask-type:luminance" maskUnits="userSpaceOnUse" x="0" y="0" width="40" height="40">
<path d="M40 0H0V40H40V0Z" fill="white"/>
</mask>
<g mask="url(#mask0_875_3697)">
<path d="M8.00083 10.9004C7.40083 10.9004 6.70083 10.7004 6.30083 10.2004C5.80083 9.80039 5.60083 9.20039 5.50083 8.50039C5.40083 7.80039 5.70083 7.20039 6.10083 6.70039C6.50083 6.20039 7.10083 5.90039 7.80083 5.90039C11.8008 5.50039 15.5008 3.60039 18.3008 0.700386C18.5008 0.500386 18.8008 0.300388 19.1008 0.100388C19.4008 0.000387572 19.7008 -0.0996094 20.0008 -0.0996094C20.3008 -0.0996094 20.6008 -0.0996124 21.0008 0.100388C21.3008 0.200388 21.6008 0.400388 21.8008 0.600388C22.0008 0.800388 22.2008 1.10039 22.4008 1.40039C22.5008 1.70039 22.6008 2.00039 22.6008 2.30039C22.6008 2.60039 22.6008 2.90039 22.4008 3.30039C22.3008 3.60039 22.1008 3.90039 21.9008 4.10039C18.3008 7.90039 13.5008 10.3004 8.30083 10.8004C8.20083 10.9004 8.10083 10.9004 8.00083 10.9004Z" fill="url(#paint0_radial_875_3697)"/>
<path d="M32.0004 29.1006C32.6004 29.1006 33.3004 29.3006 33.7004 29.8006C34.1004 30.3006 34.4004 30.8006 34.5004 31.5006C34.5004 32.1006 34.3004 32.8006 33.9004 33.3006C33.5004 33.8006 32.9004 34.1006 32.2004 34.1006C28.2004 34.5006 24.5004 36.4006 21.7004 39.3006C21.5004 39.5006 21.2004 39.7006 20.9004 39.9006C20.6004 40.0006 20.3004 40.1006 20.0004 40.1006C19.7004 40.1006 19.4004 40.1006 19.0004 39.9006C18.7004 39.8006 18.4004 39.6006 18.2004 39.4006C18.0004 39.2006 17.8004 38.9006 17.6004 38.6006C17.5004 38.3006 17.4004 38.0006 17.4004 37.7006C17.4004 37.4006 17.4004 37.1006 17.6004 36.7006C17.7004 36.4006 17.9004 36.1006 18.1004 35.9006C21.7004 32.1006 26.5004 29.7006 31.7004 29.2006C31.9004 29.1006 32.0004 29.1006 32.0004 29.1006Z" fill="url(#paint1_radial_875_3697)"/>
<path d="M29.1006 8C29.1006 7.4 29.3006 6.7 29.8006 6.3C30.2006 5.8 30.8006 5.6 31.5006 5.5C32.1006 5.5 32.8006 5.7 33.3006 6.1C33.8006 6.5 34.1006 7.1 34.1006 7.8C34.5006 11.8 36.4006 15.5 39.3006 18.3C39.5006 18.5 39.7006 18.8 39.9006 19.1C40.0006 19.4 40.1006 19.7 40.1006 20C40.1006 20.3 40.1006 20.6 39.9006 21C39.8006 21.3 39.6006 21.6 39.4006 21.8C39.2006 22 38.9006 22.2 38.6006 22.4C38.3006 22.5 38.0006 22.6 37.7006 22.6C37.4006 22.6 37.1006 22.6 36.7006 22.4C36.4006 22.3 36.1006 22.1 35.9006 21.9C32.1006 18.3 29.7006 13.5 29.2006 8.3C29.1006 8.2 29.1006 8.1 29.1006 8Z" fill="url(#paint2_radial_875_3697)"/>
<path d="M10.9004 32.0004C10.9004 32.6004 10.7004 33.3004 10.2004 33.7004C9.80039 34.2004 9.20039 34.4004 8.50039 34.5004C7.90039 34.5004 7.20039 34.3004 6.70039 33.9004C6.20039 33.5004 5.90039 32.9004 5.90039 32.2004C5.50039 28.2004 3.60039 24.5004 0.700392 21.7004C0.500392 21.5004 0.300391 21.2004 0.100391 20.9004C0.000391386 20.6004 -0.0996094 20.3004 -0.0996094 20.0004C-0.0996094 19.7004 -0.0996086 19.4004 0.100391 19.0004C0.200391 18.7004 0.400391 18.4004 0.600391 18.2004C0.800391 18.0004 1.10039 17.8004 1.40039 17.6004C1.70039 17.5004 2.00039 17.4004 2.30039 17.4004C2.60039 17.4004 2.90039 17.4004 3.30039 17.6004C3.60039 17.7004 3.90039 17.9004 4.10039 18.1004C7.90039 21.7004 10.3004 26.5004 10.8004 31.7004C10.9004 31.9004 10.9004 32.0004 10.9004 32.0004Z" fill="url(#paint3_radial_875_3697)"/>
<path d="M18.0002 5.10039C17.5002 4.70039 17.3002 4.00039 17.2002 3.40039C17.2002 2.80039 17.4002 2.10039 17.8002 1.70039C18.2002 1.20039 18.8002 0.900391 19.5002 0.900391C20.2002 0.900391 20.8002 1.10039 21.3002 1.50039C24.4002 4.00039 28.4002 5.40039 32.4002 5.30039C32.7002 5.30039 33.0002 5.30039 33.4002 5.50039C33.7002 5.60039 34.0002 5.80039 34.2002 6.00039C34.4002 6.20039 34.6002 6.50039 34.8002 6.80039C34.9002 7.10039 35.0002 7.40039 35.0002 7.70039C35.0002 8.00039 35.0002 8.30039 34.8002 8.70039C34.7002 9.00039 34.5002 9.30039 34.3002 9.50039C34.1002 9.70039 33.8002 9.90039 33.5002 10.1004C33.2002 10.2004 32.9002 10.3004 32.6002 10.3004C27.4002 10.4004 22.3002 8.70039 18.3002 5.40039C18.1002 5.20039 18.0002 5.10039 18.0002 5.10039Z" fill="url(#paint4_radial_875_3697)"/>
<path d="M22.1006 35.0001C22.6006 35.4001 22.8006 36.1001 22.9006 36.7001C22.9006 37.3001 22.7006 38.0001 22.3006 38.4001C21.9006 38.9001 21.3006 39.2001 20.6006 39.2001C20.0006 39.2001 19.3006 39.0001 18.8006 38.6001C15.7006 36.1001 11.7006 34.7001 7.70059 34.8001C7.40059 34.8001 7.10059 34.8001 6.70059 34.6001C6.40059 34.5001 6.10059 34.3001 5.90059 34.1001C5.70059 33.9001 5.50058 33.6001 5.30058 33.3001C5.20058 33.0001 5.10059 32.7001 5.10059 32.4001C5.10059 32.1001 5.10058 31.8001 5.30058 31.4001C5.40058 31.1001 5.60058 30.8001 5.80058 30.6001C6.00058 30.4001 6.30059 30.2001 6.60059 30.0001C6.90059 29.9001 7.20059 29.8001 7.50059 29.8001C12.7006 29.7001 17.8006 31.4001 21.8006 34.7001C21.9006 34.8001 22.0006 34.9001 22.1006 35.0001Z" fill="url(#paint5_radial_875_3697)"/>
<path d="M35.0001 18.0002C35.4001 17.5002 36.1001 17.3002 36.7001 17.2002C37.3001 17.2002 38.0001 17.4002 38.4001 17.8002C38.9001 18.2002 39.2001 18.8002 39.2001 19.5002C39.2001 20.1002 39.0001 20.8002 38.6001 21.3002C36.1001 24.4002 34.7001 28.4002 34.8001 32.4002C34.8001 32.7002 34.8001 33.0002 34.6001 33.4002C34.5001 33.7002 34.3001 34.0002 34.1001 34.2002C33.9001 34.4002 33.6001 34.6002 33.3001 34.8002C33.0001 34.9002 32.7001 35.0002 32.4001 35.0002C32.1001 35.0002 31.8001 35.0002 31.4001 34.8002C31.1001 34.7002 30.8001 34.5002 30.6001 34.3002C30.4001 34.1002 30.2001 33.8002 30.0001 33.5002C29.9001 33.2002 29.8001 32.9002 29.8001 32.6002C29.7001 27.4002 31.4001 22.3002 34.7001 18.3002C34.9001 18.1002 34.9001 18.0002 35.0001 18.0002Z" fill="url(#paint6_radial_875_3697)"/>
<path d="M5.10039 22.1006C4.70039 22.6006 4.00039 22.8006 3.40039 22.9006C2.80039 22.9006 2.10039 22.7006 1.70039 22.3006C1.20039 21.9006 0.900391 21.3006 0.900391 20.6006C0.900391 20.0006 1.10039 19.3006 1.50039 18.8006C4.00039 15.7006 5.40039 11.7006 5.30039 7.70058C5.30039 7.40058 5.30039 7.10058 5.50039 6.70058C5.60039 6.40058 5.80039 6.10059 6.00039 5.90059C6.20039 5.70059 6.50039 5.50059 6.80039 5.30059C7.10039 5.20059 7.40039 5.10059 7.70039 5.10059C8.00039 5.10059 8.30039 5.10059 8.70039 5.30059C9.00039 5.40059 9.30039 5.60059 9.50039 5.80059C9.70039 6.00059 9.90039 6.30059 10.1004 6.60059C10.2004 6.90059 10.3004 7.20059 10.3004 7.50059C10.4004 12.7006 8.70039 17.8006 5.40039 21.8006C5.20039 21.9006 5.10039 22.0006 5.10039 22.1006Z" fill="url(#paint7_radial_875_3697)"/>
</g>
<defs>
<radialGradient id="paint0_radial_875_3697" cx="0" cy="0" r="1" gradientUnits="userSpaceOnUse" gradientTransform="translate(20.1673 2.40421) scale(15.5478 15.5453)">
<stop offset="0.15" stop-color="#004BFF"/>
<stop offset="1" stop-color="#004BFF" stop-opacity="0.1"/>
</radialGradient>
<radialGradient id="paint1_radial_875_3697" cx="0" cy="0" r="1" gradientUnits="userSpaceOnUse" gradientTransform="translate(19.877 37.6332) rotate(180) scale(15.5478 15.5453)">
<stop offset="0.15" stop-color="#004BFF"/>
<stop offset="1" stop-color="#004BFF" stop-opacity="0.1"/>
</radialGradient>
<radialGradient id="paint2_radial_875_3697" cx="0" cy="0" r="1" gradientUnits="userSpaceOnUse" gradientTransform="translate(37.6394 20.1629) rotate(90) scale(15.5453 15.5478)">
<stop offset="0.15" stop-color="#004BFF"/>
<stop offset="1" stop-color="#004BFF" stop-opacity="0.1"/>
</radialGradient>
<radialGradient id="paint3_radial_875_3697" cx="0" cy="0" r="1" gradientUnits="userSpaceOnUse" gradientTransform="translate(2.40467 19.8737) rotate(-90) scale(15.5453 15.5478)">
<stop offset="0.15" stop-color="#004BFF"/>
<stop offset="1" stop-color="#004BFF" stop-opacity="0.1"/>
</radialGradient>
<radialGradient id="paint4_radial_875_3697" cx="0" cy="0" r="1" gradientUnits="userSpaceOnUse" gradientTransform="translate(32.5728 7.66714) rotate(44.9953) scale(15.5466)">
<stop offset="0.15" stop-color="#004BFF"/>
<stop offset="1" stop-color="#004BFF" stop-opacity="0.1"/>
</radialGradient>
<radialGradient id="paint5_radial_875_3697" cx="0" cy="0" r="1" gradientUnits="userSpaceOnUse" gradientTransform="translate(7.48451 32.3729) rotate(-135.005) scale(15.5466)">
<stop offset="0.15" stop-color="#004BFF"/>
<stop offset="1" stop-color="#004BFF" stop-opacity="0.1"/>
</radialGradient>
<radialGradient id="paint6_radial_875_3697" cx="0" cy="0" r="1" gradientUnits="userSpaceOnUse" gradientTransform="translate(32.3679 32.5966) rotate(135.005) scale(15.5466)">
<stop offset="0.15" stop-color="#004BFF"/>
<stop offset="1" stop-color="#004BFF" stop-opacity="0.1"/>
</radialGradient>
<radialGradient id="paint7_radial_875_3697" cx="0" cy="0" r="1" gradientUnits="userSpaceOnUse" gradientTransform="translate(7.67244 7.45426) rotate(-44.9953) scale(15.5466)">
<stop offset="0.15" stop-color="#004BFF"/>
<stop offset="1" stop-color="#004BFF" stop-opacity="0.1"/>
</radialGradient>
</defs>
</svg>
