<svg width="454" height="152" viewBox="0 0 454 152" fill="none" xmlns="http://www.w3.org/2000/svg">
<g clip-path="url(#clip0_875_3626)">
<mask id="mask0_875_3626" style="mask-type:luminance" maskUnits="userSpaceOnUse" x="-23" y="-174" width="500" height="500">
<path d="M477 -174H-23V326H477V-174Z" fill="white"/>
</mask>
<g mask="url(#mask0_875_3626)">
<path d="M60.8697 72.0504C60.1197 72.8604 59.4397 74.0204 58.8297 75.1704C57.5997 77.5404 56.7197 80.1904 56.1097 82.9004C54.8897 88.3204 54.8197 94.0904 55.8397 99.5804C56.1797 101.28 56.5897 102.9 57.1297 104.53C58.1497 102.7 59.0997 100.8 59.9197 98.9004C61.0797 96.2504 61.9597 93.5404 62.7097 90.6904C63.4597 87.9104 63.9997 85.0604 64.2097 82.2804C64.3497 80.8604 64.4197 79.5004 64.3497 78.0804C64.3497 76.7204 64.2097 75.3704 63.9397 74.1504C63.7997 73.5404 63.6697 72.9304 63.4597 72.4604C63.2597 71.9204 63.0497 71.5104 62.8497 71.1704C62.7797 71.1004 62.7097 71.0304 62.7097 70.9704L62.6397 70.9004L62.5697 70.8304C62.4997 70.7604 62.4997 70.7604 62.4297 70.6904C62.3597 70.6904 62.0897 70.8304 61.8197 71.0304C61.6197 71.2304 61.2097 71.6404 60.8697 72.0504Z" fill="#8B0ABE"/>
</g>
<mask id="mask1_875_3626" style="mask-type:luminance" maskUnits="userSpaceOnUse" x="-23" y="-174" width="500" height="500">
<path d="M477 -174H-23V326H477V-174Z" fill="white"/>
</mask>
<g mask="url(#mask1_875_3626)">
<path d="M103.18 54.4204C103.11 56.7304 103.04 59.0304 102.91 61.3404C102.71 64.4604 102.37 67.6504 101.96 70.7604C101.14 77.0004 99.9198 83.2404 98.1498 89.3404C97.2698 92.3904 96.2498 95.4404 95.0898 98.3604C94.5498 99.8504 93.8698 101.34 93.1898 102.77C92.5098 104.26 91.8298 105.69 91.0098 107.11C89.4498 109.96 87.6799 112.74 85.5699 115.32C84.5499 116.61 83.3898 117.9 82.0998 119.05C80.8098 120.27 79.4498 121.36 77.8798 122.37C76.3198 123.32 74.6198 124.2 72.6398 124.74C70.7298 125.28 68.5598 125.49 66.5198 125.15L65.7698 125.01C65.4998 124.94 65.2298 124.87 65.0198 124.81C64.4798 124.67 63.9998 124.47 63.5198 124.33C62.5698 123.92 61.6198 123.45 60.7998 122.91C59.0998 121.83 57.7398 120.47 56.5798 119.11C56.3098 118.77 56.0398 118.43 55.7598 118.03L55.3498 117.42L55.2798 117.49C52.8998 119.79 50.1798 121.83 47.1898 123.46C46.7798 123.66 46.4398 123.87 46.0298 124C45.6198 124.2 45.2798 124.34 44.8698 124.54C44.0498 124.88 43.3098 125.15 42.4898 125.42C41.6698 125.69 40.7898 125.9 39.9098 126.1C39.0298 126.3 38.0698 126.37 37.0498 126.37C36.0298 126.37 34.9398 126.23 33.8498 125.83C32.7598 125.49 31.6698 124.88 30.8598 124.07C29.9798 123.32 29.2998 122.37 28.8198 121.49C28.3398 120.61 27.9398 119.66 27.7298 118.78C27.1898 117.02 26.9798 115.32 26.9098 113.63C26.7698 112 26.8398 110.37 26.9098 108.75C27.0498 105.56 27.3898 102.44 27.7898 99.4604C28.1998 96.4104 28.6098 93.4304 29.0098 90.4404L29.1498 89.3504C29.2198 88.9404 29.2198 88.6704 29.2198 88.3304L29.2898 87.7904V87.3204V86.3004C29.2898 85.0104 29.0898 83.7204 28.7498 82.7804C28.5398 82.3704 28.3398 82.0304 28.1398 81.8304C27.9398 81.6304 27.8698 81.5604 27.5998 81.5604C27.3298 81.5604 26.9198 81.5604 26.4398 81.7004C26.1698 81.8404 25.9598 81.9004 25.6898 82.0404C25.5498 82.1104 25.4198 82.1704 25.2798 82.2404L24.8698 82.5104C23.8498 83.1904 22.7598 84.0704 21.8098 85.0904C20.8598 86.1104 19.9098 87.1904 18.9498 88.3404C17.1798 90.6504 15.4798 93.1604 13.8498 95.6604C13.5098 96.1304 12.8998 96.2704 12.4198 96.0004C12.0098 95.7304 11.8798 95.2504 12.0098 94.8504C12.4898 93.3604 12.9598 91.8704 13.6398 90.4404C14.2498 89.0204 14.9298 87.5904 15.7498 86.1704C16.5698 84.8204 17.4498 83.4604 18.4698 82.1704C19.4898 80.8804 20.6498 79.6604 22.1398 78.5804L22.6798 78.1704C22.8798 78.0304 23.0898 77.9004 23.2898 77.8304C23.6998 77.5604 24.1798 77.3504 24.5798 77.1504C25.5298 76.7404 26.6198 76.4704 27.9098 76.6104C28.2498 76.6804 28.5198 76.6804 28.8598 76.7504C29.1998 76.8204 29.4698 76.9504 29.8098 77.0204C30.0798 77.1604 30.4198 77.2904 30.6898 77.5004C30.9598 77.7004 31.2298 77.9104 31.4398 78.1104C32.3898 78.9204 32.9998 79.9404 33.4098 80.8904C34.2298 82.7904 34.4298 84.5504 34.4998 86.3204V87.6104V88.2204L34.4298 88.8304C34.4298 89.2404 34.3598 89.7104 34.3598 90.0504L34.2198 91.2004C33.9498 94.3204 33.5398 97.3004 33.1998 100.29C32.8598 103.27 32.5898 106.26 32.5198 109.17C32.4498 110.59 32.5198 112.02 32.5898 113.44C32.7298 114.8 32.9298 116.15 33.2698 117.24C33.4698 117.78 33.6798 118.33 33.8798 118.73C34.1498 119.14 34.4198 119.47 34.6998 119.68C34.9698 119.88 35.2398 120.09 35.6498 120.15C35.9898 120.29 36.4698 120.35 36.9398 120.35C38.9798 120.35 41.8398 119.26 44.1498 118.05C46.5298 116.76 48.7098 115.07 50.6798 113.1C51.1598 112.63 51.5598 112.22 51.9698 111.74C51.7698 111.33 51.5598 110.86 51.4298 110.45C50.1398 107.4 49.1898 104.21 48.6398 100.96C48.0298 97.7004 47.8198 94.3804 47.8898 91.1304C47.9598 87.8704 48.3698 84.5504 49.1098 81.3704C49.8498 78.1904 50.9498 75.0004 52.5098 71.9404C53.3298 70.4504 54.2798 68.8904 55.5698 67.4704C56.2498 66.7204 56.9298 66.0504 57.8798 65.4404C58.8298 64.8304 59.9198 64.2204 61.4198 63.9504C62.1698 63.8104 62.9898 63.8104 63.7298 63.9504C64.5498 64.0904 65.2299 64.3604 65.9099 64.7604C66.2499 64.9604 66.5198 65.1704 66.7898 65.3704C67.0598 65.5704 67.3298 65.7804 67.5398 66.0504L67.8798 66.3904C68.0098 66.5304 68.0798 66.5904 68.1498 66.7304C68.3498 66.9304 68.4898 67.2104 68.6898 67.4104C69.2998 68.3604 69.7799 69.3104 70.0499 70.2604C70.3899 71.2104 70.5999 72.0904 70.7999 72.9704C71.1399 74.7304 71.2798 76.4304 71.2798 78.1204C71.2798 79.8104 71.2098 81.4404 71.0098 83.0704C70.6698 86.3204 70.0598 89.4404 69.1698 92.5604C68.3498 95.6804 67.2698 98.6604 65.9698 101.65C64.6798 104.57 63.1798 107.41 61.4098 110.13C61.0698 110.67 60.7298 111.15 60.3898 111.69L60.7298 112.23L61.2698 113.04L61.8098 113.79L62.4198 114.54C63.2398 115.49 64.0498 116.23 64.9998 116.78C65.4798 117.05 65.8798 117.25 66.3598 117.46C66.5598 117.53 66.8398 117.6 67.0398 117.66C67.1798 117.66 67.2398 117.73 67.3798 117.73L67.7198 117.8C68.1998 117.87 68.6698 117.87 69.1498 117.8C69.6298 117.8 70.0998 117.66 70.6498 117.53C71.6698 117.19 72.6898 116.72 73.7098 116.04C75.7498 114.69 77.6498 112.78 79.2898 110.62C80.1098 109.53 80.9198 108.38 81.6698 107.23C82.4198 106.01 83.0998 104.79 83.7798 103.57C86.3598 98.4804 88.2698 92.9904 89.6998 87.3604C92.4898 76.0404 93.2399 64.1704 92.4899 52.4404V52.2404C92.4199 51.2904 92.1498 47.8304 91.5398 44.4404C82.2198 38.2704 71.0598 34.7404 59.0198 34.7404C26.2298 34.5404 -0.160156 60.9104 -0.160156 93.3904C-0.160156 125.87 26.2298 152.18 58.8198 152.18C91.3998 152.18 117.8 125.87 117.8 93.3904C117.94 78.4204 112.36 64.7904 103.18 54.4204Z" fill="#8B0ABE"/>
</g>
<mask id="mask2_875_3626" style="mask-type:luminance" maskUnits="userSpaceOnUse" x="-23" y="-174" width="500" height="500">
<path d="M477 -174H-23V326H477V-174Z" fill="white"/>
</mask>
<g mask="url(#mask2_875_3626)">
<path d="M113.45 11.5598L100.87 12.4398L96.7903 0.239839C96.5903 -0.300161 95.7703 -0.230162 95.7003 0.379838L93.7303 15.0898L83.3203 22.6198C82.9103 22.9598 83.1203 23.5698 83.5903 23.6398L94.4103 24.5198L98.9003 35.3698C99.1003 35.9098 99.8503 35.8498 99.9903 35.2298L102.57 22.2098L113.93 12.6498C114.27 12.1698 114 11.4998 113.45 11.5598Z" fill="#8B0ABE"/>
</g>
<mask id="mask3_875_3626" style="mask-type:luminance" maskUnits="userSpaceOnUse" x="-23" y="-174" width="500" height="500">
<path d="M477 -174H-23V326H477V-174Z" fill="white"/>
</mask>
<g mask="url(#mask3_875_3626)">
<path d="M189.57 79.5098H199.78L187.87 113H179.78L172.91 91.2998L166.24 113.07H158.14L145.9 79.5698H156.1L162.43 100.05L168.82 79.5698H176.78L183.18 100.05L189.57 79.5098Z" fill="#8B0ABE"/>
</g>
<mask id="mask4_875_3626" style="mask-type:luminance" maskUnits="userSpaceOnUse" x="-23" y="-174" width="500" height="500">
<path d="M477 -174H-23V326H477V-174Z" fill="white"/>
</mask>
<g mask="url(#mask4_875_3626)">
<path d="M200.93 96.3204C200.93 85.6704 209.43 78.6904 219.02 78.6904C228.61 78.6904 237.12 85.7404 237.12 96.3204C237.12 106.9 228.62 113.88 219.02 113.88C209.37 113.88 200.93 106.9 200.93 96.3204ZM227.46 96.3204C227.46 91.1004 223.65 87.4404 218.96 87.4404C214.27 87.4404 210.46 91.1004 210.46 96.3204C210.46 101.47 214.27 105.14 218.96 105.14C223.65 105.14 227.46 101.48 227.46 96.3204Z" fill="#8B0ABE"/>
</g>
<mask id="mask5_875_3626" style="mask-type:luminance" maskUnits="userSpaceOnUse" x="-23" y="-174" width="500" height="500">
<path d="M477 -174H-23V326H477V-174Z" fill="white"/>
</mask>
<g mask="url(#mask5_875_3626)">
<path d="M268 79.7801L265.82 88.7301C263.78 87.6401 262.15 87.5101 260.99 87.5101C256.16 87.5101 252.83 92.0501 252.83 101.55V113H243.44V79.5001H252.83V86.6901C254.73 81.0601 258.54 78.6201 262.69 78.6201C264.47 78.6901 266.51 78.9601 268 79.7801Z" fill="#8B0ABE"/>
</g>
<mask id="mask6_875_3626" style="mask-type:luminance" maskUnits="userSpaceOnUse" x="-23" y="-174" width="500" height="500">
<path d="M477 -174H-23V326H477V-174Z" fill="white"/>
</mask>
<g mask="url(#mask6_875_3626)">
<path d="M296.92 61.3301H306.37V113.07H296.92V108.94C294.54 112.4 289.84 113.96 286.1 113.96C277.46 113.96 269.64 107.04 269.64 96.3301C269.64 85.6201 277.46 78.7701 286.1 78.7701C289.98 78.7701 294.54 80.2601 296.92 83.7201V61.3301ZM296.65 96.2501C296.65 91.1001 292.29 87.4401 287.94 87.4401C283.18 87.4401 279.23 91.3001 279.23 96.2501C279.23 101.13 283.18 105.13 287.94 105.13C292.49 105.14 296.65 101.34 296.65 96.2501Z" fill="#8B0ABE"/>
</g>
<mask id="mask7_875_3626" style="mask-type:luminance" maskUnits="userSpaceOnUse" x="-23" y="-174" width="500" height="500">
<path d="M477 -174H-23V326H477V-174Z" fill="white"/>
</mask>
<g mask="url(#mask7_875_3626)">
<path d="M334.2 79.5098V86.8298H327.05V113H317.6V86.8298H311.48V79.5098H317.6V67.2998H327.05V79.5098H334.2Z" fill="#8B0ABE"/>
</g>
<mask id="mask8_875_3626" style="mask-type:luminance" maskUnits="userSpaceOnUse" x="-23" y="-174" width="500" height="500">
<path d="M477 -174H-23V326H477V-174Z" fill="white"/>
</mask>
<g mask="url(#mask8_875_3626)">
<path d="M362.09 79.5098H371.54V113H362.09V107.57C360.66 111.98 355.29 113.88 352.02 113.88C343.24 113.88 338.62 107.98 338.69 97.9498V79.5098H348.15V97.4798C348.15 102.7 351.35 105.14 354.55 105.14C357.95 105.14 362.1 103.24 362.1 97.2698V79.5098H362.09Z" fill="#8B0ABE"/>
</g>
<mask id="mask9_875_3626" style="mask-type:luminance" maskUnits="userSpaceOnUse" x="-23" y="-174" width="500" height="500">
<path d="M477 -174H-23V326H477V-174Z" fill="white"/>
</mask>
<g mask="url(#mask9_875_3626)">
<path d="M412.76 94.6997V113.08H403.3V95.1797C403.3 89.9597 400.1 87.5797 396.9 87.5797C393.5 87.5797 389.35 89.3397 389.35 95.4497V113H379.9V79.4997H389.35V85.1897C390.78 80.6497 396.15 78.6797 399.42 78.6797C408.21 78.6897 412.83 84.6597 412.76 94.6997Z" fill="#8B0ABE"/>
</g>
<mask id="mask10_875_3626" style="mask-type:luminance" maskUnits="userSpaceOnUse" x="-23" y="-174" width="500" height="500">
<path d="M477 -174H-23V326H477V-174Z" fill="white"/>
</mask>
<g mask="url(#mask10_875_3626)">
<path d="M453.92 99.3701H428.62C429.64 103.3 432.77 105.61 437.26 105.61C440.73 105.61 444.06 104.05 446.1 101.68L451.54 107.24C448.34 111.44 442.56 114.02 436.64 114.02C426.3 114.02 418.68 106.77 418.68 96.4601C418.68 85.6101 426.98 78.8301 436.57 78.8301C446.23 78.8301 454.05 85.6801 454.05 95.9201C454.12 96.6601 454.06 97.8101 453.92 99.3701ZM444.67 93.2701C444.4 89.3401 441.13 86.8301 436.92 86.8301C433.04 86.8301 429.71 88.8001 428.69 93.2701H444.67Z" fill="#8B0ABE"/>
</g>
</g>
<defs>
<clipPath id="clip0_875_3626">
<rect width="454" height="152" fill="white"/>
</clipPath>
</defs>
</svg>
