<svg width="21" height="19" viewBox="0 0 21 19" fill="none" xmlns="http://www.w3.org/2000/svg">
<path d="M10.1997 18.6921L10.1927 18.6891L10.1707 18.6771C10.042 18.6062 9.9143 18.5336 9.78769 18.4591C8.2655 17.5545 6.84296 16.492 5.54369 15.2891C3.24269 13.1421 0.804688 9.95605 0.804688 6.03205C0.804688 3.10405 3.26869 0.782053 6.24269 0.782053C7.06944 0.778004 7.88647 0.960394 8.63301 1.31566C9.37955 1.67092 10.0364 2.18992 10.5547 2.83405C11.0731 2.18979 11.7301 1.67071 12.4768 1.31544C13.2235 0.960171 14.0408 0.777853 14.8677 0.782053C17.8407 0.782053 20.3047 3.10405 20.3047 6.03205C20.3047 9.95705 17.8667 13.1431 15.5657 15.2881C14.2664 16.491 12.8439 17.5536 11.3217 18.4581C11.1951 18.5329 11.0674 18.6059 10.9387 18.6771L10.9167 18.6891L10.9097 18.6931L10.9067 18.6941C10.7982 18.7515 10.6774 18.7815 10.5547 18.7815C10.432 18.7815 10.3111 18.7515 10.2027 18.6941L10.1997 18.6931V18.6921Z" fill="#FF2868"/>
</svg>
