<svg width="501" height="501" viewBox="0 0 501 501" fill="none" xmlns="http://www.w3.org/2000/svg">
<path d="M201.304 291.431C201.304 291.431 180.824 209.821 153.474 190.721C170.534 221.951 188.234 294.001 188.234 294.001L201.304 291.431Z" fill="#F5044C"/>
<path d="M208.094 290.081C208.094 290.081 191.354 220.511 208.094 196.361C206.094 226.201 221.154 287.511 221.154 287.511L208.094 290.081Z" fill="#F5044C"/>
<path d="M198.884 291.901L211.544 289.401C211.544 289.401 193.544 191.001 166.374 165.401C175.824 181.561 194.724 271.041 198.884 291.901Z" fill="#F5044C"/>
<path d="M184.314 294.781L195.154 292.641C195.154 292.641 168.764 221.111 138.724 200.081C160.694 236.691 177.234 276.491 184.314 294.781Z" fill="#F5044C"/>
<path d="M173.234 296.971C173.234 296.971 149.584 253.421 127.034 244.081C143.034 260.401 163.654 298.861 163.654 298.861L173.234 296.971Z" fill="#F5044C"/>
<path d="M186.744 294.301C186.744 294.301 157.904 231.021 137.634 219.711C150.414 238.821 177.164 296.191 177.164 296.191L186.744 294.301Z" fill="#F5044C"/>
<path d="M171.464 297.321L180.764 295.481C180.764 295.481 157.324 242.711 134.234 229.841C142.984 238.261 166.234 286.141 171.464 297.321Z" fill="#F5044C"/>
<path d="M160.764 299.431L168.764 297.861C168.764 297.861 141.674 260.011 116.894 249.721C137.104 268.781 153.564 289.771 160.764 299.431Z" fill="#F5044C"/>
<g opacity="0.5">
<path d="M201.304 291.431C201.304 291.431 180.824 209.821 153.474 190.721C170.534 221.951 188.234 294.001 188.234 294.001L201.304 291.431Z" fill="white"/>
<path d="M208.094 290.081C208.094 290.081 191.354 220.511 208.094 196.361C206.094 226.201 221.154 287.511 221.154 287.511L208.094 290.081Z" fill="white"/>
<path d="M198.884 291.901L211.544 289.401C211.544 289.401 193.544 191.001 166.374 165.401C175.824 181.561 194.724 271.041 198.884 291.901Z" fill="white"/>
<path d="M184.314 294.781L195.154 292.641C195.154 292.641 168.764 221.111 138.724 200.081C160.694 236.691 177.234 276.491 184.314 294.781Z" fill="white"/>
<path d="M173.234 296.971C173.234 296.971 149.584 253.421 127.034 244.081C143.034 260.401 163.654 298.861 163.654 298.861L173.234 296.971Z" fill="white"/>
<path d="M186.744 294.301C186.744 294.301 157.904 231.021 137.634 219.711C150.414 238.821 177.164 296.191 177.164 296.191L186.744 294.301Z" fill="white"/>
<path d="M171.464 297.321L180.764 295.481C180.764 295.481 157.324 242.711 134.234 229.841C142.984 238.261 166.234 286.141 171.464 297.321Z" fill="white"/>
<path d="M160.764 299.431L168.764 297.861C168.764 297.861 141.674 260.011 116.894 249.721C137.104 268.781 153.564 289.771 160.764 299.431Z" fill="white"/>
</g>
<path d="M312.924 301.341C312.924 301.341 352.924 262.821 374.104 261.031C355.154 270.461 319.574 305.511 319.574 305.511L312.924 301.341Z" fill="#F5044C"/>
<path d="M309.454 299.161C309.454 299.161 344.984 267.091 341.304 252.921C334.894 266.641 302.804 294.991 302.804 294.991L309.454 299.161Z" fill="#F5044C"/>
<path d="M314.164 302.111L307.694 298.111C307.694 298.111 342.634 263.461 365.694 258.841C355.524 263.521 322.704 294.111 314.164 302.111Z" fill="#F5044C"/>
<path d="M321.594 306.771L316.064 303.301C316.064 303.301 351.294 272.721 374.604 270.731C351.234 281.321 331.054 300.571 321.594 306.771Z" fill="#F5044C"/>
<path d="M327.234 310.311C327.234 310.311 351.884 292.841 367.474 294.121C353.544 297.381 332.124 313.381 332.124 313.381L327.234 310.311Z" fill="#F5044C"/>
<path d="M320.354 305.991C320.354 305.991 353.794 281.251 368.674 281.151C355.744 286.371 325.234 309.061 325.234 309.061L320.354 305.991Z" fill="#F5044C"/>
<path d="M328.154 310.901L323.404 307.901C323.404 307.901 350.664 286.411 367.604 286.301C360.144 287.901 334.434 307.301 328.154 310.901Z" fill="#F5044C"/>
<path d="M333.614 314.311L329.554 311.761C329.554 311.761 354.474 297.551 371.614 298.951C354.454 302.391 340.574 311.841 333.614 314.311Z" fill="#F5044C"/>
<g opacity="0.5">
<path d="M312.924 301.341C312.924 301.341 352.924 262.821 374.104 261.031C355.154 270.461 319.574 305.511 319.574 305.511L312.924 301.341Z" fill="white"/>
<path d="M309.454 299.161C309.454 299.161 344.984 267.091 341.304 252.921C334.894 266.641 302.804 294.991 302.804 294.991L309.454 299.161Z" fill="white"/>
<path d="M314.164 302.111L307.694 298.111C307.694 298.111 342.634 263.461 365.694 258.841C355.524 263.521 322.704 294.111 314.164 302.111Z" fill="white"/>
<path d="M321.594 306.771L316.064 303.301C316.064 303.301 351.294 272.721 374.604 270.731C351.234 281.321 331.054 300.571 321.594 306.771Z" fill="white"/>
<path d="M327.234 310.311C327.234 310.311 351.884 292.841 367.474 294.121C353.544 297.381 332.124 313.382 332.124 313.382L327.234 310.311Z" fill="white"/>
<path d="M320.354 305.991C320.354 305.991 353.794 281.251 368.674 281.151C355.744 286.371 325.234 309.061 325.234 309.061L320.354 305.991Z" fill="white"/>
<path d="M328.154 310.901L323.404 307.901C323.404 307.901 350.664 286.411 367.604 286.301C360.144 287.901 334.434 307.301 328.154 310.901Z" fill="white"/>
<path d="M333.614 314.311L329.554 311.761C329.554 311.761 354.474 297.551 371.614 298.951C354.454 302.391 340.574 311.841 333.614 314.311Z" fill="white"/>
</g>
<path d="M185.554 278.171H332.024C333.756 278.171 335.417 278.859 336.641 280.084C337.866 281.309 338.554 282.97 338.554 284.701V355.771C338.554 357.503 337.866 359.164 336.641 360.389C335.417 361.613 333.756 362.301 332.024 362.301H164.074C162.342 362.301 160.681 361.613 159.457 360.389C158.232 359.164 157.544 357.503 157.544 355.771V306.171C157.544 298.745 160.494 291.623 165.745 286.372C170.996 281.121 178.118 278.171 185.544 278.171H185.554Z" fill="#F5044C"/>
<path opacity="0.2" d="M185.554 278.171H332.024C333.756 278.171 335.417 278.859 336.641 280.084C337.866 281.309 338.554 282.97 338.554 284.701V355.771C338.554 357.503 337.866 359.164 336.641 360.389C335.417 361.613 333.756 362.301 332.024 362.301H164.074C162.342 362.301 160.681 361.613 159.457 360.389C158.232 359.164 157.544 357.503 157.544 355.771V306.171C157.544 298.745 160.494 291.623 165.745 286.372C170.996 281.121 178.118 278.171 185.544 278.171H185.554Z" fill="#313131"/>
<path opacity="0.2" d="M332.024 362.291H310.544C308.812 362.291 307.151 361.603 305.927 360.379C304.702 359.154 304.014 357.493 304.014 355.761V306.171C304.014 298.745 306.964 291.623 312.215 286.372C317.466 281.121 324.588 278.171 332.014 278.171V278.171C333.743 278.171 335.402 278.858 336.625 280.081C337.847 281.304 338.534 282.962 338.534 284.691V355.761C338.534 357.49 337.849 359.148 336.629 360.372C335.408 361.596 333.753 362.286 332.024 362.291V362.291Z" fill="#313131"/>
<path d="M167.304 417.141H162.094L169.304 362.291H177.944L167.304 417.141Z" fill="#B6B6B6"/>
<path d="M295.994 417.141H301.204L293.994 362.291H285.354L295.994 417.141Z" fill="#B6B6B6"/>
<path d="M200.104 417.141H194.894L202.104 362.291H210.744L200.104 417.141Z" fill="#B6B6B6"/>
<path d="M328.794 417.141H334.004L326.794 362.291H318.154L328.794 417.141Z" fill="#B6B6B6"/>
<path d="M154.024 92.5913L139.304 361.331L349.814 372.581L364.024 103.691L154.024 92.5913ZM335.614 325.021L158.914 315.681L169.174 121.461L345.874 130.801L335.614 325.021Z" fill="white"/>
<path d="M188.504 337.841C188.435 337.838 188.367 337.821 188.304 337.791L186.514 336.871C185.671 337.285 184.743 337.497 183.804 337.491C182.384 337.435 181.026 336.896 179.954 335.964C178.881 335.032 178.158 333.763 177.904 332.365C177.65 330.967 177.879 329.524 178.555 328.274C179.231 327.024 180.312 326.042 181.621 325.489C182.93 324.936 184.388 324.846 185.755 325.233C187.122 325.619 188.317 326.461 189.142 327.617C189.967 328.774 190.373 330.178 190.293 331.596C190.214 333.015 189.653 334.364 188.704 335.421L189.024 337.261C189.04 337.336 189.039 337.413 189.019 337.486C189 337.56 188.964 337.628 188.913 337.685C188.862 337.741 188.798 337.785 188.727 337.812C188.656 337.839 188.58 337.849 188.504 337.841V337.841ZM184.364 326.071C182.98 326.017 181.63 326.512 180.609 327.449C179.588 328.385 178.979 329.687 178.914 331.071C178.882 331.758 178.986 332.445 179.22 333.091C179.455 333.737 179.815 334.331 180.279 334.837C180.744 335.344 181.305 335.754 181.928 336.043C182.552 336.332 183.227 336.494 183.914 336.521C184.776 336.519 185.623 336.306 186.384 335.901C186.452 335.867 186.528 335.849 186.604 335.849C186.681 335.849 186.756 335.867 186.824 335.901L187.944 336.471L187.744 335.381C187.734 335.304 187.741 335.225 187.765 335.15C187.789 335.076 187.83 335.008 187.884 334.951C188.586 334.235 189.067 333.331 189.268 332.349C189.469 331.366 189.382 330.346 189.018 329.412C188.653 328.478 188.027 327.668 187.214 327.081C186.401 326.494 185.436 326.153 184.434 326.101L184.364 326.071Z" fill="#4F4F4F"/>
<path d="M201.774 337.661C201.675 337.657 201.579 337.624 201.499 337.565C201.419 337.506 201.358 337.425 201.324 337.331L199.324 331.561L195.234 327.381C195.164 327.31 195.117 327.218 195.099 327.119C195.081 327.02 195.093 326.918 195.134 326.827C195.175 326.735 195.243 326.658 195.329 326.605C195.414 326.552 195.514 326.527 195.614 326.531L206.334 327.011C206.417 327.013 206.498 327.035 206.57 327.076C206.642 327.118 206.703 327.176 206.746 327.247C206.789 327.318 206.813 327.399 206.816 327.482C206.819 327.565 206.802 327.647 206.764 327.721L202.234 337.371C202.195 337.46 202.13 337.534 202.048 337.586C201.966 337.638 201.871 337.664 201.774 337.661V337.661ZM196.774 327.591L200.084 330.941C200.135 330.993 200.176 331.054 200.204 331.121L201.844 335.831L205.474 327.981L196.774 327.591Z" fill="#4F4F4F"/>
<path d="M172.174 326.991C172.061 326.213 171.676 325.499 171.086 324.978C170.496 324.458 169.741 324.163 168.954 324.148C168.168 324.132 167.401 324.396 166.791 324.893C166.181 325.39 165.768 326.088 165.624 326.861C165.547 326.081 165.197 325.353 164.635 324.806C164.073 324.259 163.335 323.929 162.553 323.874C161.771 323.819 160.995 324.043 160.361 324.505C159.728 324.968 159.279 325.639 159.094 326.401C158.878 327.533 159.107 328.704 159.734 329.671C160.363 330.624 161.109 331.494 161.954 332.261C163.094 333.381 164.144 334.431 165.284 335.541C166.514 334.541 167.564 333.541 168.804 332.541C169.713 331.852 170.532 331.053 171.244 330.161C171.942 329.259 172.274 328.127 172.174 326.991V326.991Z" fill="#FF2868"/>
<path d="M334.064 345.671C333.942 345.664 333.828 345.61 333.744 345.521L330.094 341.521L326.324 344.961C326.255 345.022 326.17 345.061 326.079 345.074C325.988 345.087 325.895 345.072 325.813 345.033C325.73 344.994 325.66 344.931 325.612 344.852C325.565 344.774 325.541 344.683 325.544 344.591L326.074 332.701C326.082 332.577 326.136 332.459 326.224 332.371C326.318 332.29 326.44 332.247 326.564 332.251L334.654 332.611C334.778 332.619 334.894 332.674 334.978 332.766C335.062 332.857 335.107 332.977 335.104 333.101L334.554 345.211C334.553 345.305 334.522 345.396 334.466 345.471C334.411 345.546 334.333 345.602 334.244 345.631L334.064 345.671ZM330.154 340.391C330.216 340.395 330.276 340.411 330.331 340.438C330.386 340.466 330.435 340.504 330.474 340.551L333.674 344.041L334.144 333.541L326.994 333.221L326.534 343.511L329.804 340.511C329.897 340.427 330.019 340.38 330.144 340.381L330.154 340.391Z" fill="#4F4F4F"/>
<path d="M355.234 113.451C355.198 113.735 355.058 113.994 354.84 114.179C354.622 114.364 354.343 114.46 354.058 114.449C353.772 114.437 353.501 114.319 353.299 114.118C353.096 113.917 352.977 113.647 352.964 113.361C352.977 113.061 353.108 112.777 353.329 112.573C353.55 112.369 353.843 112.26 354.144 112.271C354.293 112.276 354.44 112.311 354.576 112.373C354.712 112.436 354.834 112.524 354.935 112.634C355.036 112.744 355.115 112.872 355.166 113.013C355.218 113.153 355.241 113.302 355.234 113.451Z" fill="#4F4F4F"/>
<path d="M355.074 117.541C355.069 117.691 355.034 117.837 354.972 117.973C354.91 118.109 354.821 118.231 354.712 118.333C354.602 118.434 354.473 118.513 354.333 118.564C354.193 118.615 354.044 118.638 353.894 118.631C353.737 118.639 353.579 118.613 353.432 118.556C353.285 118.499 353.151 118.412 353.039 118.301C352.927 118.19 352.839 118.056 352.782 117.909C352.724 117.762 352.697 117.605 352.704 117.447C352.71 117.29 352.749 117.135 352.818 116.993C352.887 116.851 352.985 116.725 353.105 116.623C353.226 116.521 353.366 116.445 353.517 116.4C353.669 116.355 353.828 116.342 353.984 116.361C354.134 116.367 354.28 116.401 354.416 116.463C354.552 116.526 354.674 116.614 354.775 116.724C354.877 116.834 354.955 116.962 355.007 117.103C355.058 117.243 355.081 117.392 355.074 117.541V117.541Z" fill="#4F4F4F"/>
<path d="M354.914 121.631C354.904 121.856 354.827 122.073 354.694 122.255C354.561 122.437 354.376 122.575 354.164 122.652C353.953 122.729 353.723 122.741 353.504 122.687C353.285 122.634 353.087 122.516 352.935 122.35C352.782 122.184 352.683 121.976 352.649 121.754C352.614 121.531 352.647 121.303 352.742 121.099C352.837 120.894 352.991 120.723 353.183 120.606C353.376 120.489 353.599 120.432 353.824 120.441C354.126 120.457 354.409 120.59 354.613 120.813C354.817 121.036 354.925 121.33 354.914 121.631Z" fill="#4F4F4F"/>
<path d="M168.714 109.311C169.358 109.066 169.916 108.637 170.318 108.077C170.72 107.517 170.948 106.85 170.974 106.161C171.034 105.709 171.001 105.25 170.875 104.811C170.75 104.373 170.535 103.965 170.244 103.613C169.954 103.262 169.593 102.974 169.186 102.768C168.779 102.562 168.334 102.443 167.879 102.417C167.423 102.392 166.967 102.461 166.54 102.62C166.112 102.778 165.722 103.024 165.394 103.341C165.066 103.658 164.807 104.039 164.633 104.461C164.459 104.882 164.374 105.335 164.384 105.791C164.337 106.484 164.495 107.174 164.838 107.777C165.181 108.38 165.695 108.869 166.314 109.181C165.268 109.253 164.267 109.634 163.438 110.275C162.608 110.915 161.988 111.788 161.654 112.781C162.763 114.191 164.343 115.153 166.104 115.491L168.104 115.601C169.913 115.46 171.609 114.663 172.874 113.361C172.662 112.349 172.153 111.423 171.412 110.702C170.671 109.98 169.731 109.496 168.714 109.311Z" fill="#4F4F4F"/>
<path d="M167.104 116.271C165.356 116.178 163.675 115.568 162.274 114.519C160.872 113.47 159.813 112.029 159.231 110.378C158.649 108.727 158.569 106.941 159.002 105.244C159.435 103.548 160.362 102.019 161.664 100.849C162.967 99.6796 164.587 98.9225 166.32 98.6738C168.052 98.425 169.82 98.6958 171.399 99.4518C172.978 100.208 174.297 101.415 175.19 102.921C176.082 104.427 176.509 106.163 176.414 107.911C176.282 110.252 175.229 112.446 173.484 114.013C171.74 115.579 169.446 116.391 167.104 116.271V116.271ZM168.004 99.6013C166.454 99.5165 164.913 99.8935 163.576 100.685C162.24 101.476 161.169 102.645 160.497 104.046C159.826 105.446 159.585 107.014 159.805 108.551C160.024 110.088 160.695 111.526 161.732 112.682C162.769 113.838 164.126 114.66 165.63 115.045C167.135 115.43 168.719 115.36 170.184 114.844C171.649 114.328 172.927 113.389 173.858 112.146C174.789 110.903 175.331 109.412 175.414 107.861C175.523 105.784 174.805 103.749 173.416 102.2C172.027 100.652 170.081 99.7176 168.004 99.6013V99.6013Z" fill="#4F4F4F"/>
<path d="M306.544 166.041C305.544 161.821 295.864 154.041 285.864 159.791C275.864 165.541 266.024 171.471 268.064 183.611C270.104 195.751 258.234 190.901 251.934 200.081C245.634 209.261 240.424 246.081 268.734 235.941C280.104 231.871 284.464 231.471 293.734 237.691C303.004 243.911 323.244 219.231 311.804 202.021C303.054 188.901 319.914 169.071 306.544 166.041Z" fill="#595959"/>
<path d="M264.704 215.701C264.194 216.431 263.794 216.941 263.334 217.531C262.874 218.121 262.414 218.641 261.944 219.181C261.004 220.261 260.044 221.301 259.044 222.321C257.029 224.342 254.881 226.227 252.614 227.961C248.017 231.57 242.807 234.321 237.234 236.081L236.714 236.241L236.444 236.321L235.974 236.441C235.265 236.619 234.534 236.69 233.804 236.651C232.961 236.593 232.135 236.387 231.364 236.041C230.656 235.697 230.008 235.241 229.444 234.691C228.628 233.85 227.983 232.858 227.544 231.771C227.204 230.947 226.939 230.093 226.754 229.221C226.211 226.311 226.023 223.346 226.194 220.391C226.473 214.899 227.25 209.443 228.514 204.091L232.954 204.741C232.727 209.926 232.76 215.12 233.054 220.301C233.172 222.667 233.54 225.014 234.154 227.301C234.282 227.726 234.449 228.138 234.654 228.531C234.814 228.841 234.994 229.001 234.954 228.921C234.746 228.7 234.466 228.562 234.164 228.531C234.034 228.531 233.944 228.531 233.964 228.531L234.174 228.451L234.584 228.291C239.111 226.503 243.327 224.009 247.074 220.901C248.99 219.343 250.814 217.674 252.534 215.901C253.404 215.021 254.254 214.111 255.064 213.191C255.474 212.721 255.864 212.251 256.254 211.781C256.644 211.311 257.054 210.781 257.324 210.451L264.704 215.701Z" fill="#FF9586"/>
<path d="M265.364 203.281C261.594 203.281 251.464 213.511 251.464 213.511L259.634 226.781C259.634 226.781 272.634 216.951 272.344 212.061C272.094 206.961 270.864 203.291 265.364 203.281Z" fill="#F5044C"/>
<path opacity="0.2" d="M266.814 214.651C265.144 215.651 261.284 221.401 259.904 226.571C262.559 224.506 265.081 222.275 267.454 219.891C267.804 216.621 267.794 214.041 266.814 214.651Z" fill="#313131"/>
<path d="M232.364 207.041L240.164 202.041L232.784 200.571C232.784 200.571 226.954 202.291 228.314 205.711L232.364 207.041Z" fill="#FF9586"/>
<path d="M225.124 309.751L216.264 309.661L214.974 289.121L223.834 289.211L225.124 309.751Z" fill="#FF9586"/>
<path d="M242.304 401.381L233.584 399.761L234.544 379.051L243.254 380.681L242.304 401.381Z" fill="#FF9586"/>
<path d="M232.904 398.901L242.754 397.461C242.923 397.43 243.098 397.463 243.244 397.553C243.39 397.644 243.497 397.786 243.544 397.951L245.804 405.581C245.855 405.775 245.865 405.977 245.833 406.175C245.801 406.373 245.727 406.562 245.616 406.729C245.506 406.896 245.361 407.038 245.192 407.145C245.022 407.253 244.832 407.323 244.634 407.351C241.184 407.791 239.504 407.831 235.164 408.471C232.504 408.861 227.254 410.531 223.574 411.071C219.894 411.611 219.164 407.991 220.644 407.441C224.961 405.982 228.745 403.27 231.514 399.651C231.875 399.246 232.367 398.98 232.904 398.901V398.901Z" fill="#595959"/>
<path d="M215.714 308.351L225.654 308.961C225.826 308.968 225.99 309.038 226.113 309.158C226.237 309.278 226.312 309.44 226.324 309.611L226.964 317.541C226.974 317.742 226.942 317.942 226.87 318.128C226.797 318.315 226.686 318.484 226.543 318.625C226.401 318.766 226.23 318.875 226.042 318.945C225.854 319.015 225.654 319.044 225.454 319.031C221.994 318.761 220.774 318.601 216.404 318.331C213.714 318.171 207.634 318.151 203.914 317.921C200.194 317.691 200.294 313.801 201.864 313.571C208.864 312.501 211.744 310.621 214.204 308.801C214.637 308.474 215.173 308.315 215.714 308.351V308.351Z" fill="#595959"/>
<g opacity="0.2">
<path d="M214.974 289.121L215.674 300.301L224.544 300.401L223.844 289.211L214.974 289.121Z" fill="#313131"/>
<path d="M243.254 380.682L234.534 379.062L234.014 390.592L242.744 391.942L243.254 380.682Z" fill="#313131"/>
</g>
<path d="M265.234 203.291C265.234 203.291 260.844 204.181 262.024 256.861L297.674 261.861C299.104 247.271 300.344 238.321 311.434 209.511C306.587 207.782 301.621 206.408 296.574 205.401C291.239 204.259 285.828 203.504 280.384 203.141C273.324 202.781 265.234 203.291 265.234 203.291Z" fill="#F5044C"/>
<path opacity="0.2" d="M309.724 213.901C306.383 214.746 303.46 216.77 301.494 219.601C299.124 223.231 302.084 232.001 302.814 233.981C304.434 228.571 306.644 222.121 309.724 213.901Z" fill="#313131"/>
<path d="M297.234 188.901C295.484 193.971 293.404 201.421 296.564 205.401C291.238 212.677 285.087 219.311 278.234 225.171C271.984 210.671 280.384 203.121 280.384 203.121C286.384 202.541 286.564 200.171 286.124 195.981L297.234 188.901Z" fill="#FF9586"/>
<path opacity="0.2" d="M292.694 191.781L286.104 195.981C286.235 196.949 286.279 197.926 286.234 198.901C288.494 198.901 292.234 197.481 293.064 195.141C293.424 194.051 292.804 192.341 292.694 191.781Z" fill="#313131"/>
<path d="M305.704 180.711C302.534 188.921 301.374 192.461 295.784 195.421C287.374 199.861 277.994 194.181 278.644 185.191C279.224 177.101 284.304 165.041 293.554 164.311C295.591 164.141 297.639 164.493 299.502 165.336C301.364 166.179 302.981 167.483 304.198 169.126C305.415 170.769 306.193 172.696 306.456 174.723C306.72 176.751 306.461 178.812 305.704 180.711V180.711Z" fill="#FF9586"/>
<path d="M304.864 166.901C303.534 163.241 288.864 161.811 283.144 165.661C277.424 169.511 308.144 175.961 304.864 166.901Z" fill="#595959"/>
<path d="M262.004 256.901C256.664 245.291 216.564 219.751 213.234 244.121C209.564 270.941 213.864 297.681 213.864 297.681L226.234 296.191C226.234 296.191 225.594 277.081 230.124 259.301C233.044 268.371 249.124 284.171 254.334 284.401C273.454 285.221 284.174 273.031 288.114 260.511L262.004 256.901Z" fill="#595959"/>
<path opacity="0.2" d="M263.934 270.341C257.6 271.455 251.571 273.884 246.234 277.471C249.414 281.471 252.424 284.311 254.334 284.401H254.634C258.904 279.331 266.504 269.901 263.934 270.341Z" fill="#313131"/>
<path d="M226.874 298.211L212.814 298.061L211.834 293.561L227.584 293.181L226.874 298.211Z" fill="#F5044C"/>
<path d="M271.424 258.181C271.424 258.181 238.144 287.341 233.714 310.531C228.464 338.061 232.324 387.321 232.324 387.321L244.234 389.541C244.234 389.541 252.384 342.131 255.124 317.461C265.734 297.651 304.384 282.821 297.684 261.841L271.424 258.181Z" fill="#595959"/>
<path d="M245.454 390.411L230.714 387.671L230.014 382.741L247.494 385.191L245.454 390.411Z" fill="#F5044C"/>
<path d="M291.654 178.711C291.434 179.391 290.894 179.821 290.454 179.711C290.014 179.601 289.824 178.911 290.034 178.221C290.244 177.531 290.784 177.101 291.234 177.221C291.684 177.341 291.864 178.021 291.654 178.711Z" fill="#595959"/>
<path d="M283.944 176.262C283.734 176.952 283.194 177.382 282.744 177.262C282.294 177.142 282.114 176.461 282.334 175.771C282.554 175.081 283.084 174.651 283.534 174.771C283.984 174.891 284.164 175.582 283.944 176.262Z" fill="#595959"/>
<path d="M283.714 174.901L282.234 173.901C282.234 173.901 282.664 175.431 283.714 174.901Z" fill="#595959"/>
<path d="M285.934 178.241C284.834 179.604 283.552 180.808 282.124 181.821C282.393 182.182 282.737 182.478 283.132 182.691C283.528 182.903 283.966 183.026 284.414 183.051L285.934 178.241Z" fill="#FB807D"/>
<path d="M287.284 186.901C286.944 186.846 286.61 186.763 286.284 186.651C286.231 186.635 286.187 186.599 286.16 186.55C286.134 186.501 286.128 186.444 286.144 186.391C286.162 186.338 286.2 186.293 286.251 186.267C286.301 186.241 286.359 186.235 286.414 186.251C287.255 186.538 288.153 186.623 289.033 186.5C289.914 186.377 290.753 186.048 291.484 185.541C291.527 185.518 291.576 185.511 291.624 185.521C291.672 185.53 291.715 185.556 291.746 185.594C291.776 185.632 291.793 185.679 291.793 185.728C291.792 185.777 291.775 185.824 291.744 185.861C291.109 186.327 290.387 186.659 289.62 186.838C288.854 187.016 288.059 187.038 287.284 186.901V186.901Z" fill="#595959"/>
<path d="M301.354 168.321C298.154 171.531 298.984 180.711 303.224 185.961C307.464 191.211 310.294 175.961 307.974 171.261C305.654 166.561 303.114 166.571 301.354 168.321Z" fill="#595959"/>
<path d="M305.234 188.211C304.703 188.865 304.048 189.407 303.306 189.807C302.565 190.207 301.752 190.456 300.914 190.541C298.664 190.751 297.914 188.651 298.914 186.741C299.774 185.021 301.974 182.841 304.074 183.521C304.528 183.678 304.935 183.946 305.259 184.301C305.582 184.655 305.812 185.085 305.928 185.551C306.043 186.017 306.04 186.505 305.919 186.969C305.798 187.434 305.562 187.861 305.234 188.211V188.211Z" fill="#FF9586"/>
<path d="M300.954 192.381C301.81 192.381 302.504 191.688 302.504 190.831C302.504 189.975 301.81 189.281 300.954 189.281C300.098 189.281 299.404 189.975 299.404 190.831C299.404 191.688 300.098 192.381 300.954 192.381Z" fill="#F5044C"/>
<path d="M294.234 176.671C294.148 176.647 294.072 176.596 294.017 176.526C293.961 176.456 293.929 176.371 293.924 176.281C293.834 174.341 291.744 172.981 291.724 172.961C291.676 172.933 291.635 172.895 291.602 172.85C291.57 172.805 291.546 172.754 291.534 172.699C291.522 172.645 291.521 172.589 291.531 172.534C291.542 172.48 291.563 172.428 291.594 172.381C291.655 172.289 291.75 172.224 291.859 172.202C291.968 172.179 292.081 172.201 292.174 172.261C292.274 172.321 294.654 173.881 294.764 176.261C294.766 176.316 294.758 176.371 294.739 176.422C294.721 176.474 294.692 176.521 294.654 176.561C294.617 176.601 294.572 176.633 294.522 176.656C294.472 176.678 294.419 176.69 294.364 176.691C294.319 176.695 294.275 176.688 294.234 176.671V176.671Z" fill="#595959"/>
<path d="M281.954 171.461C281.86 171.451 281.773 171.409 281.707 171.342C281.64 171.276 281.597 171.189 281.586 171.096C281.574 171.002 281.594 170.908 281.643 170.827C281.692 170.747 281.766 170.685 281.854 170.651C282.468 170.389 283.137 170.277 283.803 170.326C284.469 170.374 285.114 170.582 285.684 170.931C285.775 170.995 285.838 171.092 285.858 171.202C285.877 171.312 285.853 171.425 285.789 171.516C285.725 171.608 285.628 171.67 285.518 171.69C285.408 171.71 285.295 171.685 285.204 171.621C284.755 171.354 284.248 171.198 283.727 171.165C283.205 171.132 282.683 171.223 282.204 171.431C282.126 171.467 282.038 171.477 281.954 171.461V171.461Z" fill="#595959"/>
<path d="M228.484 400.681L228.384 400.621C228.216 400.505 228.082 400.347 227.994 400.163C227.906 399.979 227.868 399.775 227.884 399.571C227.872 399.438 227.898 399.304 227.961 399.185C228.023 399.066 228.117 398.968 228.234 398.901C229.234 398.291 232.094 399.621 232.424 399.771C232.464 399.786 232.498 399.814 232.522 399.85C232.545 399.886 232.556 399.928 232.554 399.971C232.549 400.011 232.534 400.049 232.509 400.081C232.484 400.113 232.451 400.137 232.414 400.151C231.334 400.611 229.444 401.221 228.484 400.681ZM231.764 399.971C230.584 399.481 228.944 398.971 228.434 399.281C228.388 399.313 228.352 399.357 228.329 399.408C228.306 399.459 228.297 399.516 228.304 399.571C228.293 399.707 228.317 399.843 228.373 399.967C228.429 400.091 228.515 400.199 228.624 400.281C229.124 400.631 230.284 400.501 231.764 399.971Z" fill="#F5044C"/>
<path d="M231.944 400.041C230.944 399.511 229.474 398.041 229.524 397.161C229.531 396.994 229.595 396.833 229.706 396.708C229.817 396.582 229.968 396.499 230.134 396.471C230.289 396.431 230.451 396.424 230.609 396.45C230.768 396.476 230.919 396.534 231.054 396.621C232.134 397.331 232.514 399.851 232.524 399.961C232.528 399.996 232.524 400.032 232.512 400.065C232.5 400.098 232.48 400.127 232.454 400.151C232.422 400.171 232.386 400.181 232.349 400.181C232.312 400.181 232.275 400.171 232.244 400.151C232.141 400.123 232.041 400.086 231.944 400.041V400.041ZM230.764 396.941C230.683 396.899 230.594 396.873 230.503 396.866C230.412 396.859 230.32 396.871 230.234 396.901C229.974 396.971 229.934 397.101 229.924 397.201C229.924 397.821 231.094 399.091 232.034 399.641C231.854 398.801 231.454 397.411 230.814 396.991L230.764 396.941Z" fill="#F5044C"/>
<path d="M212.294 309.691C211.534 309.711 210.789 309.472 210.184 309.011C210.057 308.881 209.962 308.722 209.909 308.549C209.855 308.375 209.843 308.191 209.874 308.011C209.885 307.895 209.927 307.783 209.996 307.689C210.064 307.594 210.157 307.519 210.264 307.471C211.384 306.941 214.794 308.961 215.184 309.201C215.22 309.224 215.249 309.257 215.265 309.296C215.281 309.336 215.284 309.38 215.274 309.421C215.269 309.464 215.25 309.503 215.218 309.533C215.187 309.562 215.147 309.579 215.104 309.581C214.173 309.709 213.232 309.746 212.294 309.691V309.691ZM210.834 307.761C210.699 307.751 210.562 307.768 210.434 307.811C210.393 307.833 210.357 307.864 210.331 307.902C210.305 307.941 210.289 307.985 210.284 308.031C210.258 308.154 210.262 308.281 210.297 308.401C210.332 308.522 210.396 308.632 210.484 308.721C210.994 309.231 212.484 309.411 214.424 309.201C213.319 308.519 212.104 308.031 210.834 307.761V307.761Z" fill="#F5044C"/>
<path d="M215.064 309.551H214.974C213.974 309.011 211.974 306.971 212.204 305.981C212.264 305.751 212.444 305.461 213.034 305.441C213.243 305.432 213.452 305.465 213.648 305.539C213.844 305.613 214.023 305.726 214.174 305.871C215.224 306.871 215.284 309.261 215.284 309.361C215.284 309.399 215.275 309.436 215.257 309.469C215.24 309.502 215.215 309.53 215.184 309.551H215.064ZM213.174 305.831H213.044C212.664 305.831 212.624 305.991 212.614 306.041C212.484 306.641 213.804 308.231 214.844 308.951C214.802 307.938 214.453 306.962 213.844 306.151C213.664 305.971 213.427 305.858 213.174 305.831V305.831Z" fill="#F5044C"/>
<path d="M291.424 177.321L289.934 176.321C289.934 176.321 290.364 177.901 291.424 177.321Z" fill="#595959"/>
<path d="M298.484 259.821L298.954 263.141C299.044 263.411 298.714 263.621 298.294 263.561L261.604 258.431C261.284 258.431 261.044 258.201 261.044 257.991L261.174 254.751C261.174 254.531 261.484 254.381 261.834 254.431L297.944 259.431C298.061 259.44 298.173 259.482 298.269 259.55C298.364 259.619 298.438 259.713 298.484 259.821Z" fill="white"/>
<path d="M292.954 263.171L293.954 263.301C294.154 263.301 294.314 263.302 294.314 263.132L294.444 258.921C294.444 258.791 294.294 258.671 294.094 258.651L293.094 258.511C292.894 258.511 292.734 258.561 292.734 258.691L292.604 262.891C292.604 263.021 292.754 263.141 292.954 263.171Z" fill="#595959"/>
<path d="M264.234 259.161L265.234 259.301C265.424 259.301 265.584 259.241 265.584 259.121L265.714 254.911C265.714 254.791 265.564 254.661 265.374 254.641L264.374 254.501C264.184 254.501 264.024 254.551 264.014 254.681L263.934 258.901C263.924 259.011 264.084 259.131 264.234 259.161Z" fill="#595959"/>
<path d="M278.554 261.161L279.554 261.291C279.744 261.291 279.904 261.241 279.904 261.121L280.034 256.911C280.034 256.781 279.884 256.661 279.694 256.631L278.694 256.501C278.504 256.501 278.344 256.551 278.334 256.671L278.234 260.901C278.234 261.011 278.364 261.131 278.554 261.161Z" fill="#595959"/>
<path d="M241.474 198.921L234.644 198.261L232.784 200.551L240.164 202.021L241.474 198.921Z" fill="#FF9586"/>
<path d="M296.634 276.021L287.434 278.671L294.924 283.671C294.924 283.671 299.974 281.061 300.024 277.371L296.634 276.021Z" fill="#FF9586"/>
<path d="M313.944 219.351C314.164 220.161 314.304 220.781 314.464 221.481C314.624 222.181 314.744 222.841 314.864 223.481C315.114 224.831 315.314 226.181 315.504 227.481C315.834 230.191 316.024 232.901 316.124 235.611C316.224 238.321 316.124 241.041 316.004 243.741C315.924 245.101 315.814 246.451 315.644 247.801L315.534 248.801L315.474 249.311L315.384 249.921C315.27 250.7 315.11 251.472 314.904 252.231C314.537 253.644 314.065 255.028 313.494 256.371C312.964 257.681 312.384 258.941 311.764 260.171C310.514 262.611 309.174 264.941 307.764 267.171C304.895 271.687 301.71 275.994 298.234 280.061L294.604 277.421C297.164 273.041 299.604 268.511 301.884 264.001C302.984 261.741 304.064 259.471 304.954 257.191C305.869 255.038 306.573 252.801 307.054 250.511C307.158 250.013 307.231 249.509 307.274 249.001V248.641V248.181V247.261C307.344 246.021 307.334 244.781 307.354 243.551C307.354 241.071 307.274 238.601 307.114 236.141C306.954 233.671 306.684 231.211 306.334 228.781C306.174 227.561 305.994 226.341 305.774 225.151C305.674 224.541 305.544 223.951 305.434 223.361C305.324 222.771 305.184 222.151 305.084 221.711L313.944 219.351Z" fill="#FF9586"/>
<path d="M311.414 209.491C314.834 211.081 317.414 223.971 317.414 223.971L303.324 230.971C303.324 230.971 298.554 220.971 300.704 216.541C302.924 211.981 307.514 207.681 311.414 209.491Z" fill="#F5044C"/>
<path d="M283.064 284.701L289.554 288.561L294.924 283.681L287.434 278.661L283.064 284.701Z" fill="#FF9586"/>
<path d="M233.253 160.782L219.76 161.216C215.808 161.343 212.707 164.65 212.834 168.602L213.267 182.095C213.394 186.047 216.701 189.148 220.654 189.021L234.147 188.588C238.099 188.461 241.2 185.154 241.073 181.202L240.64 167.709C240.513 163.756 237.206 160.655 233.253 160.782Z" fill="#FF2868"/>
<path d="M234.644 167.551C233.562 166.537 232.12 165.993 230.637 166.04C229.154 166.087 227.75 166.72 226.734 167.801C225.647 166.818 224.217 166.301 222.752 166.362C221.288 166.423 219.906 167.057 218.904 168.127C217.902 169.197 217.361 170.618 217.396 172.083C217.432 173.548 218.042 174.941 219.094 175.961L227.244 183.611L234.894 175.451C235.908 174.371 236.452 172.931 236.405 171.45C236.358 169.968 235.725 168.566 234.644 167.551V167.551Z" fill="white"/>
<path d="M209.566 131.612L198.443 133.661C195.184 134.262 193.029 137.39 193.63 140.649L195.679 151.772C196.28 155.031 199.408 157.186 202.667 156.585L213.79 154.536C217.049 153.935 219.204 150.807 218.603 147.548L216.554 136.425C215.953 133.166 212.825 131.011 209.566 131.612Z" fill="#FF2868"/>
<path d="M211.554 137.051C211.048 136.703 210.478 136.457 209.877 136.329C209.275 136.2 208.655 136.191 208.05 136.303C207.446 136.414 206.869 136.644 206.353 136.978C205.837 137.312 205.392 137.745 205.044 138.251C204.021 137.547 202.761 137.278 201.54 137.503C200.319 137.728 199.238 138.429 198.534 139.451C197.83 140.474 197.561 141.734 197.786 142.955C198.011 144.176 198.711 145.257 199.734 145.961L207.444 151.281L212.764 143.561C213.112 143.055 213.357 142.484 213.485 141.883C213.612 141.281 213.62 140.66 213.508 140.056C213.396 139.451 213.165 138.875 212.83 138.359C212.495 137.844 212.061 137.399 211.554 137.051Z" fill="white"/>
<path d="M246.271 124.176L237.838 122.49C235.368 121.996 232.966 123.597 232.472 126.067L230.785 134.5C230.291 136.969 231.893 139.372 234.362 139.866L242.795 141.552C245.265 142.046 247.667 140.445 248.161 137.975L249.848 129.542C250.342 127.073 248.74 124.67 246.271 124.176Z" fill="#FF2868"/>
<path d="M246.154 128.581C245.63 127.795 244.816 127.248 243.89 127.061C242.965 126.873 242.002 127.061 241.214 127.581C240.683 126.795 239.862 126.252 238.931 126.071C238 125.89 237.035 126.086 236.249 126.616C235.462 127.147 234.919 127.968 234.738 128.899C234.557 129.83 234.753 130.795 235.284 131.581L239.234 137.501L245.164 133.551C245.557 133.291 245.894 132.956 246.157 132.565C246.419 132.174 246.602 131.735 246.694 131.273C246.786 130.811 246.785 130.335 246.693 129.873C246.6 129.411 246.417 128.972 246.154 128.581V128.581Z" fill="white"/>
<path d="M219.019 104.708L212.183 106.625C210.178 107.187 209.008 109.268 209.57 111.272L211.487 118.109C212.049 120.114 214.13 121.283 216.135 120.721L222.971 118.805C224.976 118.243 226.145 116.162 225.583 114.157L223.667 107.321C223.105 105.316 221.024 104.146 219.019 104.708Z" fill="#FF2868"/>
<path d="M220.574 108.001C219.895 107.62 219.092 107.524 218.342 107.734C217.593 107.944 216.957 108.443 216.574 109.121C215.894 108.738 215.089 108.641 214.337 108.851C213.585 109.061 212.947 109.561 212.564 110.241C212.181 110.922 212.084 111.726 212.294 112.478C212.504 113.23 213.004 113.868 213.684 114.251L218.814 117.131L221.694 112.001C221.884 111.665 222.006 111.295 222.053 110.912C222.099 110.529 222.069 110.14 221.965 109.769C221.861 109.397 221.685 109.05 221.446 108.746C221.207 108.443 220.911 108.19 220.574 108.001V108.001Z" fill="white"/>
<path d="M319.659 107.592L300.117 110.75C294.392 111.676 290.501 117.066 291.427 122.791L294.585 142.333C295.51 148.058 300.901 151.949 306.626 151.024L326.168 147.865C331.893 146.94 335.783 141.549 334.858 135.825L331.7 116.282C330.775 110.557 325.384 106.667 319.659 107.592Z" fill="#FF2868"/>
<path d="M325.664 126.141C325.4 124.166 324.656 122.286 323.496 120.667C322.336 119.047 320.796 117.736 319.011 116.851C317.226 115.965 315.251 115.531 313.26 115.587C311.268 115.643 309.32 116.187 307.588 117.171C305.856 118.156 304.392 119.55 303.324 121.233C302.257 122.915 301.619 124.834 301.467 126.821C301.314 128.807 301.652 130.801 302.45 132.627C303.248 134.452 304.482 136.054 306.044 137.291L306.414 144.511L309.734 139.281C311.693 139.946 313.789 140.1 315.824 139.727C317.859 139.354 319.765 138.467 321.361 137.151C322.957 135.834 324.19 134.132 324.943 132.205C325.696 130.278 325.944 128.191 325.664 126.141V126.141Z" fill="white"/>
</svg>
