<svg width="128" height="128" viewBox="0 0 128 128" fill="none" xmlns="http://www.w3.org/2000/svg">
<path d="M24.1395 82.6599C24.1384 82.6931 24.1353 82.7262 24.13 82.7589C24.1048 83.2668 24.0911 83.5768 24.0844 83.7575C24.1085 83.6433 24.0635 84.3153 24.0844 83.7575C24.0809 83.7738 24.0761 83.806 24.0695 83.8599H23.2195C22.5866 83.8993 21.9579 83.9896 21.3395 84.1299C20.0295 84.3999 18.6695 84.8399 17.1795 85.1999C16.5795 85.3299 15.9395 85.5899 15.0595 85.7899C14.5614 85.9042 14.0497 85.948 13.5395 85.9199C12.8384 85.8807 12.1701 85.6099 11.6395 85.1499C11.5195 85.0299 11.3895 84.8999 11.2795 84.7699C11.1328 84.5673 11.0088 84.3494 10.9095 84.1199C10.8023 83.8291 10.758 83.519 10.7795 83.2099C10.7978 82.9279 10.8727 82.6524 10.9995 82.3999C11.3106 81.8423 11.7667 81.3793 12.3195 81.0599C13.0193 80.664 13.752 80.3294 14.5095 80.0599L16.3295 79.3399C16.6149 79.2495 16.8706 79.0837 17.0695 78.8599C17.1093 78.8064 17.1307 78.7415 17.1307 78.6749C17.1307 78.6082 17.1093 78.5433 17.0695 78.4899C16.9853 78.4205 16.8784 78.3849 16.7695 78.3899C16.242 78.4562 15.7205 78.5631 15.2095 78.7099L14.6395 78.8199C14.1337 78.9031 13.6221 78.9465 13.1095 78.9499C12.4989 78.9619 11.8926 78.846 11.3295 78.6099C10.6792 78.3246 10.1513 77.8178 9.83949 77.1799C9.63132 76.7841 9.55761 76.3313 9.62949 75.8899C9.71675 75.467 9.92931 75.0802 10.2395 74.7799C10.6698 74.3523 11.1793 74.0126 11.7395 73.7799C12.6501 73.4443 13.5865 73.1834 14.5395 72.9999L19.3895 71.9999L19.9995 71.7999L20.3395 71.6999C20.5231 71.6362 20.7005 71.5559 20.8695 71.4599C21.0295 71.3799 21.1995 71.1899 21.0895 70.9999C21.0577 70.9091 21.0076 70.8258 20.9422 70.7553C20.8768 70.6847 20.7976 70.6284 20.7095 70.5899C20.4877 70.4802 20.2464 70.4156 19.9995 70.3999C19.5281 70.3478 19.0536 70.3277 18.5795 70.3399C17.5559 70.3705 16.5345 70.454 15.5195 70.5899C13.4694 70.7366 11.4316 71.0206 9.41949 71.4399C8.17949 71.6499 8.16949 71.2499 9.08949 70.4399C10.6692 69.2433 12.5707 68.5468 14.5495 68.4399C15.5495 68.3499 16.6795 68.1999 17.8295 68.1599C18.4156 68.1251 19.0033 68.1251 19.5895 68.1599H20.0495H20.3095C20.4408 68.1701 20.5712 68.1901 20.6995 68.2199C21.1956 68.3221 21.6786 68.4797 22.1395 68.6899C22.5389 68.8447 22.8973 69.0894 23.1869 69.405C23.4765 69.7206 23.6895 70.0987 23.8095 70.5099L23.9495 71.1099C23.9495 71.3099 23.9495 71.5199 23.8795 71.7199C23.7658 72.0957 23.5634 72.4386 23.2895 72.7199C22.5361 73.3222 21.6737 73.7738 20.7495 74.0499C20.1995 74.2299 19.6595 74.3799 19.1195 74.5199C16.9895 74.9999 14.8395 75.3399 13.0595 75.9499C12.7802 76.034 12.5098 76.1451 12.2524 76.2815C12.2553 76.2844 12.2583 76.2873 12.2614 76.2902C12.3236 76.349 12.3981 76.3933 12.4795 76.4199C12.8315 76.5308 13.2018 76.5716 13.5695 76.5399H13.9795C14.1541 76.5226 14.3277 76.4959 14.4995 76.4599C15.0069 76.3317 15.5075 76.1782 15.9995 75.9999C17.1095 75.6899 18.2695 75.3199 19.2195 75.1099C19.9317 74.9474 20.659 74.8603 21.3895 74.8499C21.8682 74.8454 22.3454 74.9025 22.8095 75.0199C23.0946 75.0904 23.3606 75.2228 23.5888 75.4077C23.8169 75.5926 24.0015 75.8255 24.1295 76.0899C24.266 76.4043 24.3144 76.75 24.2695 77.0899C24.2215 77.3577 24.1195 77.6129 23.9695 77.8399C23.2205 78.9064 22.1932 79.7469 20.9995 80.2699C20.0695 80.7099 18.9995 81.1599 17.8695 81.5999L16.1895 82.2399L15.1395 82.6599C14.6978 82.8253 14.2739 83.0338 13.8738 83.2822C14.2193 83.2953 14.5651 83.2371 14.8895 83.1099L15.8895 82.8099L16.9995 82.4799C18.3695 82.1299 19.7895 81.6699 21.3095 81.3999C22.2964 81.2016 23.305 81.1344 24.3095 81.1999C24.7476 81.2638 25.152 81.4713 25.4595 81.7899C25.726 82.0439 25.9371 82.3503 26.0795 82.6899C26.2332 83.0776 26.268 83.5023 26.1795 83.9099C26.0856 84.283 25.9 84.6267 25.6395 84.9099C24.8343 85.646 23.8409 86.1444 22.7695 86.3499C22.2995 86.4899 21.8295 86.5599 21.3695 86.6499C20.9615 86.7132 20.5575 86.8 20.1595 86.9099C18.9641 87.2311 17.8316 87.7517 16.8095 88.4499C16.3541 88.7544 15.966 89.1492 15.6695 89.6099C15.5608 89.8067 15.4832 90.0193 15.4395 90.2399C15.4335 90.2794 15.4303 90.3192 15.43 90.3591C15.4633 90.3583 15.4965 90.3553 15.5295 90.3499C15.7983 90.3285 16.0636 90.2748 16.3195 90.1899C16.9307 90.0074 17.5287 89.7835 18.1095 89.5199C19.3395 88.9999 20.4795 88.3699 21.8795 87.8599C22.9039 87.5356 23.9455 87.2685 24.9995 87.0599C25.5672 86.9477 26.1418 86.8742 26.7195 86.8399C27.0547 86.8297 27.3901 86.8565 27.7195 86.9199C28.2207 87.0008 28.6775 87.2557 29.0095 87.6399C29.1323 87.7929 29.2459 87.9532 29.3495 88.1199C29.4466 88.3035 29.5302 88.494 29.5995 88.6899C29.7495 89.1718 29.7495 89.6879 29.5995 90.1699C29.2918 90.8891 28.7629 91.4916 28.0895 91.8899C27.1368 92.4684 26.1325 92.9571 25.0895 93.3499L22.6195 94.3499C19.6195 95.6599 19.0695 96.0099 18.0095 96.0199C17.7695 96.0199 17.5195 96.0999 17.3095 96.0899C17.0995 96.0799 16.8695 95.6899 17.1795 94.9799C17.6954 93.9934 18.4786 93.1721 19.4395 92.6099C21.1194 91.6507 22.8635 90.8086 24.6595 90.0899C25.3701 89.8096 26.0422 89.4399 26.6595 88.9899C26.7195 88.9899 26.7095 88.9299 26.7395 88.8999C26.8295 88.9787 26.9266 89.049 27.0295 89.1099C27.0416 89.1201 27.0539 89.1298 27.0662 89.1391C27.3075 89.3217 27.5712 89.3389 27.4095 89.3199C27.3039 89.3255 27.1996 89.3457 27.0995 89.3799C27.0995 89.3799 26.8895 89.3799 26.7995 89.4699C26.7288 89.4946 26.6616 89.5282 26.5995 89.5699C26.5876 89.5637 26.577 89.5553 26.5684 89.5449C26.5598 89.5346 26.5534 89.5227 26.5495 89.5099C26.7532 89.3637 26.9238 89.2413 27.0662 89.1391C27.0539 89.1298 27.0416 89.1201 27.0295 89.1099C26.9266 89.049 26.8295 88.9787 26.7395 88.8999C26.7095 88.9299 26.7195 88.9899 26.6595 88.9899C26.0422 89.4399 25.3701 89.8096 24.6595 90.0899C22.8635 90.8086 21.1194 91.6507 19.4395 92.6099C18.4786 93.1721 17.6954 93.9934 17.1795 94.9799C16.8695 95.6899 17.0995 96.0799 17.3095 96.0899C17.5195 96.0999 17.7695 96.0199 18.0095 96.0199C19.0695 96.0099 19.6195 95.6599 22.6195 94.3499L25.0895 93.3499C26.1325 92.9571 27.1368 92.4684 28.0895 91.8899C28.7629 91.4916 29.2918 90.8891 29.5995 90.1699C29.7495 89.6879 29.7495 89.1718 29.5995 88.6899C29.5302 88.494 29.4466 88.3035 29.3495 88.1199C29.2459 87.9532 29.1323 87.7929 29.0095 87.6399C28.6775 87.2557 28.2207 87.0008 27.7195 86.9199C27.3901 86.8565 27.0547 86.8297 26.7195 86.8399C26.1418 86.8742 25.5672 86.9477 24.9995 87.0599C23.9455 87.2685 22.9039 87.5356 21.8795 87.8599C20.4795 88.3699 19.3395 88.9999 18.1095 89.5199C17.5287 89.7835 16.9307 90.0074 16.3195 90.1899C16.0636 90.2748 15.7983 90.3285 15.5295 90.3499C15.4965 90.3553 15.4633 90.3583 15.43 90.3591C15.4297 90.4028 15.4329 90.4465 15.4395 90.4899H15.3595C15.2295 90.5499 15.2195 90.5499 15.1795 90.5899C15.1395 90.6299 15.1795 90.5899 15.2395 90.4899C15.265 90.4458 15.2851 90.3988 15.2995 90.3499C15.3427 90.357 15.3864 90.36 15.43 90.3591C15.4303 90.3192 15.4335 90.2794 15.4395 90.2399C15.4832 90.0193 15.5608 89.8067 15.6695 89.6099C15.966 89.1492 16.3541 88.7544 16.8095 88.4499C17.8316 87.7517 18.9641 87.2311 20.1595 86.9099C20.5575 86.8 20.9615 86.7132 21.3695 86.6499C21.8295 86.5599 22.2995 86.4899 22.7695 86.3499C23.8409 86.1444 24.8343 85.646 25.6395 84.9099C25.9 84.6267 26.0856 84.283 26.1795 83.9099C26.268 83.5023 26.2332 83.0776 26.0795 82.6899C25.9371 82.3503 25.726 82.0439 25.4595 81.7899C25.152 81.4713 24.7476 81.2638 24.3095 81.1999C23.305 81.1344 22.2964 81.2016 21.3095 81.3999C19.7895 81.6699 18.3695 82.1299 16.9995 82.4799L15.8895 82.8099L14.8895 83.1099C14.5651 83.2371 14.2193 83.2953 13.8738 83.2822C13.7569 83.3547 13.6421 83.4306 13.5295 83.5099C13.5295 83.5099 13.4395 83.5699 13.4395 83.5799C13.4395 83.5899 13.4395 83.6499 13.2795 83.5099C13.2078 83.4635 13.1305 83.4266 13.0495 83.3999H12.9495C13.5895 82.9999 13.3695 83.2299 13.4995 83.2399C13.6235 83.2634 13.7486 83.2775 13.8738 83.2822C14.2739 83.0338 14.6978 82.8253 15.1395 82.6599L16.1895 82.2399L17.8695 81.5999C18.9995 81.1599 20.0695 80.7099 20.9995 80.2699C22.1932 79.7469 23.2205 78.9064 23.9695 77.8399C24.1195 77.6129 24.2215 77.3577 24.2695 77.0899C24.3144 76.75 24.266 76.4043 24.1295 76.0899C24.0015 75.8255 23.8169 75.5926 23.5888 75.4077C23.3606 75.2228 23.0946 75.0904 22.8095 75.0199C22.3454 74.9025 21.8682 74.8454 21.3895 74.8499C20.659 74.8603 19.9317 74.9474 19.2195 75.1099C18.2695 75.3199 17.1095 75.6899 15.9995 75.9999C15.5075 76.1782 15.0069 76.3317 14.4995 76.4599C14.3277 76.4959 14.1541 76.5226 13.9795 76.5399H13.5695C13.2018 76.5716 12.8315 76.5308 12.4795 76.4199C12.3981 76.3933 12.3236 76.349 12.2614 76.2902C12.2583 76.2873 12.2553 76.2844 12.2524 76.2815C12.1872 76.316 12.1229 76.3521 12.0595 76.3899H12.0095C11.9339 76.3279 11.8497 76.2774 11.7595 76.2399L11.6395 76.1799H11.7395C11.8395 76.1799 12.1695 75.9999 12.1195 76.0799C12.1492 76.1557 12.1944 76.2244 12.2524 76.2815C12.5098 76.1451 12.7802 76.034 13.0595 75.9499C14.8395 75.3399 16.9895 74.9999 19.1195 74.5199C19.6595 74.3799 20.1995 74.2299 20.7495 74.0499C21.6737 73.7738 22.5361 73.3222 23.2895 72.7199C23.5634 72.4386 23.7658 72.0957 23.8795 71.7199C23.9495 71.5199 23.9495 71.3099 23.9495 71.1099L23.8095 70.5099C23.6895 70.0987 23.4765 69.7206 23.1869 69.405C22.8973 69.0894 22.5389 68.8447 22.1395 68.6899C21.6786 68.4797 21.1956 68.3221 20.6995 68.2199C20.5712 68.1901 20.4408 68.1701 20.3095 68.1599H20.0495H19.5895C19.0033 68.1251 18.4156 68.1251 17.8295 68.1599C16.6795 68.1999 15.5495 68.3499 14.5495 68.4399C12.5707 68.5468 10.6692 69.2433 9.08949 70.4399C8.16949 71.2499 8.17949 71.6499 9.41949 71.4399C11.4316 71.0206 13.4694 70.7366 15.5195 70.5899C16.5345 70.454 17.5559 70.3705 18.5795 70.3399C19.0536 70.3277 19.5281 70.3478 19.9995 70.3999C20.2464 70.4156 20.4877 70.4802 20.7095 70.5899C20.7976 70.6284 20.8768 70.6847 20.9422 70.7553C21.0076 70.8258 21.0577 70.9091 21.0895 70.9999C21.1995 71.1899 21.0295 71.3799 20.8695 71.4599C20.7005 71.5559 20.5231 71.6362 20.3395 71.6999L19.9995 71.7999L19.3895 71.9999L14.5395 72.9999C13.5865 73.1834 12.6501 73.4443 11.7395 73.7799C11.1793 74.0126 10.6698 74.3523 10.2395 74.7799C9.92931 75.0802 9.71675 75.467 9.62949 75.8899C9.55761 76.3313 9.63132 76.7841 9.83949 77.1799C10.1513 77.8178 10.6792 78.3246 11.3295 78.6099C11.8926 78.846 12.4989 78.9619 13.1095 78.9499C13.6221 78.9465 14.1337 78.9031 14.6395 78.8199L15.2095 78.7099C15.7205 78.5631 16.242 78.4562 16.7695 78.3899C16.8784 78.3849 16.9853 78.4205 17.0695 78.4899C17.1093 78.5433 17.1307 78.6082 17.1307 78.6749C17.1307 78.7415 17.1093 78.8064 17.0695 78.8599C16.8706 79.0837 16.6149 79.2495 16.3295 79.3399L14.5095 80.0599C13.752 80.3294 13.0193 80.664 12.3195 81.0599C11.7667 81.3793 11.3106 81.8423 10.9995 82.3999C10.8727 82.6524 10.7978 82.9279 10.7795 83.2099C10.758 83.519 10.8023 83.8291 10.9095 84.1199C11.0088 84.3494 11.1328 84.5673 11.2795 84.7699C11.3895 84.8999 11.5195 85.0299 11.6395 85.1499C12.1701 85.6099 12.8384 85.8807 13.5395 85.9199C14.0497 85.948 14.5614 85.9042 15.0595 85.7899C15.9395 85.5899 16.5795 85.3299 17.1795 85.1999C18.6695 84.8399 20.0295 84.3999 21.3395 84.1299C21.9579 83.9896 22.5866 83.8993 23.2195 83.8599H24.0695C24.0761 83.806 24.0809 83.7738 24.0844 83.7575C24.0911 83.5768 24.1048 83.2668 24.13 82.7589C24.133 82.6987 24.1362 82.6357 24.1395 82.5699V82.6599Z" fill="white"/>
<path d="M115.1 26.4698C115.172 26.4195 115.234 26.3548 115.28 26.2798C115.292 26.2622 115.299 26.2419 115.301 26.2208C115.304 26.1997 115.301 26.1783 115.293 26.1585C115.285 26.1388 115.272 26.1213 115.256 26.1076C115.24 26.0938 115.221 26.0843 115.2 26.0798C115.11 26.0451 115.01 26.0451 114.92 26.0798L114.79 26.1298L114.45 26.3298C114.197 26.4967 113.953 26.677 113.72 26.8698C112.717 27.7162 111.806 28.6646 111 29.6998C110.12 30.9132 109.14 32.0505 108.07 33.0998C107.583 33.576 107.018 33.965 106.4 34.2498C106.172 34.3321 105.938 34.3956 105.7 34.4398C105.395 34.4889 105.084 34.4889 104.78 34.4398C104.464 34.3364 104.169 34.1772 103.91 33.9698C103.598 33.6992 103.357 33.3562 103.209 32.9708C103.061 32.5855 103.01 32.1696 103.06 31.7598C103.107 31.3646 103.208 30.9777 103.36 30.6098C103.634 30.0386 103.969 29.4988 104.36 28.9998C105.076 28.1055 105.847 27.2572 106.67 26.4598C107.06 26.0598 107.42 25.7398 107.75 25.3698C108.08 24.9998 108.46 24.5798 108.75 24.1798C109.423 23.4157 110.035 22.5999 110.58 21.7398C110.822 21.3641 111.02 20.9614 111.17 20.5398C111.212 20.3998 111.239 20.2556 111.25 20.1098C111.25 19.9998 111.25 20.0198 111.25 19.9998H111.66C111.66 19.9998 111.66 19.9998 111.66 20.0798C111.65 20.1327 111.65 20.1869 111.66 20.2398H111.59H111.45C111.182 20.3574 110.93 20.5086 110.7 20.6898C110.15 21.1151 109.635 21.5833 109.16 22.0898C108.16 23.0898 107.16 24.2398 106.16 25.3598L104.55 27.2198C103.928 27.9451 103.259 28.6298 102.55 29.2698C102.147 29.6645 101.672 29.977 101.15 30.1898C100.919 30.2766 100.676 30.3239 100.43 30.3298C100.17 30.2926 99.9146 30.2255 99.6698 30.1298C99.1749 29.9477 98.7628 29.5924 98.5098 29.1298C98.2885 28.6558 98.2153 28.126 98.2998 27.6098C98.4203 26.8771 98.6565 26.1682 98.9998 25.5098C99.2898 24.9198 99.5198 24.5098 99.8098 24.0298C100.36 23.1098 100.95 22.2398 101.53 21.3898C102.11 20.5398 102.69 19.6898 103.22 18.8598C103.47 18.4398 103.74 18.0298 103.96 17.6298C104.166 17.2862 104.324 16.9161 104.43 16.5298C104.56 16.2298 104.48 16.0498 104.65 15.9098C104.82 15.7698 105.27 15.7798 105.65 16.4798C105.956 17.3678 105.977 18.3292 105.71 19.2298C105.407 20.335 104.924 21.3825 104.28 22.3298L102.55 24.9398L101.76 26.1998C101.46 26.7198 101.45 26.7498 101.45 26.7398C101.45 26.7298 101.45 26.7398 101.45 26.7398C101.45 26.7398 101.45 26.7398 101.59 26.6198C102.97 25.1898 104.33 23.5298 105.78 21.9398C106.52 21.1112 107.304 20.3234 108.13 19.5798C108.579 19.1719 109.061 18.8007 109.57 18.4698C109.884 18.2639 110.219 18.0928 110.57 17.9598C111.064 17.7607 111.606 17.7086 112.13 17.8098C112.331 17.8734 112.528 17.9502 112.72 18.0398L112.91 18.1398L113.06 18.3198C113.46 18.8131 113.666 19.4353 113.64 20.0698C113.622 20.5248 113.531 20.9739 113.37 21.3998C113.108 22.0807 112.772 22.7312 112.37 23.3398C111.634 24.4617 110.826 25.534 109.95 26.5498C109.55 27.0298 109.02 27.6098 108.59 28.0398C108.16 28.4698 107.7 28.9398 107.29 29.3998C106.887 29.8319 106.513 30.2895 106.17 30.7698C105.908 31.1132 105.715 31.5036 105.6 31.9198C105.6 31.9698 105.6 31.9698 105.6 31.9898C105.6 32.0098 105.75 31.8398 105.6 31.9898C105.6 31.9898 105.48 32.1598 105.49 32.1398C105.49 32.1398 105.49 32.2398 105.49 32.1398C105.5 32.0568 105.5 31.9728 105.49 31.8898C105.97 31.6615 106.401 31.3423 106.76 30.9498C107.711 29.9295 108.606 28.8579 109.44 27.7398C110.389 26.5476 111.484 25.4793 112.7 24.5598C113.019 24.3185 113.353 24.0981 113.7 23.8998C114.168 23.6276 114.673 23.4254 115.2 23.2998C115.687 23.1689 116.196 23.1396 116.694 23.2135C117.193 23.2875 117.672 23.4632 118.1 23.7298C118.341 23.8966 118.539 24.119 118.677 24.3784C118.814 24.6377 118.887 24.9263 118.89 25.2198C118.881 25.8228 118.704 26.4114 118.38 26.9198C118.209 27.2005 118.022 27.471 117.82 27.7298L117.51 28.1298L117.24 28.4198C116.9 28.8098 116.6 29.1098 116.24 29.4198C114.93 30.6798 113.56 31.8198 112.24 32.9698C111.247 33.7387 110.339 34.6102 109.53 35.5698C109.371 35.7933 109.234 36.031 109.12 36.2798C109.078 36.3666 109.045 36.457 109.02 36.5498C108.96 36.6098 109.15 36.5498 108.83 36.5498C108.74 36.5498 108.72 36.5498 108.65 36.5498C108.58 36.5498 108.54 36.6098 108.56 36.5498C108.604 36.5098 108.635 36.4576 108.65 36.3998C108.65 36.3998 108.65 36.3098 108.71 36.1698C108.77 36.0298 108.71 36.1698 108.71 36.1198C108.796 36.1268 108.883 36.1268 108.97 36.1198C109.102 36.0897 109.232 36.053 109.36 36.0098L109.71 35.8898C109.938 35.7503 110.156 35.5932 110.36 35.4198L111.11 34.7898L112.62 33.4798C113.62 32.5998 114.62 31.7298 115.76 30.9098C116.194 30.5791 116.648 30.2752 117.12 29.9998C117.637 29.6629 118.209 29.4192 118.81 29.2798C119.282 29.1739 119.777 29.2565 120.19 29.5098C120.593 29.7939 120.87 30.2246 120.96 30.7098C121.008 30.8792 121.035 31.0538 121.04 31.2298C121.05 31.3228 121.05 31.4168 121.04 31.5098C121.05 31.6429 121.05 31.7767 121.04 31.9098C120.936 32.2622 120.785 32.5987 120.59 32.9098C119.993 33.7995 119.324 34.6389 118.59 35.4198C117.88 36.1798 117.16 36.9098 116.45 37.6398L114.62 39.5598C113.855 40.3975 113.047 41.1953 112.2 41.9498C111.811 42.316 111.347 42.5925 110.84 42.7598C110.65 42.852 110.473 42.9661 110.31 43.0998C110.18 43.1798 110.08 43.1698 109.98 42.9898C109.859 42.7096 109.824 42.3998 109.88 42.0998C110.086 41.0574 110.558 40.0859 111.25 39.2798C112.44 37.7798 113.74 36.4398 115.02 35.0898L116.92 33.0898C117.233 32.7631 117.523 32.4298 117.79 32.0898C118.02 31.8235 118.225 31.5355 118.4 31.2298V31.1798L118.55 31.2498C118.73 31.3398 119.04 31.3798 119.15 31.4298L119.37 31.4798H118.37C118.365 31.4366 118.365 31.393 118.37 31.3498C118.37 31.3498 118.37 31.3498 118.37 31.3498C118.519 31.3128 118.666 31.266 118.81 31.2098C119.27 31.1298 119.49 30.7598 119.38 30.9498C119.353 31.0075 119.333 31.0678 119.32 31.1298C119.32 31.1998 119.32 31.2698 119.32 31.4298C119.3 31.5624 119.3 31.6972 119.32 31.8298C119.32 31.8298 119.32 32.0698 119.32 32.0398C119.057 32.1311 118.805 32.2518 118.57 32.3998C118.25 32.5898 117.89 32.8498 117.57 33.0998C116.16 34.0998 114.76 35.4198 113.3 36.7098L112.47 37.4298L112.01 37.8098L111.75 38.0098L111.61 38.1198L111.39 38.2598C111.117 38.4304 110.825 38.568 110.52 38.6698C110.284 38.7538 110.044 38.8239 109.8 38.8798C109.472 38.9601 109.137 39.0037 108.8 39.0098C108.527 39.0014 108.255 38.9645 107.99 38.8998C107.787 38.8361 107.592 38.7488 107.41 38.6398C107.199 38.5274 107.012 38.3745 106.86 38.1898C106.55 37.8402 106.346 37.4104 106.27 36.9498C106.256 36.8001 106.256 36.6495 106.27 36.4998C106.257 36.3701 106.257 36.2395 106.27 36.1098C106.316 35.765 106.41 35.4284 106.55 35.1098C106.744 34.6558 106.985 34.2234 107.27 33.8198C107.533 33.4362 107.827 33.075 108.15 32.7398C108.45 32.4298 108.73 32.1698 109.01 31.9098C110.14 30.9098 111.23 29.9998 112.29 29.0698C112.82 28.6098 113.29 28.1398 113.83 27.6698L114.55 26.9698L114.89 26.6098L115.15 26.3198L115.1 26.4698Z" fill="white"/>
<path d="M54.7692 57.2099C55.9992 54.6299 57.3192 52.0699 58.7692 49.5799C59.1492 48.9399 59.4492 48.3799 59.9192 47.6799C60.391 47.0125 60.9492 46.4106 61.5792 45.8899C62.7307 44.9345 63.9657 44.0844 65.2692 43.3499C67.1092 42.2799 68.9592 41.2999 70.8492 40.4199C74.1892 38.8599 77.5592 37.4199 80.8992 35.9999C82.5592 35.2699 84.2092 34.5199 85.8192 33.7199C87.4243 32.9463 88.9599 32.0363 90.4092 30.9999C92.83 28.9469 95.0378 26.6554 96.9992 24.1599C98.2992 22.5699 99.5392 20.9299 100.809 19.2899C101.459 18.4799 102.079 17.6499 102.809 16.8799C103.539 16.1099 104.219 15.3499 104.969 14.6199C105.899 13.7099 105.969 13.9999 105.489 15.0399C105.259 15.5499 104.919 16.2699 104.489 17.1199C104.269 17.5399 104.049 17.9999 103.769 18.4599C103.489 18.9199 103.159 19.3899 102.769 19.8699C100.322 23.3695 97.6213 26.685 94.6892 29.7899C93.9292 30.5599 93.1392 31.2999 92.3192 32.0199C91.4643 32.772 90.5402 33.4416 89.5592 34.0199C87.686 35.1113 85.7493 36.0897 83.7592 36.9499C79.0892 39.0499 74.2492 41.1799 69.6392 43.4699C67.1268 44.6219 64.7739 46.0941 62.6392 47.8499C62.1668 48.2711 61.7591 48.7597 61.4292 49.2999L60.3992 51.0899C59.6892 52.3099 59.0192 53.5599 58.3992 54.8199C56.7892 57.9299 55.3392 61.1299 53.8992 64.3299C52.7897 66.7148 51.8767 69.1864 51.1692 71.7199C50.8592 72.9799 50.4692 74.3399 51.0892 74.9899C51.7092 75.6399 52.9292 75.6899 54.0192 75.1399C55.7348 74.1866 57.2575 72.9216 58.5092 71.4099C59.8211 69.9336 60.971 68.3211 61.9392 66.5999C62.3692 65.8499 62.7392 65.0799 63.1092 64.2899C63.7892 62.8299 64.1092 61.8299 64.4492 61.1499C64.67 60.6445 64.9857 60.1862 65.3792 59.7999C65.5086 59.6589 65.6491 59.5285 65.7992 59.4099C66.0192 59.2799 66.1292 59.5699 66.1592 60.2199C66.1517 61.1959 65.9896 62.1645 65.6792 63.0899C64.462 66.801 62.4677 70.2101 59.8292 73.0899C58.4581 74.6634 56.8237 75.9864 54.9992 76.9999C54.4545 77.2739 53.8762 77.4756 53.2792 77.5999C52.9507 77.6696 52.615 77.6999 52.2792 77.6899H51.7292C51.5397 77.6471 51.3527 77.5937 51.1692 77.5299C50.8053 77.4182 50.4659 77.2384 50.1692 76.9999C49.8307 76.7785 49.5385 76.4931 49.3092 76.1599C48.8659 75.5032 48.645 74.7215 48.6792 73.9299C48.693 73.0774 48.8003 72.2289 48.9992 71.3999C49.1792 70.6699 49.3792 69.9499 49.6092 69.2399C50.0592 67.8299 50.6092 66.4499 51.1492 65.0999C52.2892 62.4099 53.4592 59.8299 54.6792 57.1899L54.7692 57.2099Z" fill="white"/>
<path d="M99.3586 56.3998C101.029 53.9498 102.779 51.5698 104.559 49.2298C105.209 48.3698 105.809 47.4798 106.469 46.6398C107.629 45.1598 108.799 43.6398 110.039 42.2098C111.279 40.7798 112.539 39.3598 113.829 37.9698C114.969 36.7398 116.119 35.4898 117.279 34.2798C118.708 32.6072 120.438 31.2166 122.379 30.1798C123.029 29.8798 123.079 30.2698 122.799 30.8898C122.389 31.7542 121.831 32.5395 121.149 33.2098C118.099 36.0898 115.259 39.3498 112.329 42.5698C110.559 44.4698 109.029 46.7098 107.399 48.8498C105.619 51.1898 103.859 53.5498 102.189 55.9598C101.189 57.4398 100.189 58.9598 99.1886 60.4798C97.7586 62.8098 96.2986 65.1498 95.0386 67.5598C94.0386 69.4298 93.2986 71.3498 92.5286 73.2698C92.3686 73.6898 92.2186 74.1098 92.0586 74.5398C91.4486 76.1198 91.1186 76.5398 90.5286 76.7598C90.4092 76.8163 90.2854 76.8631 90.1586 76.8998C89.8386 76.9798 89.6386 76.1598 89.9386 74.8998C90.4122 72.9919 91.0582 71.1309 91.8686 69.3398C92.6886 67.5298 93.6286 65.7498 94.6186 64.0098C96.0986 61.4298 97.6186 58.8898 99.2986 56.3798L99.3586 56.3998Z" fill="white"/>
<path d="M33.7892 65.7298C31.4092 66.2498 29.0258 66.7464 26.6391 67.2198C25.7591 67.3898 24.8992 67.6098 24.0292 67.7698C20.9492 68.3198 17.8592 68.7698 14.7692 69.2998C13.3992 69.5098 12.0292 69.7598 10.6692 69.9898C9.79915 70.1498 8.91915 70.2798 8.03915 70.3998C7.14651 70.4497 6.25179 70.4497 5.35915 70.3998C4.80915 70.3998 4.86915 70.2198 5.30915 69.9698C5.51915 69.8298 5.84915 69.7298 6.21915 69.4798L6.81915 69.1098C6.91915 69.0398 7.03915 68.9998 7.14915 68.9098L7.50915 68.8298C11.0192 68.1898 14.5591 67.6698 18.1391 67.1498C20.2891 66.8598 22.4791 66.3098 24.6391 65.8498C27.0191 65.3364 29.3925 64.7964 31.7591 64.2298L36.1292 63.1398C38.3292 62.5698 40.5492 62.0298 42.7392 61.4298C44.4392 60.9698 46.0791 60.4298 47.7991 59.9798C48.1791 59.8798 48.5492 59.7698 48.9492 59.6998C50.4092 59.4298 51.1092 59.6998 51.3292 60.3398C51.3899 60.454 51.4241 60.5805 51.4291 60.7098C51.4291 60.8698 51.2491 60.9398 51.0491 61.1198C50.7598 61.3456 50.4138 61.4875 50.0491 61.5298C48.6591 61.8498 47.1391 62.3298 45.6091 62.7498L40.9391 63.9998C38.5891 64.6198 36.1891 65.1598 33.7991 65.7398L33.7892 65.7298Z" fill="white"/>
<path d="M92.8298 86.4498C92.8298 86.3398 92.8998 86.2098 92.9398 86.0898C92.9798 85.9698 92.9398 85.7898 92.9398 85.7798C92.9398 85.7698 92.9398 85.7798 92.8698 85.5398C92.7626 85.3195 92.6424 85.1058 92.5098 84.8998C92.2298 84.4598 91.8998 83.9998 91.5098 83.5598C90.8198 82.6498 90.0698 81.7698 89.2998 80.8998C88.5298 80.0298 87.9398 79.4798 87.2998 78.7498C84.9998 76.1798 82.5698 73.6898 79.9998 71.2698C78.8698 70.1698 77.7498 69.0898 76.5898 68.1098C75.1125 66.9014 73.5445 65.8081 71.8998 64.8398C71.3998 64.4998 71.4898 64.3298 72.1198 64.1598C72.6058 64.0228 73.1147 63.9867 73.6152 64.0538C74.1156 64.1209 74.5971 64.2897 75.0298 64.5498C76.8463 65.6375 78.5251 66.9403 80.0298 68.4298L82.2298 70.4998C82.9898 71.1998 83.6998 71.9398 84.3998 72.6998C86.0798 74.5098 87.9798 76.2198 89.7098 78.0598C90.7098 79.0598 91.5898 80.0598 92.4898 81.1698C92.9398 81.7098 93.3798 82.2598 93.7998 82.8298C94.2645 83.427 94.6666 84.0704 94.9998 84.7498C95.1414 85.0644 95.2163 85.4048 95.2198 85.7498C95.179 86.6141 94.946 87.4584 94.5377 88.2212C94.1295 88.9841 93.5563 89.6464 92.8598 90.1598C92.3136 90.6004 91.7159 90.9731 91.0798 91.2698C90.4268 91.6039 89.7188 91.8174 88.9898 91.8998C88.6045 91.9448 88.2152 91.9448 87.8298 91.8998C87.4905 91.817 87.1565 91.7135 86.8298 91.5898C86.1841 91.3198 85.5676 90.9847 84.9898 90.5898C84.1236 90.0427 83.295 89.438 82.5098 88.7798C81.7319 88.1527 80.9876 87.4851 80.2798 86.7798C79.9798 86.4598 79.6798 86.1498 79.3998 85.7798C78.3098 84.5698 78.3198 83.8898 78.3998 83.3798C78.4076 83.2613 78.4277 83.144 78.4598 83.0298C78.4598 82.8798 78.6898 82.8898 78.9998 83.0298C79.4563 83.1837 79.8851 83.4099 80.2698 83.6998L82.2698 85.3498C82.9298 85.9198 83.5798 86.4998 84.2698 87.0298C84.9598 87.5598 85.6098 88.0798 86.2698 88.5098C86.8506 88.9249 87.5008 89.2331 88.1898 89.4198C88.2998 89.4698 88.3798 89.4198 88.4798 89.4198C88.5798 89.4198 88.6698 89.4198 88.7398 89.4198C88.8161 89.4095 88.8935 89.4095 88.9698 89.4198C89.0886 89.3944 89.2056 89.361 89.3198 89.3198C89.8422 89.1498 90.3424 88.9182 90.8098 88.6298C91.7119 88.1559 92.4196 87.3811 92.8098 86.4398L92.8298 86.4498Z" fill="white"/>
<path d="M77.7999 93.5298C78.7211 94.2416 79.7292 94.833 80.7999 95.2898C81.1681 95.4148 81.5461 95.5084 81.9299 95.5698C82.4983 95.7298 83.1052 95.6801 83.6399 95.4298C84.3366 95.0594 85.0051 94.6383 85.6399 94.1698C86.1876 93.7625 86.6727 93.2774 87.0799 92.7298C87.5454 92.03 87.9727 91.3056 88.3599 90.5598C88.4899 90.3298 88.8199 90.4198 89.1099 90.7598C89.2883 90.973 89.4117 91.2267 89.4692 91.4987C89.5267 91.7707 89.5167 92.0526 89.4399 92.3198C89.0463 93.3356 88.4314 94.2511 87.6399 94.9998C86.913 95.7192 86.08 96.3229 85.1699 96.7898C84.5555 97.1807 83.8793 97.4647 83.1699 97.6298C82.477 97.7707 81.7629 97.7707 81.0699 97.6298C79.7389 97.296 78.472 96.7453 77.3199 95.9998C76.6199 95.5698 75.9599 95.0998 75.3199 94.6198C74.3199 93.8898 73.4199 93.0798 72.4899 92.3098C71.7699 91.7098 70.9899 91.1798 70.2699 90.5498C70.1006 90.4244 69.9402 90.2874 69.7899 90.1398C69.2399 89.5698 69.2199 89.2398 69.6599 88.7098C69.7599 88.5898 69.8599 88.4598 69.9699 88.3498C70.1425 88.178 70.3718 88.0752 70.6148 88.0604C70.8579 88.0457 71.0979 88.1201 71.2899 88.2698C72.5985 89.1859 73.8445 90.1881 75.0199 91.2698C75.9167 92.0755 76.8582 92.83 77.8399 93.5298H77.7999Z" fill="white"/>
<path d="M69.5201 99.4198C70.4902 100.17 71.5359 100.816 72.6401 101.35C73.0212 101.505 73.412 101.635 73.8101 101.74C74.1084 101.833 74.4177 101.887 74.7301 101.9C74.8498 101.911 74.9703 101.911 75.0901 101.9C75.2401 101.9 75.4501 101.76 75.6201 101.7C76.3574 101.425 77.059 101.062 77.7101 100.62C78.2656 100.224 78.7465 99.7335 79.1301 99.1698C79.5651 98.4526 79.9237 97.6917 80.2001 96.8998C80.2801 96.6898 80.6801 96.6598 81.0701 96.9698C81.3059 97.1617 81.4813 97.4175 81.5753 97.7066C81.6693 97.9958 81.6779 98.3059 81.6001 98.5998C81.2519 99.7042 80.6046 100.691 79.7301 101.45C78.934 102.184 78.0083 102.764 77.0001 103.16L76.1201 103.52L75.8901 103.62L75.5801 103.73C75.3701 103.8 75.1701 103.81 74.9601 103.86C74.2347 103.917 73.5049 103.836 72.8101 103.62C71.4866 103.159 70.2369 102.509 69.1001 101.69C68.4101 101.23 67.7401 100.69 67.1001 100.22C66.1001 99.4498 65.1901 98.5998 64.2501 97.7898C63.5301 97.1498 62.7401 96.6098 62.0501 95.9098C61.8901 95.7598 61.7301 95.6098 61.5901 95.4498C61.0701 94.8198 61.0401 94.4498 61.3801 94.0598C61.452 93.9567 61.5323 93.8597 61.6201 93.7698C61.9301 93.5098 62.3601 93.5798 62.7801 93.8998C64.0701 94.8298 65.3101 95.9598 66.6101 97.0498C67.6101 97.8598 68.5501 98.6698 69.6101 99.3798L69.5201 99.4198Z" fill="white"/>
<path d="M53.1299 97.1098C54.3899 98.2598 55.6699 99.4098 57.0199 100.45C57.4999 100.85 58.0199 101.15 58.5399 101.53C59.4052 102.172 60.3031 102.77 61.2299 103.32C62.1385 103.836 63.1194 104.214 64.1399 104.44C65.0395 104.661 65.9734 104.705 66.8899 104.57C67.9633 104.374 68.9237 103.782 69.5799 102.91C69.8099 102.64 70.0999 102.79 70.2399 103.27C70.3268 103.632 70.311 104.01 70.1944 104.364C70.0778 104.717 69.865 105.031 69.5799 105.27C68.9498 105.783 68.1996 106.127 67.3999 106.27C66.6629 106.418 65.9084 106.458 65.1599 106.39C64.4606 106.337 63.7677 106.22 63.0899 106.04C62.748 105.958 62.4136 105.847 62.0899 105.71C61.7417 105.587 61.4067 105.429 61.0899 105.24C59.6383 104.461 58.2326 103.6 56.8799 102.66C55.4299 101.66 54.0599 100.49 52.7299 99.3298C51.8999 98.6198 51.1099 97.8698 50.3099 97.1398C49.1099 96.0098 47.9499 94.8299 46.8099 93.6599C45.9099 92.7499 44.9899 91.8998 44.1199 90.9498C43.9299 90.7298 43.7399 90.5298 43.5599 90.2998C42.8999 89.4498 42.8699 89.0098 43.2099 88.5898C43.2793 88.4818 43.3597 88.3813 43.4499 88.2898C43.7599 88.0198 44.2699 88.2099 44.7099 88.7299C46.1799 90.2499 47.7799 91.8798 49.4199 93.4898C50.6399 94.6898 51.8899 95.8798 53.1699 97.0298L53.1299 97.1098Z" fill="white"/>
<path d="M27.0787 92.1001L31.6287 90.5201C32.1887 90.3301 32.7187 90.0801 33.2887 89.9001C35.2887 89.2501 37.2887 88.7101 39.2887 88.2301C40.1987 88.0301 41.1087 87.7801 42.0287 87.6001C42.6331 87.4609 43.249 87.3773 43.8687 87.3501C44.5298 87.3563 45.1815 87.5064 45.7787 87.7901C46.1587 87.9901 45.9487 88.2601 45.5687 88.5501C45.1395 88.9068 44.6524 89.1875 44.1287 89.3801C42.0787 89.6401 39.7987 90.2201 37.4887 90.7201C36.0997 91.1002 34.734 91.561 33.3987 92.1001L28.8487 93.7101L26.0387 94.7101L21.7787 96.2501C20.6787 96.6601 19.6287 97.1801 18.4787 97.5401C18.2232 97.6232 17.9626 97.69 17.6987 97.7401C16.6987 97.9201 16.2587 97.7401 16.0787 97.2201C16.0254 97.1093 15.9884 96.9914 15.9687 96.8701C15.9612 96.7731 15.9762 96.6757 16.0126 96.5854C16.0491 96.4952 16.1059 96.4147 16.1787 96.3501C16.3712 96.186 16.5913 96.0574 16.8287 95.9701C18.5387 95.1901 20.5387 94.5001 22.5387 93.7201L27.0487 92.0401L27.0787 92.1001Z" fill="white"/>
<path d="M25.1293 83.5196C24.4571 82.1268 23.8889 80.6863 23.4293 79.2096C23.2493 78.6796 23.0493 78.1496 22.9193 77.5996C22.4471 75.637 22.2851 73.6124 22.4393 71.5996C22.4993 70.7196 22.6093 69.8296 22.7493 68.9596C22.8423 68.3941 22.976 67.836 23.1493 67.2896C23.3447 66.7447 23.6322 66.2373 23.9993 65.7896C24.2193 65.4996 24.5593 65.7896 24.8393 66.1996C25.1589 66.6805 25.3102 67.2537 25.2693 67.8296C24.7106 69.7601 24.4278 71.7599 24.4293 73.7696C24.4683 75.0604 24.7009 76.338 25.1193 77.5596C25.5033 78.949 25.9947 80.3065 26.5893 81.6197C26.9593 82.4397 27.3693 83.2396 27.8093 84.0196C28.4712 85.2118 29.2375 86.3429 30.0993 87.3996C30.7742 88.1789 31.5283 88.8861 32.3493 89.5096L32.8693 89.8796C33.4893 90.3596 33.5193 90.5696 33.4693 91.0896C33.4693 91.2096 33.4693 91.3396 33.4693 91.4496C33.5293 91.8396 32.8493 92.0596 32.1293 91.7496C31.1694 91.2814 30.2968 90.6523 29.5493 89.8896C28.812 89.1584 28.1426 88.3618 27.5493 87.5096C26.6404 86.239 25.8281 84.9019 25.1193 83.5096L25.1293 83.5196Z" fill="white"/>
<path d="M105.749 37.5998C105.504 37.0387 105.216 36.4971 104.889 35.9798L104.399 35.1898L103.809 34.4598C103.502 34.1005 103.168 33.7661 102.809 33.4598L101.959 32.5798L101.019 31.7798C100.393 31.2242 99.7243 30.7192 99.0186 30.2698C98.3811 29.8811 97.7121 29.5466 97.0186 29.2698C96.1086 28.9555 95.2284 28.5606 94.3886 28.0898C94.1286 27.9298 94.2586 27.6098 94.6186 27.3398C94.8426 27.1777 95.0977 27.0638 95.3679 27.0053C95.6382 26.9468 95.9176 26.9449 96.1886 26.9998C96.7047 27.0892 97.2105 27.2299 97.6986 27.4198C98.1786 27.6198 98.6986 27.8298 99.1386 28.0498C99.6206 28.2648 100.082 28.5225 100.519 28.8198C100.972 29.0977 101.406 29.405 101.819 29.7398C102.309 30.1598 102.819 30.5498 103.349 30.9298C103.879 31.3098 104.349 31.7898 104.819 32.2298C105.289 32.6698 105.819 33.3098 106.229 33.8698C106.639 34.4298 107.069 35.0398 107.399 35.6798C107.599 36.0698 107.819 36.4598 108.009 36.8498L108.519 38.0698C108.984 39.3219 109.319 40.6188 109.519 41.9398C109.719 42.9547 109.83 43.9854 109.849 45.0198C109.849 45.2598 109.849 45.4898 109.849 45.7198C109.818 45.9048 109.768 46.0859 109.699 46.2598C109.624 46.3845 109.529 46.496 109.419 46.5898C109.232 46.7398 108.998 46.8179 108.759 46.8098C108.645 46.8195 108.532 46.8195 108.419 46.8098C108.069 46.8098 107.809 46.3498 107.629 45.8098C107.429 44.2198 107.219 42.6798 106.919 41.0898C106.676 39.904 106.29 38.7522 105.769 37.6598L105.749 37.5998Z" fill="white"/>
<path d="M104.83 95.8901C104.69 95.8901 104.69 95.7101 104.83 95.3601C104.896 95.2087 104.984 95.0674 105.09 94.9401C105.183 94.8903 105.28 94.8469 105.38 94.8101C105.43 94.8101 106.02 94.9201 106.23 94.9301C106.419 94.9527 106.605 95.0033 106.78 95.0801C107.14 95.2201 107.51 95.3301 107.88 95.4501C107.964 95.4772 108.043 95.5214 108.11 95.5801C108.35 95.7692 108.637 95.8901 108.94 95.9301C108.964 95.9424 108.992 95.9488 109.02 95.9488C109.047 95.9488 109.075 95.9424 109.1 95.9301C109.447 95.9212 109.791 96.0003 110.1 96.1601C110.315 96.3475 110.542 96.5212 110.78 96.6801C110.78 96.6801 110.86 96.6801 110.87 96.7801C110.88 96.8801 110.99 96.9601 111.07 97.0001C111.179 97.0563 111.279 97.127 111.37 97.2101C111.414 97.2864 111.451 97.3667 111.48 97.4501C111.486 97.5638 111.455 97.6764 111.39 97.7701C111.32 97.8301 111.33 97.9501 111.31 98.0501V98.1501C111.036 98.2929 110.743 98.394 110.44 98.4501L109.92 98.3801L109.31 98.3201C109.25 98.3201 109.2 98.3201 109.15 98.2301L108.3 98.0701C108.15 97.9901 107.97 97.9901 107.86 97.7901C107.86 97.7901 107.81 97.7901 107.77 97.7901C107.495 97.6905 107.234 97.5596 106.99 97.4001C106.86 97.3301 106.72 97.2801 106.58 97.2201C106.44 97.1601 106.58 97.2201 106.52 97.1601C106.46 97.1001 106.52 97.1001 106.44 97.0901C106.11 96.9601 105.83 96.7401 105.44 96.6301C105.36 96.6301 105.09 96.2701 105 96.2401C104.91 96.2101 104.89 95.8801 104.83 95.8901Z" fill="white"/>
<path d="M92.2495 107.53C92.1295 107.43 92.3495 107.34 92.7595 107.25C92.9584 107.22 93.1607 107.22 93.3595 107.25C93.4631 107.3 93.5633 107.357 93.6595 107.42C93.7898 107.693 93.9033 107.973 93.9995 108.26C94.0682 108.448 94.0988 108.649 94.0895 108.85C94.0895 109.25 94.0895 109.65 94.0895 110.04C94.0852 110.13 94.0613 110.219 94.0195 110.3C93.8847 110.572 93.826 110.876 93.8495 111.18C93.8373 111.203 93.8309 111.229 93.8309 111.255C93.8309 111.281 93.8373 111.307 93.8495 111.33C93.9379 111.657 93.9379 112.002 93.8495 112.33C93.7027 112.565 93.5691 112.809 93.4495 113.06C93.4495 113.06 93.4495 113.13 93.3695 113.15C93.2895 113.17 93.1995 113.29 93.1795 113.37C93.1504 113.482 93.0995 113.587 93.0295 113.68C93.0295 113.68 92.8895 113.77 92.7995 113.82C92.6744 113.848 92.5447 113.848 92.4195 113.82C92.3295 113.76 92.1995 113.82 92.0895 113.82H91.9995C91.7985 113.595 91.6363 113.338 91.5195 113.06V112.57C91.5195 112.33 91.5195 112.07 91.5195 112.02C91.5195 111.97 91.5195 111.91 91.5895 111.86C91.6595 111.81 91.5195 111.1 91.5295 111.08C91.5395 111.06 91.5295 110.78 91.6895 110.65C91.6959 110.636 91.6992 110.62 91.6992 110.605C91.6992 110.589 91.6959 110.574 91.6895 110.56C91.7013 110.304 91.7484 110.052 91.8295 109.81C91.8395 109.68 91.8395 109.549 91.8295 109.42V109.36C91.8372 109.33 91.8372 109.299 91.8295 109.27C91.8647 108.967 91.8647 108.662 91.8295 108.36C91.8295 108.29 92.0095 107.96 91.9895 107.88C91.9695 107.8 92.2995 107.57 92.2495 107.53Z" fill="white"/>
<path d="M31.7187 35.1497C31.5787 35.1497 31.5987 34.9797 31.7187 34.6697C31.7725 34.5282 31.8541 34.399 31.9587 34.2897C32.0438 34.242 32.1345 34.2051 32.2287 34.1797C32.2287 34.1797 32.8287 34.3197 33.0287 34.3597C33.21 34.3929 33.3832 34.4608 33.5387 34.5597L34.5387 35.0897C34.6111 35.1313 34.6754 35.1855 34.7287 35.2497C34.9154 35.4692 35.152 35.6406 35.4187 35.7497C35.4187 35.7497 35.4987 35.7497 35.5587 35.7497C35.8665 35.8387 36.1502 35.9959 36.3887 36.2097C36.5387 36.4297 36.7087 36.6197 36.8787 36.8297C36.8787 36.8297 36.9387 36.8297 36.9387 36.9297C36.9387 37.0297 36.9987 37.1197 37.0587 37.1797C37.142 37.25 37.2159 37.3306 37.2787 37.4197C37.2911 37.5026 37.2911 37.5868 37.2787 37.6697C37.2571 37.7779 37.201 37.8761 37.1187 37.9497C37.0387 37.9497 37.0187 38.0997 36.9687 38.1897V38.2797C36.6973 38.325 36.4202 38.325 36.1487 38.2797L35.7187 38.0897L35.2087 37.8897C35.1587 37.8897 35.1287 37.8097 35.0987 37.7697C35.0687 37.7297 34.4087 37.4897 34.3887 37.4597C34.3687 37.4297 34.1187 37.3397 34.0687 37.1397C34.0687 37.1397 34.0687 37.1397 34.0087 37.0697C33.792 36.9356 33.5908 36.778 33.4087 36.5997C33.3051 36.5173 33.1947 36.4437 33.0787 36.3797C33.0787 36.3797 33.0787 36.3797 33.0787 36.3197C33.0646 36.2891 33.0441 36.2618 33.0187 36.2397C32.7737 36.0558 32.5164 35.8888 32.2487 35.7397C32.1887 35.7397 31.9787 35.3997 31.8987 35.3697C31.8187 35.3397 31.7687 35.1397 31.7187 35.1497Z" fill="white"/>
<path d="M49.93 20C49.84 19.82 50.1 19.73 50.56 19.69C50.7768 19.6891 50.9913 19.7333 51.19 19.82C51.2921 19.9232 51.3826 20.0372 51.46 20.16C51.46 20.22 51.54 21.16 51.57 21.49C51.5932 21.7951 51.5696 22.102 51.5 22.4L51.21 24.2C51.191 24.3337 51.1469 24.4626 51.08 24.58C50.8824 24.9964 50.7735 25.4493 50.76 25.91C50.7435 25.9478 50.735 25.9887 50.735 26.03C50.735 26.0713 50.7435 26.1121 50.76 26.15C50.7891 26.6514 50.7385 27.1543 50.61 27.64C50.4239 28.0064 50.2603 28.3837 50.12 28.77C50.12 28.83 50.12 28.89 50.04 28.93C49.96 28.97 49.86 29.16 49.83 29.28C49.7986 29.4505 49.7518 29.6179 49.69 29.78C49.6262 29.8774 49.5448 29.9622 49.45 30.03C49.3283 30.08 49.1917 30.08 49.07 30.03C48.98 29.95 48.85 30.03 48.74 30.03C48.6968 30.0349 48.6532 30.0349 48.61 30.03C48.3818 29.6632 48.2067 29.2659 48.09 28.85L48 27.11C48.0056 27.0167 48.0367 26.9267 48.09 26.85C48.09 26.8 48.09 25.59 48.09 25.54C48.15 25.3 48.09 25.04 48.34 24.83C48.3595 24.7818 48.3595 24.7281 48.34 24.68C48.4125 24.2618 48.5195 23.8504 48.66 23.45C48.7139 23.2423 48.7573 23.032 48.79 22.82C48.8039 22.7833 48.8242 22.7495 48.85 22.72C48.8773 22.6754 48.9007 22.6285 48.92 22.58C49.0464 22.0929 49.1433 21.5987 49.21 21.1C49.21 20.98 49.53 20.48 49.53 20.35C49.53 20.22 50 20.09 49.93 20Z" fill="white"/>
<path d="M63.7195 68.7397C63.2395 69.4597 62.7195 70.1597 62.1795 70.8297C61.9895 71.0797 61.7895 71.3197 61.5795 71.5597C60.8328 72.3766 60.0345 73.1449 59.1895 73.8597L58.0695 74.8597C57.5876 75.2537 57.0723 75.605 56.5295 75.9097C56.3595 75.9997 56.3295 75.9097 56.4095 75.7497C56.5339 75.4922 56.7071 75.2612 56.9195 75.0697C57.3695 74.6197 57.8395 74.2197 58.3095 73.8197C58.7795 73.4197 59.2495 72.9997 59.7095 72.5697C60.2601 72.0403 60.7683 71.4686 61.2295 70.8597C61.7627 70.2186 62.2633 69.5511 62.7295 68.8597C63.0195 68.4297 63.2995 67.9797 63.5595 67.5297C63.9557 66.8472 64.313 66.1427 64.6295 65.4197C64.8595 64.8497 65.0395 64.2797 65.2295 63.7097L65.3495 63.3297C65.5295 62.8697 65.6495 62.7497 65.8595 62.6997H65.9995C66.1395 62.6997 66.1895 62.9297 66.1395 63.3097C66.0443 63.8725 65.9072 64.4273 65.7295 64.9697C65.5329 65.5169 65.3025 66.0512 65.0395 66.5697C64.6513 67.3578 64.2172 68.1224 63.7395 68.8597L63.7195 68.7397Z" fill="white"/>
</svg>
