<svg width="128" height="128" viewBox="0 0 128 128" fill="none" xmlns="http://www.w3.org/2000/svg">
<path d="M21.5493 80.6798C21.6293 75.7898 21.6893 70.9498 21.6293 66.0698L21.5193 60.7398C21.4493 54.4798 21.3593 48.2198 21.1293 41.9598C21.0293 39.1798 20.8593 36.3898 20.6293 33.6498C20.2993 30.1298 20.0093 26.5798 19.7293 23.1198C19.6593 22.0398 19.9393 22.1198 20.4993 22.9298C21.3997 24.3057 21.9617 25.8751 22.1393 27.5098C22.6099 31.1263 22.897 34.7643 22.9993 38.4098C23.1593 42.0431 23.246 45.6864 23.2593 49.3398C23.2593 53.7098 23.5093 58.2598 23.5893 62.7298C23.6793 67.6398 23.7193 72.5698 23.6693 77.4898C23.6693 80.4898 23.6093 83.4898 23.6693 86.5498C23.7193 91.1198 23.7993 95.7098 24.1693 100.22C24.4593 103.73 24.9793 107.14 25.5693 110.56C25.7093 111.31 25.8393 112.05 25.9793 112.8C26.4693 115.62 26.5193 116.53 25.9793 117.25C25.8781 117.421 25.7609 117.581 25.6293 117.73C25.1993 118.09 24.6293 117.01 24.0893 114.95C22.677 108.56 21.8668 102.051 21.6693 95.5098C21.4393 90.5698 21.4793 85.6198 21.4893 80.6898L21.5493 80.6798Z" fill="white"/>
<path d="M49.4092 104.67C54.2992 104.92 59.2092 105.02 64.1092 104.97C65.8992 104.97 67.6792 104.83 69.4692 104.8C75.7692 104.64 82.0792 104.26 88.3392 103.54C91.1192 103.21 93.8992 102.77 96.6292 102.27C98.3792 101.92 100.129 101.58 101.869 101.17C103.609 100.76 105.369 100.49 107.129 100.17C108.229 99.9901 108.129 100.3 107.349 100.89C106.023 101.824 104.554 102.537 102.999 103C99.4192 103.92 95.7792 104.54 92.1292 105.12C88.4792 105.7 84.7992 106 81.1292 106.2C76.6992 106.47 72.1292 106.88 67.5792 107.01C62.6125 107.17 57.6358 107.17 52.6492 107.01C49.5892 106.91 46.5292 106.78 43.4692 106.59L29.6292 105.59C26.0592 105.34 22.5592 105.2 19.0192 104.92C18.2492 104.85 17.4792 104.82 16.6992 104.73C13.7992 104.42 12.8992 104.1 12.3792 103.35C12.2477 103.193 12.1336 103.022 12.0392 102.84C11.8392 102.28 13.0392 102.03 15.1792 102.16C21.4492 102.56 28.0292 103.09 34.6792 103.58C39.6292 103.94 44.5492 104.37 49.4892 104.58L49.4092 104.67Z" fill="white"/>
<path d="M34.75 75.3801C34.75 78.1001 34.75 80.8301 34.75 83.5501L34.86 86.5501C34.95 90.0501 35 93.5501 35.35 97.0101C35.35 97.3701 35.44 97.7401 35.51 98.0801C35.51 98.2001 35.51 98.2701 35.58 98.3601C35.65 98.4501 35.65 98.5401 35.75 98.5501C35.8464 98.5605 35.9436 98.5605 36.04 98.5501C36.2165 98.5607 36.3935 98.5607 36.57 98.5501C36.94 98.5501 37.34 98.5501 37.72 98.5501C38.72 98.4801 39.66 98.3301 40.63 98.2001C41.6 98.0701 42.63 98.0001 43.56 97.8901C44.13 97.8301 44.18 98.1401 43.74 98.6101C43.0626 99.2949 42.2069 99.7764 41.27 100C40.27 100.17 39.33 100.32 38.34 100.43C37.84 100.43 37.34 100.52 36.82 100.53C36.5469 100.545 36.2731 100.545 36 100.53C35.777 100.515 35.556 100.478 35.34 100.42C35.12 100.36 34.9 100.31 34.68 100.23C33.79 99.8201 33.68 98.2301 33.68 97.9601C33.61 97.4001 33.56 96.8501 33.52 96.3001C33.45 95.2101 33.42 94.1301 33.41 93.0401C33.41 90.5701 33.19 88.0401 33.13 85.5201C33 82.7001 33 79.9401 33 77.1801L33.07 72.0901C33.07 70.8001 33.14 69.5101 33.21 68.2201C33.21 67.5701 33.28 66.9301 33.35 66.2801C33.3759 65.9072 33.426 65.5364 33.5 65.1701C33.58 64.7401 33.72 64.2701 34.17 64.1701C34.5015 64.1209 34.8385 64.1209 35.17 64.1701L35.94 64.2301L37.4 64.3601C38.3559 64.4148 39.3141 64.4148 40.27 64.3601C40.68 64.3601 41.08 64.3601 41.48 64.2701C42.95 64.1001 43.24 63.9901 43.74 64.1401C43.85 64.1401 43.99 64.1401 44.09 64.2001C44.19 64.2601 44.27 64.4501 44.09 64.7601C43.7425 65.1775 43.28 65.4835 42.76 65.6401C40.9196 66.1195 39.0018 66.2249 37.12 65.9501L35.74 65.8301H35.13C35.08 66.2401 35.04 66.6901 35.01 67.1401C34.86 69.8101 34.82 72.5801 34.82 75.3201L34.75 75.3801Z" fill="white"/>
<path d="M44.1284 80.3702L44.0284 84.0702C44.0284 84.5202 44.0284 84.9702 44.0284 85.4202C44.0284 87.0002 43.9184 88.5902 43.8984 90.1702C43.8984 90.8802 43.8984 91.5802 43.9684 92.2802L44.0684 93.6202C44.0813 94.0581 44.0579 94.4962 43.9984 94.9302C43.9827 94.9765 43.9551 95.0179 43.9184 95.0502H43.8584L43.7284 95.1002H43.6684C43.7984 95.1002 43.7384 95.1002 43.6684 95.1002H43.5584C43.4755 95.0784 43.3975 95.041 43.3284 94.9902C42.9091 94.7199 42.6059 94.3026 42.4784 93.8202C42.2882 91.9826 42.2681 90.1314 42.4184 88.2902C42.5084 87.1802 42.4184 86.0402 42.4184 84.9002V81.1702V78.8702C42.4184 77.7102 42.4184 76.5502 42.4184 75.3902C42.4184 74.5002 42.2684 73.6202 42.1984 72.7302C42.1984 72.5302 42.1984 72.3402 42.1484 72.1402C42.1484 71.4002 42.2684 71.1402 42.7584 71.0302C42.866 70.9942 42.9764 70.9675 43.0884 70.9502C43.4584 70.9502 43.7584 71.2102 43.8384 71.7302C44.071 73.346 44.1714 74.9781 44.1384 76.6102V80.3302L44.1284 80.3702Z" fill="white"/>
<path d="M56.9285 68.0002C56.9285 71.2102 56.9285 74.4302 57.0185 77.6402L57.1385 81.1602C57.2285 85.2902 57.3085 89.4302 57.5485 93.5402C57.6085 94.4602 57.6785 95.3702 57.7885 96.2702L57.8785 96.9302L57.9385 97.2602V97.4402C57.9385 97.5302 57.9385 97.6702 58.0785 97.7102C58.1846 97.7255 58.2924 97.7255 58.3985 97.7102H59.1285H59.9685L61.6885 97.5302C62.8285 97.3702 63.9985 97.3102 65.1285 97.1802C65.8085 97.1002 65.8485 97.4102 65.3085 97.9002C64.4459 98.6176 63.4125 99.0998 62.3085 99.3002C61.0724 99.5136 59.8225 99.6372 58.5685 99.6702H58.2585C58.1087 99.6801 57.9584 99.6801 57.8085 99.6702C57.5315 99.6208 57.2602 99.5437 56.9985 99.4402C56.8985 99.3602 56.7285 99.3502 56.6785 99.2002C56.5803 99.1119 56.4868 99.0185 56.3985 98.9202C56.2511 98.6764 56.1463 98.4092 56.0885 98.1302L56.0085 97.7002V97.4502L55.9985 96.8702L55.8785 96.0002C55.6885 93.5602 55.6385 91.1602 55.6285 88.7402C55.6285 85.8402 55.4185 82.8402 55.3585 79.8902C55.2852 76.6435 55.2418 73.3969 55.2285 70.1502V64.1502C55.2285 61.1502 55.2285 58.0902 55.3885 55.0602C55.3969 54.3899 55.457 53.7212 55.5685 53.0602C55.5989 52.8672 55.6705 52.683 55.7785 52.5202C55.914 52.3945 56.0853 52.3141 56.2685 52.2902C56.6672 52.2444 57.0698 52.2444 57.4685 52.2902C58.6285 52.4002 59.7485 52.5102 60.8685 52.5402C61.3585 52.5402 61.8685 52.5402 62.3185 52.5402C63.2055 52.4091 64.1025 52.3589 64.9985 52.3902C65.1185 52.3902 65.2685 52.3902 65.3785 52.3902C65.4885 52.3902 65.5785 52.6502 65.3085 53.0002C64.8786 53.4715 64.3122 53.7966 63.6885 53.9302C61.4485 54.4902 59.1885 54.0902 57.1685 53.9302C57.0281 55.3623 56.9713 56.8014 56.9985 58.2402C56.9985 61.4602 56.9985 64.7102 56.9985 67.9602L56.9285 68.0002Z" fill="white"/>
<path d="M65.7388 73.72L65.6688 79C65.6688 79.64 65.6688 80.28 65.6688 80.92L65.5788 87.65C65.5788 88.65 65.5788 89.65 65.6588 90.65L65.7688 92.55C65.7802 93.1747 65.7502 93.7994 65.6788 94.42C65.6679 94.4841 65.6441 94.5454 65.6088 94.6C65.6088 94.6 65.6088 94.67 65.3188 94.74H65.4388H65.3988H65.2988C65.2087 94.7037 65.127 94.6492 65.0588 94.58C64.6162 94.1199 64.3203 93.5386 64.2088 92.91C64.0104 90.3081 63.977 87.6962 64.1088 85.09C64.1988 83.52 64.1088 81.9 64.1088 80.29V71.65C64.1088 70.01 64.1088 68.36 64.1088 66.73C64.1088 65.46 63.9388 64.22 63.8588 62.96C63.8588 62.69 63.8588 62.41 63.7988 62.13C63.7988 61.13 63.9188 60.74 64.3988 60.55C64.5088 60.55 64.6188 60.45 64.7288 60.42C65.1088 60.35 65.3988 60.78 65.4788 61.51C65.7358 63.8109 65.8593 66.1248 65.8488 68.44V73.72H65.7388Z" fill="white"/>
<path d="M79.3785 59.1002C79.3785 62.9935 79.4318 66.8835 79.5385 70.7702L79.6885 75.0002C79.8085 80.0002 79.9385 85.0002 80.1885 90.0002C80.2985 92.2102 80.4885 94.4502 80.7685 96.5902C80.7685 96.8402 80.7685 96.8802 80.8385 96.9902C80.9085 97.1002 80.8385 97.1902 81.0085 97.1902H81.2085H81.4685H82.3185C82.8985 97.1902 83.4785 97.1102 84.0685 97.0402C85.2385 96.9302 86.4285 96.8402 87.5985 96.7002C88.4085 96.5902 88.4285 96.9102 87.7585 97.4302C86.6748 98.1838 85.4332 98.6798 84.1285 98.8802C83.5385 98.9602 82.9485 99.0202 82.3385 99.0702C82.0385 99.0702 81.7185 99.0702 81.3985 99.0702C81.1411 99.0689 80.8839 99.0522 80.6285 99.0202C80.3616 98.9642 80.0979 98.8941 79.8385 98.8102C79.7385 98.7302 79.6085 98.6902 79.5485 98.5702C79.4376 98.5027 79.3475 98.4058 79.2885 98.2902C79.1558 98.0506 79.0645 97.7902 79.0185 97.5202L78.9285 97.0902V96.8402L78.8685 96.3902C78.7885 95.7902 78.7185 95.2102 78.6785 94.6202C78.5785 93.4502 78.5185 92.2802 78.4585 91.1202C78.3585 88.7802 78.2985 86.4502 78.2785 84.1202C78.2785 80.6202 78.0185 76.9902 77.9285 73.4202C77.8285 69.5002 77.7685 65.5702 77.7285 61.6402V54.3902C77.7285 50.7302 77.7285 47.0502 77.8985 43.3902C77.8985 42.5102 77.9685 41.6402 78.0385 40.7502L78.0985 40.0902V39.7502C78.0985 39.5902 78.1585 39.4302 78.1885 39.2702C78.2394 38.9688 78.3554 38.6821 78.5285 38.4302C78.6201 38.3193 78.7403 38.2356 78.876 38.1881C79.0116 38.1405 79.1577 38.1308 79.2985 38.1602C80.2185 38.2902 80.5885 38.3402 81.1285 38.4002C81.6685 38.4602 82.1285 38.5102 82.6785 38.5402C83.2285 38.5702 83.8585 38.6002 84.4485 38.6102C85.183 38.6256 85.9177 38.5956 86.6485 38.5202C87.0885 38.5202 87.2985 38.5202 87.5885 38.4402C87.7231 38.412 87.8539 38.3683 87.9785 38.3102C88.0685 38.3102 88.1385 38.3102 88.1585 38.4402C88.1741 38.6555 88.1101 38.869 87.9785 39.0402C87.4687 39.6322 86.7547 40.0106 85.9785 40.1002C84.8652 40.2841 83.7338 40.3344 82.6085 40.2502C82.0485 40.2502 81.4985 40.1502 80.9485 40.0802C80.3985 40.0102 79.5885 39.8802 79.7785 39.9302C79.7785 39.9302 79.7785 39.9302 79.7785 39.9902C79.7785 40.0502 79.7785 39.9902 79.7785 40.0702V40.5902C79.7085 41.2902 79.6785 42.0302 79.6385 42.7802C79.5785 44.2602 79.5485 45.7802 79.5285 47.3002C79.5285 51.1902 79.5285 55.1302 79.5285 59.0502L79.3785 59.1002Z" fill="white"/>
<path d="M88.359 64.8199L88.269 72.2099V74.8999C88.269 78.0699 88.199 81.2399 88.159 84.4099C88.159 85.8099 88.159 87.2199 88.229 88.6199C88.229 89.5099 88.299 90.4099 88.329 91.3099C88.359 92.2099 88.329 93.1299 88.239 93.9599C88.2322 94.0515 88.2049 94.1404 88.159 94.2199L88.089 94.2999L87.919 94.3599C88.129 94.2899 87.999 94.3599 88.019 94.3599H87.919C87.8243 94.2961 87.7428 94.2146 87.679 94.1199C87.2173 93.4029 86.9296 92.5879 86.839 91.7399C86.669 88.0799 86.609 84.4199 86.769 80.7399C86.859 78.5299 86.769 76.2399 86.769 73.9799V66.4499V61.8699C86.769 59.5499 86.769 57.2299 86.769 54.9299C86.769 53.1499 86.599 51.3999 86.519 49.6299C86.519 49.2399 86.519 48.8599 86.459 48.4599C86.459 47.0099 86.579 46.5199 87.059 46.2299C87.179 46.1699 87.289 46.0799 87.399 46.0399C87.769 45.9299 88.049 46.5199 88.139 47.5699C88.429 50.6999 88.489 54.0299 88.509 57.3599V64.8199H88.359Z" fill="white"/>
<path d="M33.6289 86.13L33.7289 83.53L33.8789 80.93C33.8789 80.3 33.8789 79.67 33.8789 79.04C34.0189 76.8 34.1889 74.57 34.2589 72.33C34.2589 71.33 34.2589 70.33 34.1889 69.33C34.0043 68.0729 34.0449 66.7929 34.3089 65.55C34.4189 65.15 34.8889 65.17 35.4489 65.46C35.7777 65.6346 36.0834 65.8496 36.3589 66.1C36.6725 66.3504 36.8855 66.7054 36.9589 67.1C37.2057 68.3723 37.3793 69.6578 37.4789 70.95C37.5151 72.2515 37.4717 73.5539 37.3489 74.85C37.2942 76.4349 37.3443 78.0217 37.4989 79.6C37.4989 81.35 37.5589 83.1 37.4989 84.85V88.08C37.4989 89.71 37.4389 91.35 37.4989 92.97C37.5789 94.22 37.9189 95.45 38.0789 96.69C38.1328 96.9611 38.1729 97.2348 38.1989 97.51C38.2424 97.9077 38.1274 98.3066 37.8789 98.62C37.6078 98.8879 37.2567 99.0599 36.8789 99.11C36.6824 99.1708 36.4819 99.2176 36.2789 99.25C35.9353 99.2754 35.5924 99.1926 35.2983 99.0133C35.0042 98.8339 34.7736 98.567 34.6389 98.25C34.1836 97.1835 33.8936 96.0539 33.7789 94.9C33.6289 93.76 33.5689 92.59 33.5189 91.42C33.4589 89.69 33.5189 87.94 33.5189 86.19L33.6289 86.13Z" fill="white"/>
<path d="M55.9986 81.0501L56.0786 77.6301L56.2186 74.2101C56.2186 73.3801 56.2186 72.5501 56.2186 71.7201C56.3386 68.7801 56.4986 65.8501 56.5586 62.9101C56.5586 61.6101 56.5586 60.3101 56.4986 59.0201C56.3363 57.3555 56.3665 55.6777 56.5886 54.0201C56.6786 53.5001 57.0886 53.5401 57.5886 53.9501C57.8998 54.1988 58.1727 54.4919 58.3986 54.8201C58.7208 55.1897 58.9292 55.6446 58.9986 56.1301C59.1986 57.8201 59.3986 59.5101 59.4686 61.2101C59.5386 62.9101 59.4686 64.6101 59.3486 66.3201C59.1986 68.3701 59.4386 70.4901 59.4686 72.5801C59.4686 74.8701 59.4686 77.1701 59.4686 79.4701L59.4186 83.7101C59.4186 85.8601 59.4186 88.0101 59.4686 90.1301C59.5386 91.7801 59.8386 93.4001 59.9886 95.0301C59.9886 95.3901 60.0886 95.7401 60.0986 96.1101C60.1495 96.6072 60.052 97.1083 59.8186 97.5501C59.6292 97.8575 59.334 98.0851 58.9886 98.1901C58.8163 98.2651 58.6392 98.3285 58.4586 98.3801C57.8786 98.5101 57.3586 97.9601 57.0086 97.0001C56.2993 94.0538 55.9633 91.0301 56.0086 88.0001C55.9586 85.7101 56.0086 83.4101 56.0086 81.1101L55.9986 81.0501Z" fill="white"/>
<path d="M78.4482 75.22L78.5382 70.75L78.6882 66.27C78.6882 65.19 78.6882 64.1 78.6882 63.01C78.8182 59.18 78.9782 55.35 79.0482 51.51C79.0482 49.81 79.0482 48.11 79.0482 46.42C78.8931 44.2581 78.9232 42.0868 79.1382 39.93C79.2282 39.26 79.6382 39.31 80.1382 39.86C80.4405 40.2071 80.6991 40.59 80.9082 41C81.2045 41.515 81.3854 42.0882 81.4382 42.68C81.6382 44.89 81.8382 47.1 81.8982 49.32C81.9582 51.54 81.8982 53.76 81.7682 56C81.6182 58.67 81.8482 61.44 81.8782 64.18C81.8782 67.18 81.8782 70.18 81.8782 73.18L81.8282 78.72C81.8282 81.52 81.7682 84.33 81.8282 87.11C81.8982 89.27 82.1982 91.38 82.3482 93.51C82.3482 93.98 82.4382 94.44 82.4582 94.92C82.4582 96.68 82.1082 97.25 81.3482 97.63C81.1787 97.7277 81.0014 97.8113 80.8182 97.88C80.2382 98.05 79.7182 97.33 79.3682 96.06C78.6527 92.1516 78.3178 88.1831 78.3682 84.21C78.3682 81.21 78.3682 78.21 78.3682 75.21L78.4482 75.22Z" fill="white"/>
<path d="M113.37 98.2201C113.427 98.2017 113.481 98.1747 113.53 98.1401L113.63 98.0601C113.68 98.0601 113.68 98.0601 113.63 98.0001L113.47 97.9201L113.35 97.8601C113.35 97.8601 113.03 97.7501 112.86 97.6901C112.25 97.5001 111.63 97.3501 111.03 97.1301C108.93 96.3601 106.89 95.4601 104.86 94.5401L102.13 93.3601C100.889 92.9105 99.7628 92.1936 98.8301 91.2601C98.5301 90.9101 98.8901 90.7301 99.3901 90.6401C99.9717 90.5053 100.58 90.5435 101.14 90.7501C103.35 91.6801 105.64 92.7501 107.94 93.8201C109.366 94.4288 110.829 94.9465 112.32 95.3701L113.22 95.6501L113.67 95.7901L113.92 95.8601L114.31 95.9601C114.84 96.0701 115.31 96.2201 115.86 96.3101L117.45 96.5801V96.8501L117.15 97.2701C116.94 97.5501 116.75 97.7901 116.55 98.0401C116.35 98.2901 116.06 98.6301 115.79 98.9101L114.92 99.7301C114.42 100.17 114.06 100.45 113.62 100.81C112.33 101.81 111 102.75 109.75 103.74C108.75 104.5 107.89 105.36 106.98 106.17C106.78 106.35 106.59 106.55 106.39 106.72C105.61 107.36 105.27 107.44 104.74 107.12C104.612 107.055 104.488 106.981 104.37 106.9C104.02 106.61 104.11 106.06 104.61 105.48C106.154 103.783 107.874 102.255 109.74 100.92L111.8 99.4001L112.8 98.6301L113.28 98.2401C113.37 98.1801 113.33 98.2401 113.36 98.2401L113.37 98.2201Z" fill="white"/>
<path d="M72.1399 35.0002C68.8666 36.73 65.4787 38.2335 61.9999 39.5002C60.7299 39.9402 59.4899 40.5002 58.2199 40.8802C53.7204 42.2345 49.1328 43.277 44.4899 44.0002L41.3899 44.4502C40.3899 44.5902 39.3199 44.6802 38.2899 44.7802C36.9699 44.8902 35.6399 44.9702 34.2899 44.9802C32.9489 45.0172 31.6079 44.9099 30.2899 44.6602C29.4499 44.4602 29.6299 44.3402 30.3399 44.2402C30.6899 44.2402 31.1799 44.1102 31.7799 44.0002C32.3799 43.8902 33.0499 43.8302 33.7799 43.7802C35.0999 43.7302 36.4199 43.5202 37.7799 43.3802L39.7799 43.0902C40.4399 43.0102 41.0999 42.9302 41.7799 42.8102C44.4099 42.4102 47.0399 41.9002 49.6599 41.3402C52.8385 40.5895 55.9597 39.6137 58.9999 38.4202C60.6699 37.7402 62.3899 37.1702 63.9999 36.3702C65.6099 35.5702 67.3299 34.9502 68.8999 34.0502L71.8999 32.4902C72.8999 32.0002 73.7999 31.3402 74.7499 30.7702C77.6267 29.014 80.3798 27.0628 82.9899 24.9302C83.9899 24.0502 84.8899 23.1602 85.7999 22.2602L87.1799 20.9202C87.6399 20.4702 88.0399 19.9202 88.4699 19.4902C88.8999 19.0602 89.1999 18.6402 89.5899 18.2302C91.0299 16.6902 91.5899 16.3402 92.4699 16.4702C92.6586 16.4912 92.8456 16.5246 93.0299 16.5702C93.5799 16.7802 93.2999 17.7102 92.3199 18.9702C90.8721 20.9211 89.2486 22.7354 87.4699 24.3902C86.5599 25.2202 85.6299 26.0502 84.6999 26.8802C83.7699 27.7102 82.6999 28.3902 81.6999 29.1502L79.3899 30.8002C78.6299 31.3402 77.7999 31.8002 77.0099 32.2902C75.4099 33.2902 73.8599 34.2902 72.1699 35.1002L72.1399 35.0002Z" fill="white"/>
<path d="M96.4392 12.56V12.42V12.34C96.4392 12.29 96.4392 12.23 96.4392 12.16C96.4392 12.09 96.3592 12.16 96.3092 12.16C96.2089 12.1861 96.1116 12.223 96.0192 12.27C95.5392 12.54 95.0192 12.84 94.5592 13.08C92.7958 13.9114 90.9241 14.4905 88.9992 14.8C88.1392 14.94 87.2792 15.09 86.4292 15.19C85.3384 15.3733 84.2268 15.3969 83.1292 15.26C82.7892 15.26 82.8392 14.9 83.1292 14.56C83.4796 14.1379 83.9688 13.8543 84.5092 13.76C86.6292 13.47 88.6792 13.11 90.7692 12.68C92.0298 12.3448 93.2404 11.8438 94.3692 11.19L95.1092 10.79L96.1992 10.17C96.5992 9.95 96.9792 9.73 97.3592 9.54C97.7093 9.34093 98.0699 9.16068 98.4392 9L98.3092 10.79L98.1792 12.79L98.0692 14.18C97.943 15.6037 97.7022 17.015 97.3492 18.4C97.1142 19.4917 96.7794 20.5595 96.3492 21.59C96.2602 21.8197 96.1567 22.0435 96.0392 22.26C95.5792 23.07 95.2592 23.21 94.7592 23.08C94.6492 23.08 94.5292 23.02 94.4192 22.97C94.0692 22.8 94.0192 22.32 94.2792 21.78C95.0445 20.1268 95.6085 18.3877 95.9592 16.6C96.0792 15.91 96.1992 15.21 96.2692 14.49C96.2692 14.14 96.3392 13.77 96.3692 13.41L96.4292 12.54L96.4392 12.56Z" fill="white"/>
</svg>
