<svg width="128" height="128" viewBox="0 0 128 128" fill="none" xmlns="http://www.w3.org/2000/svg">
<path d="M74.3495 66.8998C73.3495 69.8398 72.4795 72.8498 71.1695 75.8998C70.7214 77.1217 70.1127 78.2785 69.3595 79.3398C69.1295 79.5898 68.9095 79.8398 68.6595 80.0798C68.3529 80.3379 68.0173 80.5594 67.6595 80.7398C66.908 81.1367 66.042 81.2604 65.2095 81.0898C64.4925 80.9236 63.8288 80.5797 63.2795 80.0898C62.8362 79.7216 62.4278 79.3132 62.0595 78.8698C60.7539 77.255 59.5484 75.5618 58.4495 73.7998C57.4495 72.2998 56.4495 70.8498 55.3195 69.4998C54.641 68.645 53.906 67.8365 53.1195 67.0798C52.4715 66.3794 51.6802 65.8269 50.7995 65.4598C50.3995 65.3698 50.1595 64.8198 50.9095 64.2598C51.4181 63.9691 52.0116 63.8631 52.5895 63.9598C53.3227 64.063 54.0141 64.3637 54.5895 64.8298C56.4607 66.4362 58.0968 68.2978 59.4495 70.3598C60.8095 72.2798 62.0495 74.2598 63.3395 76.0798C63.7083 76.6055 64.1269 77.0944 64.5895 77.5398C64.884 77.8799 65.2689 78.1296 65.6995 78.2598C66.0195 78.2598 66.1395 78.2598 66.4795 77.9498C66.8552 77.5456 67.1626 77.0829 67.3895 76.5798C68.0343 75.2341 68.5727 73.8398 68.9995 72.4098L70.3895 67.9098C70.9995 65.9998 71.5595 64.1698 72.2095 62.2998C73.1878 59.4406 74.395 56.665 75.8195 53.9998C76.8821 51.832 78.2271 49.8145 79.8195 47.9998C80.1827 47.6 80.5665 47.2195 80.9695 46.8598C82.5795 45.5698 83.3595 45.5398 84.1695 46.2098C84.3598 46.3541 84.5371 46.5147 84.6995 46.6898C85.1895 47.3098 84.8195 48.1798 83.9595 49.0098C82.6706 50.2999 81.524 51.7248 80.5395 53.2598C79.4693 54.8706 78.5264 56.5624 77.7195 58.3198C76.4553 61.0978 75.3698 63.9536 74.4695 66.8698L74.3495 66.8998Z" fill="white"/>
<path d="M117.36 63.84C117.36 71.16 106.49 75.84 103.36 81.99C100.1 88.28 102.6 99.77 97.01 104.05C91.42 108.33 81.01 102.91 74.01 104.41C67.26 105.87 59.88 115.15 52.82 113.24C47.82 111.9 47.21 101.14 43.09 98.34C38.97 95.54 28.7 98.87 25.65 94.87C22.6 90.87 28.52 81.87 26.87 77.12C25.22 72.37 15 69 15 63.84C15 56.45 25.9 51.84 29.18 45.84C32.53 39.64 30.32 28.13 36.06 23.97C41.8 19.81 52.12 25.48 59.06 23.97C65.85 22.49 73.06 13.03 80.06 14.6C85.06 15.71 85.84 26.43 89.93 29.25C94.02 32.07 104.22 28.89 107.18 32.96C110.14 37.03 104 45.83 105.6 50.59C107.2 55.35 117.36 58.82 117.36 63.84Z" stroke="white" stroke-width="3" stroke-miterlimit="10"/>
<path d="M51.1498 112.87C45.6498 111.57 44.3898 100.55 40.0698 97.9598C35.3498 95.1298 24.9798 98.9598 21.7298 94.8998C18.4798 90.8398 24.3198 81.3698 22.6198 76.3298C20.9198 71.2898 10.5098 67.6698 10.5098 62.2398C10.5098 54.5698 21.8498 49.6398 25.5098 43.1398C29.1698 36.6398 27.3098 24.4698 33.5098 20.1898C39.7098 15.9098 50.2498 21.9298 57.7098 20.9798C64.9198 20.0698 73.7998 11.5798 81.0898 14.7798" stroke="white" stroke-width="3" stroke-miterlimit="10"/>
<path d="M98.9293 25.7499C98.3693 25.7999 97.8493 25.8499 97.3093 25.9499C96.7693 26.0499 96.1593 26.1599 95.5093 26.2099C95.0055 26.2701 94.4953 26.2465 93.9993 26.1399C93.5226 26.0208 93.0807 25.7913 92.7093 25.4699C92.3764 25.1618 92.0931 24.8043 91.8693 24.4099C91.5004 23.6986 91.2376 22.9372 91.0893 22.1499C90.9493 21.4999 90.8093 20.8599 90.6293 20.2699C90.3917 19.5526 90.073 18.8648 89.6793 18.2199C89.5593 18.0199 89.7593 17.8099 90.1393 17.7799C90.3846 17.7635 90.6298 17.8144 90.8484 17.9272C91.0669 18.04 91.2505 18.2104 91.3793 18.4199C92.3793 20.1399 92.5093 21.8999 92.9793 23.2599C93.1035 23.655 93.344 24.0035 93.6693 24.2599C93.9615 24.4742 94.3079 24.6023 94.6693 24.6299C95.7595 24.6073 96.8448 24.4767 97.9093 24.2399C98.6293 24.1499 99.3493 24.0799 100.079 24.0399C101.18 23.9931 102.283 24.0265 103.379 24.1399C104.225 24.196 105.066 24.3028 105.899 24.4599C106.082 24.4821 106.262 24.5188 106.439 24.5699C107.109 24.7599 107.259 24.9899 107.289 25.3599C107.298 25.4396 107.298 25.5201 107.289 25.5999C107.289 25.8399 106.939 26.0199 106.439 26.0099C104.969 25.9399 103.559 25.7499 102.129 25.6799C101.048 25.6339 99.9638 25.6773 98.8893 25.8099L98.9293 25.7499Z" fill="white"/>
<path d="M35.1492 101.48C36.3608 101.707 37.466 102.321 38.2992 103.23C38.5878 103.54 38.8488 103.874 39.0792 104.23C39.7594 105.458 40.3315 106.743 40.7892 108.07L41.4492 109.77C41.7597 110.482 42.0235 111.213 42.2392 111.96C42.3692 112.43 41.4692 112.13 41.0992 111.31C40.4492 109.86 39.8892 108.41 39.3092 106.96C38.939 106.094 38.462 105.277 37.8892 104.53C37.3259 103.749 36.5154 103.182 35.5892 102.92C34.9961 102.76 34.3832 102.686 33.7692 102.7C32.8 102.719 31.8366 102.853 30.8992 103.1C30.1592 103.29 29.4592 103.59 28.7392 103.84L28.2492 104C27.6392 104.15 27.4092 104.09 27.1992 103.79C27.1492 103.72 27.0992 103.65 27.0592 103.58C26.9492 103.33 27.1492 103.05 27.5592 102.85C28.8503 102.209 30.2282 101.761 31.6492 101.52C32.8047 101.285 33.9921 101.251 35.1592 101.42L35.1492 101.48Z" fill="white"/>
</svg>
