<svg width="128" height="128" viewBox="0 0 128 128" fill="none" xmlns="http://www.w3.org/2000/svg">
<path d="M43.5312 27.5201C44.3012 25.9801 44.7513 25.6201 45.2513 25.5901C46.8713 25.5201 48.5313 25.4201 50.1813 25.4001C51.6013 25.4001 53.0313 25.5401 54.4613 25.5501C56.9213 25.5501 59.3913 25.4901 61.8613 25.4301C62.5913 25.4301 63.3213 25.4301 64.0413 25.3801C64.7613 25.3301 65.4413 25.2501 66.1413 25.2201C66.2513 25.2201 66.3812 25.1401 66.4912 25.2201C66.6562 25.509 66.7567 25.8302 66.7861 26.1615C66.8154 26.4929 66.7728 26.8267 66.6613 27.1401C66.6613 27.3001 66.5613 27.5701 66.5013 27.5701C65.9613 27.6201 65.5013 28.9001 64.9613 28.9001C63.8928 28.9344 62.8291 29.0582 61.7812 29.2701C61.356 29.3199 60.9265 29.3199 60.5013 29.2701C59.9613 29.2001 59.4213 29.0301 58.8813 28.9601C58.1313 28.8701 54.6412 28.8101 51.2812 28.6901C49.6013 28.6301 47.9512 28.5501 46.6912 28.4501C45.9462 28.4204 45.2043 28.3369 44.4713 28.2001C44.1311 28.0131 43.8154 27.7847 43.5312 27.5201V27.5201Z" fill="white"/>
<path d="M47 37.3204C47.63 35.7504 48 35.4004 48.35 35.3204C49.47 35.3204 50.59 35.1804 51.73 35.1604C52.73 35.1604 53.73 35.3104 54.73 35.3104C56.45 35.3104 58.17 35.2304 59.9 35.1704C60.41 35.1704 60.9 35.1704 61.43 35.1704C61.9036 35.0904 62.3808 35.0336 62.86 35.0004C62.94 35.0004 63.03 34.9204 63.11 35.0004C63.3479 35.6125 63.3898 36.2834 63.23 36.9204C63.23 37.0804 63.16 37.3504 63.12 37.3604C62.74 37.3604 62.45 38.6804 62.05 38.6804C61.2947 38.7081 60.5457 38.8291 59.82 39.0404C59.5254 39.0904 59.2246 39.0904 58.93 39.0404C58.55 38.9704 58.17 38.8004 57.78 38.7304C57.39 38.6604 54.78 38.6004 52.44 38.4804C51.25 38.4204 50.07 38.3304 49.17 38.2204C48.6354 38.1794 48.1061 38.0856 47.59 37.9404C47.41 37.8504 47.25 37.5904 47 37.3204Z" fill="white"/>
<path d="M14.3409 22.7203C14.4285 22.4366 14.6252 22.1992 14.8877 22.0605C15.1502 21.9217 15.4571 21.8929 15.7409 21.9803C18.6609 22.8803 13.3909 25.7803 14.3409 22.7203Z" stroke="white" stroke-width="0.95" stroke-miterlimit="10"/>
<path d="M85.1807 31.5802C85.2683 31.2965 85.465 31.0591 85.7275 30.9203C85.9901 30.7816 86.297 30.7527 86.5807 30.8402C89.5007 31.7502 84.2307 34.6502 85.1807 31.5802Z" stroke="white" stroke-width="0.95" stroke-miterlimit="10"/>
<path d="M97.1514 38.0504C97.239 37.7667 97.4357 37.5293 97.6982 37.3906C97.9608 37.2518 98.2677 37.223 98.5514 37.3104C101.471 38.2204 96.2014 41.1204 97.1514 38.0504Z" fill="white"/>
<path d="M45.9418 69.17C46.0093 69.0393 46.1021 68.9232 46.2148 68.8286C46.3275 68.734 46.4579 68.6627 46.5985 68.619C46.739 68.5753 46.8868 68.5599 47.0333 68.5738C47.1798 68.5877 47.3221 68.6306 47.4518 68.7C50.1618 70.11 44.4518 72 45.9418 69.17Z" stroke="white" stroke-width="0.95" stroke-miterlimit="10"/>
<path d="M22.0013 55.0801C22.1397 54.8181 22.3756 54.6209 22.658 54.5311C22.9405 54.4413 23.2469 54.4661 23.5113 54.6001C26.1913 56.0001 20.4913 57.9201 22.0013 55.0801Z" fill="white"/>
<path d="M76.1708 74.67L72.8308 69.5C72.4208 68.88 71.9608 68.29 71.5708 67.65C70.1808 65.41 68.8308 63.15 67.4208 60.93C66.8008 59.93 66.1108 59 65.4208 58.08C64.4959 56.9104 63.6855 55.6546 63.0008 54.33C62.8108 53.91 63.0908 53.75 63.6408 53.81C63.9838 53.8483 64.3201 53.9324 64.6408 54.06C65.0492 54.1865 65.4156 54.4215 65.7008 54.74C66.2108 55.32 66.7008 55.9 67.2108 56.49C67.7208 57.08 68.0908 57.73 68.5208 58.36C69.3608 59.64 70.1508 60.94 70.9008 62.29C71.8508 63.9 73.0008 65.4 74.0708 67L77.4508 72.16C78.1508 73.22 78.8508 74.28 79.5708 75.31C80.6608 76.89 81.7408 78.48 82.9308 79.95C83.8583 81.0605 84.8606 82.1063 85.9308 83.08C86.1597 83.2806 86.3767 83.4943 86.5808 83.72C86.7488 83.8769 86.8997 84.0512 87.0308 84.24C87.1295 84.3594 87.2073 84.4946 87.2608 84.64C87.3001 84.8818 87.3268 85.1255 87.3408 85.37C87.362 85.4801 87.3956 85.5874 87.4408 85.69C87.7108 85.99 86.5908 86.34 85.6708 85.82C84.4157 85.0865 83.3043 84.1309 82.3908 83C81.3908 82 80.5708 80.86 79.7308 79.75C78.4708 78.09 77.3008 76.37 76.1208 74.67H76.1708Z" fill="white"/>
<path d="M87.731 80.0703C88.1179 81.0781 88.4255 82.1146 88.651 83.1703C88.7833 83.7708 88.8204 84.3883 88.761 85.0003C88.7309 85.1997 88.6875 85.3968 88.631 85.5903C88.5401 85.8117 88.4261 86.0228 88.291 86.2203C88.0327 86.5717 87.6883 86.8506 87.291 87.0303C86.8835 87.2 86.4365 87.2519 86.001 87.1803C85.6543 87.1263 85.3174 87.0218 85.001 86.8703C84.4724 86.5975 83.9788 86.2618 83.531 85.8703C82.7164 85.1808 81.9605 84.4249 81.271 83.6103C80.271 82.4503 79.331 81.2803 78.461 80.0703C75.361 75.9103 72.531 71.4603 69.781 67.0703C68.561 65.0703 67.291 63.1803 66.011 61.2803C64.391 58.8303 62.731 56.4003 61.311 53.8203C60.881 53.0003 61.071 53.0103 61.761 53.4703C62.8947 54.2056 63.9069 55.1132 64.761 56.1603C66.6123 58.5433 68.3251 61.0307 69.891 63.6103C71.4576 66.1703 73.0376 68.7337 74.631 71.3003C76.491 74.3803 78.821 77.3003 80.961 80.3003C82.087 81.9125 83.4069 83.3802 84.891 84.6703C85.621 85.2503 86.481 85.5703 86.731 85.2403C87.141 85.0603 87.031 84.0203 86.801 83.1103C86.0961 80.7579 85.1546 78.4829 83.991 76.3203C82.281 72.9603 80.411 69.6403 78.461 66.4203C76.951 63.9203 75.281 61.5803 73.691 59.1703L72.621 57.5903C71.321 55.5903 71.131 54.8203 71.301 54.1103C71.3255 53.9468 71.3657 53.7861 71.421 53.6303C71.641 53.2203 72.421 53.8403 73.591 55.2003C76.8348 59.5411 79.7783 64.0984 82.401 68.8403C84.4396 72.4542 86.2369 76.1991 87.781 80.0503L87.731 80.0703Z" fill="white"/>
<path d="M60.5206 52.8602C63.7169 52.1519 66.6969 50.6876 69.2106 48.5902C71.734 46.4695 73.7414 43.8021 75.0806 40.7902C76.0443 38.5633 76.6646 36.2031 76.9206 33.7902C77.1124 31.6736 77.0486 29.5416 76.7306 27.4402C76.3328 25.3444 75.6604 23.3101 74.7306 21.3902C73.7377 19.5144 72.4816 17.7903 71.0006 16.2702C69.4586 14.7787 67.7108 13.5159 65.8106 12.5202C64.1045 11.6388 62.2981 10.9673 60.4306 10.5202C58.5653 10.105 56.6615 9.88717 54.7506 9.87019C49.866 9.89932 45.0928 11.333 41.0006 14.0002C39.7406 14.8202 39.5206 14.3102 40.2906 13.0802C41.6937 11.1295 43.7005 9.69556 46.0006 9.00019C51.1811 7.28565 56.7595 7.18105 62.0006 8.70019C67.3087 10.1414 71.9223 13.4419 75.0006 18.0002C76.8286 20.7542 78.0804 23.8497 78.6806 27.1002C79.3042 30.5278 79.1963 34.0485 78.3639 37.4315C77.5315 40.8145 75.9935 43.9833 73.8506 46.7302C72.7151 48.1406 71.431 49.4247 70.0206 50.5602C68.5923 51.6749 67.0425 52.6243 65.4006 53.3902C61.3284 55.2202 56.8226 55.8649 52.4006 55.2502C46.4658 54.5305 41.0166 51.6118 37.1287 47.0704C33.2408 42.529 31.197 36.695 31.4006 30.7202C31.4262 29.5902 31.5366 28.4637 31.7306 27.3502C31.9751 25.8634 32.4296 24.419 33.0806 23.0602C33.3567 22.4188 33.8114 21.8703 34.3906 21.4802C34.5786 21.3441 34.7796 21.2269 34.9906 21.1302C35.5906 21.0102 34.9906 22.5702 34.2906 25.3302C33.1997 29.515 33.2828 33.9195 34.5306 38.0602C35.791 42.2642 38.3369 45.9677 41.8106 48.6502C44.4335 50.6657 47.4658 52.0826 50.6946 52.8012C53.9234 53.5199 57.2705 53.523 60.5006 52.8102L60.5206 52.8602Z" fill="white"/>
<path d="M90.7318 69.4602C90.2181 68.3528 89.5772 67.3091 88.8218 66.3502C88.5386 66.0398 88.2346 65.7492 87.9118 65.4802C87.4403 65.0116 86.8595 64.6679 86.2218 64.4802C85.5562 64.316 84.8555 64.3685 84.2218 64.6302C83.5967 64.8786 83.0335 65.2609 82.5718 65.7502C81.9318 66.3602 81.4618 67.1302 80.7618 67.7502C80.5518 67.9102 80.0718 67.5902 79.7618 67.0502C79.5885 66.7894 79.4961 66.4833 79.4961 66.1702C79.4961 65.8571 79.5885 65.5509 79.7618 65.2902C80.4688 64.3812 81.3324 63.6057 82.3118 63.0002C83.39 62.3524 84.6529 62.0815 85.9018 62.2302C86.6574 62.337 87.3904 62.5667 88.0718 62.9102C88.3918 63.0802 88.6718 63.2802 88.9718 63.4702C89.2718 63.6602 89.5018 63.9102 89.7518 64.1302C90.7424 65.1478 91.581 66.3031 92.2418 67.5602C92.6518 68.3002 93.0118 69.0602 93.3518 69.8202C93.8718 70.9802 94.2918 72.1702 94.7318 73.3402C95.0718 74.2502 95.5018 75.1202 95.8318 76.0402C95.9155 76.2396 95.989 76.4432 96.0518 76.6502C96.2718 77.4302 96.1418 77.7302 95.5918 77.9902C95.4665 78.057 95.3361 78.1138 95.2018 78.1602C94.9765 78.2201 94.7368 78.1913 94.5321 78.0796C94.3274 77.968 94.1734 77.782 94.1018 77.5602C93.3818 76.0802 92.8318 74.4902 92.2118 72.9002C91.7653 71.7263 91.2545 70.5779 90.6818 69.4602H90.7318Z" fill="white"/>
<path d="M100.28 73.9201C99.8913 72.9406 99.43 71.9914 98.9004 71.0801C98.7004 70.7501 98.4504 70.4701 98.2304 70.1601C97.5763 69.0734 96.6488 68.1769 95.5404 67.5601C95.0708 67.3594 94.5519 67.3037 94.0504 67.4001C93.4241 67.6247 92.81 67.8817 92.2104 68.1701C91.9904 68.2301 91.6304 67.7701 91.4904 67.1701C91.3803 66.8872 91.3687 66.5754 91.4576 66.2851C91.5465 65.9948 91.7307 65.7429 91.9804 65.5701C93.0012 65.0394 94.1738 64.8769 95.3004 65.1101C96.3361 65.3544 97.2758 65.9009 98.0004 66.6801C98.8163 67.4517 99.5688 68.2877 100.25 69.1801C100.921 70.1549 101.506 71.1854 102 72.2601C102.3 72.9101 102.56 73.5701 102.82 74.2601C103.21 75.2601 103.52 76.2601 103.82 77.2601C104.08 78.0501 104.44 78.7901 104.7 79.6101C104.764 79.7869 104.818 79.9672 104.86 80.1501C105.01 80.8501 104.86 81.1501 104.26 81.3001C104.12 81.3001 103.99 81.3801 103.85 81.4001C103.644 81.4189 103.437 81.3732 103.258 81.2693C103.079 81.1654 102.937 81.0085 102.85 80.8201C102.31 79.6201 101.85 78.2801 101.39 76.9301C101.04 75.9301 100.68 74.9301 100.24 73.9301L100.28 73.9201Z" fill="white"/>
<path d="M111.901 95.2904C111.761 93.2404 111.561 91.2004 111.241 89.1704C111.121 88.4404 110.941 87.7104 110.801 86.9804C110.399 84.4138 109.649 81.9141 108.571 79.5504C108.121 78.5759 107.433 77.73 106.571 77.0904C106.085 76.7766 105.519 76.61 104.941 76.6104C104.654 76.6293 104.369 76.6762 104.091 76.7504C103.951 76.7504 103.801 76.8104 103.651 76.8604L103.191 77.0304C102.801 77.1504 102.481 76.6704 102.581 76.0304C102.634 75.6151 102.816 75.2268 103.101 74.9204C103.48 74.5151 103.998 74.2685 104.551 74.2304C105.661 74.13 106.772 74.42 107.691 75.0504C108.114 75.3396 108.503 75.675 108.851 76.0504C109.157 76.3922 109.441 76.7529 109.701 77.1304C110.626 78.5488 111.302 80.1146 111.701 81.7604C112.191 83.6404 112.791 85.5304 113.151 87.4504C113.541 89.5504 113.801 91.6704 114.001 93.7804C114.111 95.0804 114.211 96.3804 114.281 97.6804C114.391 99.6804 114.411 101.68 114.461 103.6C114.461 105.12 114.631 106.6 114.641 108.14C114.641 108.48 114.641 108.8 114.641 109.14C114.581 110.4 114.351 110.79 113.731 110.98C113.594 111.03 113.453 111.07 113.311 111.1C112.841 111.1 112.521 110.61 112.481 109.73C112.321 107.11 112.291 104.36 112.201 101.59C112.121 99.5304 112.041 97.4504 111.851 95.3904L111.901 95.2904Z" fill="white"/>
<path d="M83.2718 100.34C80.8423 97.8026 78.6249 95.0701 76.6418 92.1703C75.9183 91.1126 75.2507 90.0178 74.6418 88.8903C73.4841 86.8504 72.7463 84.5996 72.4718 82.2703C72.3842 81.6149 72.4275 80.9486 72.5992 80.3101C72.7708 79.6716 73.0674 79.0734 73.4718 78.5503C73.9663 78.0019 74.6398 77.6475 75.3718 77.5503C76.064 77.4922 76.7583 77.6345 77.3718 77.9603C78.3014 78.4589 79.1592 79.0813 79.9218 79.8103C80.6718 80.5003 81.3818 81.2003 82.0418 81.9103C82.9118 82.8303 83.7618 83.7403 84.6118 84.6103C85.0518 85.0403 85.4718 85.4603 85.9018 85.8403C86.2671 86.1921 86.6943 86.4735 87.1618 86.6703C87.2492 86.6874 87.3335 86.7178 87.4118 86.7603C87.4762 86.804 87.5252 86.867 87.5518 86.9403C87.5518 87.0603 87.5518 87.3803 87.1018 87.5503C86.5352 87.7285 85.9247 87.7073 85.3718 87.4903C84.6797 87.2602 84.043 86.8891 83.5018 86.4003C81.5018 84.5803 79.9018 82.6403 78.1718 81.0003C77.5127 80.2773 76.6638 79.7541 75.7218 79.4903C75.5649 79.4808 75.4079 79.5085 75.2637 79.571C75.1195 79.6336 74.9921 79.7292 74.8918 79.8503C74.5987 80.1733 74.4014 80.5715 74.3218 81.0003C74.1621 82.3971 74.3977 83.8107 75.0018 85.0803C75.5526 86.4876 76.2217 87.8458 77.0018 89.1403C78.7911 92.0188 80.8793 94.7003 83.2318 97.1403C84.6715 98.6782 86.1902 100.14 87.7818 101.52C90.1905 103.634 92.7507 105.57 95.4418 107.31C97.6438 108.836 99.2678 111.059 100.052 113.62C100.227 114.167 100.364 114.725 100.462 115.29C100.614 116.02 100.645 116.77 100.552 117.51C100.523 117.717 100.459 117.916 100.362 118.1C100.259 118.251 100.141 118.392 100.012 118.52C99.8918 118.63 99.7918 118.77 99.7018 118.84C99.4318 119.1 98.7018 118.27 98.4618 116.84C98.113 114.842 97.3389 112.943 96.1918 111.27C95.5979 110.487 94.894 109.793 94.1018 109.21L93.4818 108.77L92.7518 108.27C92.2518 107.944 91.7618 107.61 91.2818 107.27C88.3947 105.204 85.6973 102.885 83.2218 100.34H83.2718Z" fill="white"/>
<path d="M34.7613 48.9104C37.0771 51.738 40.0553 53.9501 43.4313 55.3504C44.0413 55.6304 44.6913 55.8004 45.3213 56.0204C45.9513 56.2404 46.6113 56.3704 47.2613 56.5304C51.9194 57.6499 56.8097 57.3006 61.2613 55.5304C63.2278 54.733 65.0594 53.6368 66.6913 52.2804C68.721 50.4726 70.5605 48.4622 72.1813 46.2804C72.7313 45.6304 73.1813 46.0104 73.1813 46.9204C73.1775 47.4999 73.0761 48.0746 72.8813 48.6204C72.5989 49.3444 72.2041 50.0194 71.7113 50.6204C67.7575 55.3113 62.1573 58.31 56.0613 59.0004C52.4238 59.4444 48.7345 59.1726 45.2013 58.2004C41.3343 57.0671 37.8022 55.0076 34.9113 52.2004C33.1442 50.48 31.6683 48.484 30.5413 46.2904C29.682 44.6195 29.053 42.84 28.6713 41.0004C28.5582 40.553 28.4747 40.0987 28.4213 39.6404C28.3613 39.1804 28.2813 38.7204 28.2313 38.2604C28.148 37.3362 28.1247 36.4076 28.1613 35.4804C28.2595 32.6156 28.9221 29.7985 30.1113 27.1904C30.3742 26.6163 30.6714 26.0587 31.0013 25.5204C32.2513 23.5204 33.0013 23.0704 33.6913 23.0704C33.8573 23.0495 34.0253 23.0495 34.1913 23.0704C34.6613 23.2304 34.2713 24.0704 33.4513 25.4404C30.8663 29.4878 29.8031 34.3218 30.4513 39.0804C30.9783 42.6724 32.4793 46.0513 34.7913 48.8504L34.7613 48.9104Z" fill="white"/>
</svg>
