<svg width="128" height="128" viewBox="0 0 128 128" fill="none" xmlns="http://www.w3.org/2000/svg">
<path d="M66.6097 116C66.2397 116.09 66.0297 115.85 65.6097 115.62C65.4797 115.54 65.2897 115.25 65.4197 115.14C65.5438 115.028 65.6777 114.928 65.8197 114.84L66.2197 114.63C67.3876 114.416 68.5809 114.379 69.7597 114.52C70.5636 114.629 71.3521 114.83 72.1097 115.12C72.901 115.417 73.6697 115.772 74.4097 116.18C74.8025 116.387 75.1743 116.631 75.5197 116.91C75.7111 117.039 75.8917 117.182 76.0597 117.34L76.4197 117.7C76.5659 117.827 76.6998 117.968 76.8197 118.12C77.0065 118.372 77.1641 118.643 77.2897 118.93C77.4444 119.182 77.5623 119.455 77.6397 119.74C77.6397 120.21 77.7997 120.62 77.8397 121.1L77.9197 121.8C77.9335 121.977 77.9335 122.154 77.9197 122.33C76.8406 122.44 75.7753 122.657 74.7397 122.98L74.3897 123.09C74.2974 123.128 74.2126 123.182 74.1397 123.25C73.5626 123.528 72.9597 123.749 72.3397 123.91C71.8997 124.02 71.4797 124.25 71.1197 124.35C70.8718 124.427 70.6174 124.48 70.3597 124.51C69.2508 124.58 68.1386 124.58 67.0297 124.51C66.8697 124.51 66.6997 124.51 66.5497 124.4C66.257 124.194 65.908 124.082 65.5497 124.08C65.0614 124.011 64.5901 123.851 64.1597 123.61C63.9397 123.5 63.7797 123.21 63.6097 123.03C63.4397 122.85 63.6597 122.64 63.7397 122.61C63.8197 122.58 63.8597 122.38 63.8897 122.27C63.8841 122.227 63.8841 122.183 63.8897 122.14C64.0297 122.084 64.1733 122.037 64.3197 122C64.6005 121.961 64.8779 121.901 65.1497 121.82C65.7397 121.72 66.3297 121.53 66.4497 121.52L66.9797 121.45C67.2897 121.45 67.6997 121.37 68.1397 121.28C68.8146 121.152 69.4822 120.989 70.1397 120.79C70.3486 120.76 70.5608 120.76 70.7697 120.79C70.9321 120.774 71.0927 120.744 71.2497 120.7L72.2497 120.38L73.7097 119.87C73.7697 119.87 73.8997 119.81 73.8697 119.87C73.8397 119.93 73.8697 119.87 74.0397 119.97C74.0264 119.924 74.0264 119.876 74.0397 119.83V119.74C74.0397 119.68 74.0997 119.74 73.9097 119.56C73.5803 119.259 73.2219 118.991 72.8397 118.76C72.7693 118.708 72.7055 118.648 72.6497 118.58C72.5694 118.506 72.4823 118.439 72.3897 118.38C71.3938 117.778 70.3206 117.314 69.1997 117C68.9397 117 67.7597 116.34 67.4497 116.34C67.3011 116.285 67.16 116.211 67.0297 116.12C66.899 116.053 66.7562 116.012 66.6097 116V116Z" fill="white"/>
<path d="M45.3597 30.18C44.9192 29.7251 44.6505 29.1312 44.5997 28.5C44.5954 28.4511 44.6044 28.402 44.6259 28.3579C44.6473 28.3138 44.6804 28.2764 44.7215 28.2497C44.7626 28.2229 44.8103 28.2079 44.8593 28.2062C44.9083 28.2045 44.9568 28.2162 44.9997 28.24C45.3467 28.4748 45.6806 28.7285 45.9997 29C46.5576 29.569 47.0818 30.17 47.5697 30.8C48.269 31.6652 48.8663 32.6081 49.3497 33.61C50.0226 34.9844 50.2753 36.5267 50.076 38.0439C49.8768 39.5611 49.2346 40.9859 48.2297 42.14C47.273 43.2208 46.1362 44.1275 44.8697 44.82C44.3697 45.13 43.8697 45.39 43.4097 45.64C42.6605 46.0192 41.9835 46.5269 41.4097 47.14C40.911 47.7109 40.6187 48.4329 40.5797 49.19C40.5346 49.4782 40.5346 49.7718 40.5797 50.06C40.5987 50.4231 40.5987 50.7869 40.5797 51.15C40.5836 51.9174 40.52 52.6837 40.3897 53.44C40.2089 54.3047 39.8699 55.1285 39.3897 55.87C39.1016 56.2965 38.7661 56.689 38.3897 57.04C37.649 57.664 36.8484 58.2133 35.9997 58.68C35.2052 59.1498 34.3722 59.5512 33.5097 59.88C33.2729 60.0032 33.0151 60.0812 32.7497 60.11C32.1793 60.1581 31.6159 60.2688 31.0697 60.44C30.2863 60.6215 29.4765 60.6588 28.6797 60.55C28.2864 60.4744 27.9059 60.3431 27.5497 60.16C27.2297 60.02 27.4797 59.77 27.5497 59.75C27.8897 59.75 27.6497 59.52 27.6397 59.4C27.6291 59.3573 27.6291 59.3127 27.6397 59.27C27.8508 59.2291 28.0648 59.2057 28.2797 59.2L28.9197 59.09C29.1497 59.04 29.3897 58.95 29.6297 58.9C30.3564 58.6774 31.0651 58.4 31.7497 58.07C31.7497 58.07 32.1097 57.92 32.6097 57.67C33.2193 57.3656 33.8043 57.0146 34.3597 56.62C34.9389 56.2225 35.4841 55.7777 35.9897 55.29C36.2496 55.0375 36.4749 54.7517 36.6597 54.44C36.8097 54.2 36.9997 53.99 37.1397 53.75C37.4085 53.0871 37.5346 52.3749 37.5097 51.66C37.5097 50.49 37.5797 48.99 37.6197 48.89C37.7065 48.2737 37.8539 47.6674 38.0597 47.08C38.1882 46.7629 38.3455 46.4583 38.5297 46.17C38.7161 45.9013 38.9307 45.6532 39.1697 45.43C39.3597 45.27 39.5097 45.05 39.6897 44.89C41.0759 43.6629 42.6154 42.6209 44.2697 41.79C44.9372 41.3887 45.5462 40.8974 46.0797 40.33C46.1686 40.2227 46.2655 40.1224 46.3697 40.03C46.5036 39.9194 46.6184 39.7877 46.7097 39.64C47.2124 38.8954 47.5206 38.0367 47.6062 37.1423C47.6918 36.248 47.552 35.3465 47.1997 34.52C47.1297 34.32 46.9397 33.71 46.6997 33.08C46.509 32.5691 46.2713 32.077 45.9897 31.61C45.8073 31.1217 45.597 30.6442 45.3597 30.18V30.18Z" fill="white"/>
<path d="M82.2794 59.5803C81.6978 59.0483 81.0186 58.634 80.2794 58.3603C80.0394 58.2603 80.0694 58.0103 80.3894 57.9803C81.05 57.8888 81.7232 57.9751 82.3394 58.2303C82.7652 58.441 83.1378 58.7453 83.4294 59.1203C83.699 59.5245 83.881 59.9807 83.9637 60.4595C84.0464 60.9383 84.0279 61.4291 83.9094 61.9003C83.6533 62.896 83.1394 63.8065 82.4194 64.5403C81.8637 65.0978 81.218 65.5576 80.5094 65.9003C79.6394 66.3703 79.5994 66.4903 79.3594 67.2203C79.1733 68.014 79.0727 68.8253 79.0594 69.6403C79.1168 71.6578 78.9152 73.6742 78.4594 75.6403C78.2747 76.2034 78.0265 76.7436 77.7194 77.2503C77.5598 77.5081 77.3791 77.7523 77.1794 77.9803L76.8694 78.3203L76.5794 78.5903C75.8272 79.3199 74.9992 79.9669 74.1094 80.5203C73.3391 81.008 72.5216 81.4167 71.6694 81.7403C68.794 82.8563 65.7517 83.4816 62.6694 83.5903C62.1594 83.5903 61.6694 83.5903 61.1294 83.6503C59.3992 83.6684 57.6784 83.3945 56.0394 82.8403C54.9172 82.4281 53.885 81.8034 52.9994 81.0003C52.4705 80.5059 52.0128 79.9405 51.6394 79.3203C50.8325 78.0032 50.4421 76.4731 50.5194 74.9303L50.5894 74.3403C50.5894 74.1503 50.6894 73.9503 50.7494 73.7503C50.8592 73.3558 51.017 72.9763 51.2194 72.6203C51.6324 71.9542 52.1768 71.3791 52.8194 70.9303C53.138 70.6772 53.4917 70.4717 53.8694 70.3203C54.6405 70.0801 55.3926 69.7826 56.1194 69.4303C57.07 69.0494 57.9783 68.5701 58.8294 68.0003C59.0194 67.8603 59.2194 67.7203 59.3994 67.5703C59.598 67.4316 59.7707 67.259 59.9094 67.0603C60.1994 66.7203 60.3094 67.0603 60.2494 67.1903C60.0794 67.6603 60.3794 67.3703 60.5094 67.3703C60.6394 67.3703 60.5994 67.3703 60.6094 67.3703C60.5808 67.4731 60.544 67.5734 60.4994 67.6703C60.3769 67.919 60.233 68.1566 60.0694 68.3803C59.5438 69.0163 58.9191 69.5633 58.2194 70.0003C57.4794 70.4703 56.7294 70.8903 56.1394 71.2203C55.5494 71.5503 55.1394 71.8203 55.0294 71.9003C54.6453 72.1215 54.2836 72.3794 53.9494 72.6703C53.6708 72.9272 53.4316 73.2237 53.2394 73.5503C53.1794 73.7403 53.0794 73.9103 53.0294 74.1203C52.9875 74.3318 52.9574 74.5455 52.9394 74.7603C52.9072 75.6766 53.1398 76.5828 53.6094 77.3703C53.8749 77.8578 54.212 78.3027 54.6094 78.6903C54.9294 79.0103 55.2494 79.3203 55.6094 79.6203C55.9312 79.815 56.2652 79.9887 56.6094 80.1403C57.3172 80.4242 58.0554 80.6256 58.8094 80.7403C60.0192 80.9339 61.2448 81.0109 62.4694 80.9703C63.8894 80.9703 65.2994 80.7603 66.7194 80.6403C67.0013 80.6132 67.2795 80.5562 67.5494 80.4703C69.9105 79.916 72.1373 78.8961 74.0994 77.4703C74.3494 77.3003 74.5494 77.0703 74.7794 76.8803C74.9906 76.6985 75.1848 76.4976 75.3594 76.2803C75.6456 75.8433 75.8615 75.3642 75.9994 74.8603C75.9994 74.6603 76.1394 74.4803 76.1894 74.2803C76.2661 74.0217 76.3229 73.7576 76.3594 73.4903C76.5494 72.0603 76.4994 70.4903 76.6494 68.8303C76.713 67.944 76.905 67.0715 77.2194 66.2403C77.4133 65.7405 77.7058 65.2849 78.0794 64.9003C78.4494 64.5496 78.8796 64.2684 79.3494 64.0703C80.031 63.8453 80.6699 63.5073 81.2394 63.0703C81.7928 62.6271 82.2004 62.0279 82.4094 61.3503C82.5099 61.0506 82.5606 60.7364 82.5594 60.4203C82.5579 60.1176 82.4598 59.8233 82.2794 59.5803V59.5803Z" fill="white"/>
<path d="M44.5689 21.1004C39.6762 23.1671 35.2689 26.2325 31.6289 30.1004C28.0025 33.9792 25.1784 38.5365 23.3189 43.5104C19.5353 53.5139 19.7322 64.5876 23.8689 74.4504C25.9386 79.3217 28.9456 83.7387 32.7189 87.4504C40.3275 94.9714 50.505 99.3276 61.1989 99.6404C66.5056 99.7843 71.7886 98.8807 76.7458 96.9812C81.703 95.0817 86.2372 92.2236 90.0889 88.5704C93.9312 84.9045 96.9925 80.4996 99.0889 75.6204C101.182 70.7478 102.303 65.513 102.389 60.2104C102.478 54.9149 101.582 49.649 99.7489 44.6804C97.9774 39.6797 95.2615 35.0661 91.7489 31.0904C88.2034 27.139 83.8931 23.948 79.0789 21.7104C69.384 17.2462 58.3785 16.5337 48.1889 19.7104C45.3689 20.5804 46.3489 22.9504 48.9389 22.1204C58.5462 19.114 68.9277 19.784 78.0689 24.0004C82.5759 26.0895 86.6109 29.0733 89.9289 32.7704C93.2105 36.5099 95.7431 40.8452 97.3889 45.5404C99.1112 50.219 99.9554 55.1753 99.8789 60.1604C99.7961 65.1394 98.7431 70.0544 96.7789 74.6304C94.8116 79.1956 91.9445 83.3177 88.3489 86.7504C84.7389 90.1749 80.4888 92.8536 75.8419 94.633C71.1951 96.4125 66.2429 97.2577 61.2689 97.1204C56.2897 96.9944 51.3782 95.9361 46.7889 94.0004C37.5301 90.1027 30.1451 82.7643 26.1889 73.5304C22.3049 64.2627 22.1224 53.8586 25.6789 44.4604C27.4212 39.7976 30.0687 35.5256 33.4689 31.8904C36.8696 28.2711 40.9871 25.4001 45.5589 23.4604C45.9289 23.3425 46.2393 23.0865 46.4255 22.7457C46.6118 22.4049 46.6595 22.0055 46.5589 21.6304C46.3789 21.0004 45.6189 20.6204 44.5689 21.1004Z" fill="white"/>
<path d="M47.6284 10.6402C39.2509 12.7297 31.5812 17.0132 25.4084 23.0502C25.1784 23.2502 26.8484 24.9202 27.0384 24.7202C32.9198 18.9697 40.2271 14.8898 48.2084 12.9002C48.4184 12.8402 47.8484 10.5602 47.6284 10.6402Z" fill="white"/>
<path d="M18.6994 31.27C15.4532 36.2781 13.1362 41.8301 11.8594 47.66C12.5639 48.0195 13.3491 48.1917 14.1394 48.16C15.3613 42.607 17.566 37.3172 20.6494 32.54C20.0906 31.9908 19.4276 31.559 18.6994 31.27Z" fill="white"/>
<path d="M10.6993 56.91C10.5334 62.1541 11.1776 67.3924 12.6093 72.44C13.3982 72.4 14.1676 72.1811 14.8593 71.8C13.4745 66.9932 12.847 62 12.9993 57C12.2439 56.8351 11.4653 56.8046 10.6993 56.91V56.91Z" fill="white"/>
<path d="M17.0702 83.15C20.3571 88.9959 24.8131 94.102 30.1602 98.15C35.4898 102.174 41.5479 105.128 48.0002 106.85C54.464 108.557 61.193 109.022 67.8302 108.22L70.3102 107.89C71.1402 107.8 71.9402 107.55 72.7602 107.39L75.2002 106.85C76.0002 106.63 76.7902 106.35 77.5802 106.1C80.7785 105.149 83.8634 103.851 86.7802 102.23C87.6002 101.79 86.4102 99.7401 85.6602 100.23C82.8737 101.78 79.9262 103.02 76.8702 103.93C76.1102 104.16 75.3602 104.43 74.5902 104.64L72.2602 105.16C71.4802 105.31 70.7202 105.55 69.9202 105.64L67.5602 105.95C61.2017 106.726 54.7537 106.285 48.5602 104.65C42.4096 102.99 36.6374 100.158 31.5602 96.31C26.4714 92.4457 22.2334 87.5745 19.1102 82C18.7502 81.42 16.6802 82.52 17.0702 83.15Z" fill="white"/>
<path d="M23.3184 57.6802C23.3184 58.3102 23.3184 58.9302 23.3984 59.5602V60.0202V60.4002C23.3984 60.4002 23.3984 60.5002 23.3984 60.5102L23.7884 60.6702C24.0484 60.7902 24.3284 60.8802 24.6084 60.9802C25.1688 61.164 25.7444 61.2978 26.3284 61.3802C28.7182 61.7209 31.1553 61.3414 33.3284 60.2902C34.1095 59.8754 34.8612 59.4076 35.5784 58.8902L36.5784 58.0502C36.9284 57.7702 37.2084 57.4402 37.5784 57.1402C38.6385 56.0685 39.4063 54.743 39.8084 53.2902C40.1192 51.7032 40.2533 50.0867 40.2084 48.4702L40.2884 47.7702C40.2884 47.5202 40.3884 47.2702 40.4584 47.0102C40.5582 46.7212 40.6997 46.4483 40.8784 46.2002C41.0624 45.9547 41.2894 45.7447 41.5484 45.5802C42.3684 45.0702 43.0884 44.7402 43.7984 44.3302C45.1945 43.6256 46.4015 42.5969 47.3184 41.3302C48.8784 39.0802 48.6884 35.9502 47.7584 33.3302C47.1155 31.629 46.1928 30.0472 45.0284 28.6502C43.9354 27.2505 42.5759 26.0813 41.0284 25.2102C40.7884 25.0902 40.6384 25.0502 40.5284 24.9802C40.4184 24.9102 40.3784 24.8502 40.3884 24.7702C40.3984 24.6902 40.4584 24.6302 40.6084 24.5602C40.8127 24.4692 41.0348 24.4248 41.2584 24.4302C43.1105 24.5956 44.8286 25.4653 46.0584 26.8602C47.5083 28.3744 48.6706 30.1398 49.4884 32.0702C50.3121 34.0688 50.6381 36.2377 50.4384 38.3902C50.207 40.6416 49.1359 42.7232 47.4384 44.2202C46.6416 44.921 45.7696 45.5314 44.8384 46.0402L43.5184 46.7302C43.3084 46.8402 43.0984 46.9502 42.9284 47.0602C42.7584 47.1702 42.5884 47.2702 42.5284 47.3002C42.4684 47.3302 42.4384 47.4502 42.3584 47.6202C42.2912 47.8416 42.2476 48.0695 42.2284 48.3002C42.1684 48.7902 42.2284 49.3902 42.1684 49.9802C42.2033 51.2568 42.0824 52.5328 41.8084 53.7802C41.4835 55.0676 40.9315 56.2867 40.1784 57.3802C39.7992 57.91 39.3778 58.4083 38.9184 58.8702C38.6884 59.1002 38.4684 59.3402 38.2284 59.5502L37.4884 60.1502C36.953 60.5881 36.3883 60.989 35.7984 61.3502C35.2162 61.7436 34.5965 62.0786 33.9484 62.3502C32.6526 62.9077 31.2808 63.2684 29.8784 63.4202C28.4851 63.5821 27.0752 63.5281 25.6984 63.2602C25.0173 63.1385 24.3481 62.9579 23.6984 62.7202C23.3584 62.6002 23.0484 62.4702 22.6984 62.3202L21.9984 62.0002L21.6584 61.8302C21.5884 61.8302 21.5884 61.7402 21.5784 61.6802V61.4902C21.5284 61.1902 21.4784 60.8502 21.4484 60.5802L21.3784 60.0002C21.3784 59.5902 21.3084 59.1702 21.2884 58.7602C21.2884 57.9302 21.2284 57.1002 21.2884 56.2802C21.3065 54.6295 21.4402 52.9822 21.6884 51.3502C22.0563 48.8715 22.6831 46.4382 23.5584 44.0902L24.2784 42.3602C24.5384 41.7902 24.8284 41.2302 25.0984 40.6702C25.3684 40.1102 25.6984 39.5802 26.0084 39.0402L26.4884 38.2302C26.5884 38.0802 26.7284 37.7402 26.8784 37.4702C28.604 34.0438 30.8244 30.89 33.4684 28.1102C34.0585 27.4919 34.6864 26.9108 35.3484 26.3702C35.8746 25.9446 36.4256 25.5506 36.9984 25.1902C37.5084 24.9302 37.9184 24.7302 38.2684 24.5902C38.7813 24.3737 39.3527 24.3385 39.8884 24.4902C40.0771 24.5323 40.2613 24.5926 40.4384 24.6702C40.6584 24.8202 40.5084 25.1102 40.0984 25.5002C39.8374 25.7258 39.5637 25.9362 39.2784 26.1302C38.9584 26.4002 38.5784 26.6902 38.1484 26.9902C36.872 27.9637 35.678 29.0407 34.5784 30.2102C33.4588 31.4313 32.4199 32.724 31.4684 34.0802C30.5008 35.4544 29.6191 36.8871 28.8284 38.3702L28.5484 38.9202V38.9802C28.5312 39.0296 28.5076 39.0767 28.4784 39.1202L28.3384 39.3602L28.1784 39.6302L27.5384 40.7102C27.0984 41.4202 26.7684 42.2002 26.3784 42.9502C24.2933 47.5718 23.2683 52.6012 23.3784 57.6702L23.3184 57.6802Z" fill="white"/>
<path d="M61.8401 20.19C61.7102 20.1815 61.5799 20.1815 61.4501 20.19C61.3901 20.19 61.3001 20.19 61.2501 20.19C61.2823 20.2246 61.324 20.249 61.3701 20.26L61.7201 20.39L62.6301 20.7C63.0823 20.8603 63.5233 21.0507 63.9501 21.27C64.4743 21.5093 64.9465 21.849 65.3401 22.27C65.6199 22.547 65.8023 22.9072 65.86 23.2967C65.9177 23.6861 65.8475 24.0838 65.6601 24.43L65.4201 24.82C65.3485 24.9323 65.2647 25.0363 65.1701 25.13C64.9865 25.3491 64.7666 25.5352 64.5201 25.68C64.0771 25.9313 63.5867 26.088 63.0801 26.14C62.7006 26.1328 62.3253 26.2206 61.9882 26.3952C61.6512 26.5698 61.3631 26.8258 61.1501 27.14C60.6582 27.8039 60.3542 28.588 60.2701 29.41C60.2494 30.1412 60.4238 30.8646 60.7753 31.5061C61.1268 32.1476 61.6427 32.6839 62.2701 33.06C62.9244 33.5096 63.6378 33.8663 64.3901 34.12C65.147 34.3573 65.9369 34.4721 66.7301 34.46C68.4381 34.408 70.1413 34.2511 71.8301 33.99C72.7525 33.8644 73.6877 33.8644 74.6101 33.99C75.1326 34.0777 75.6284 34.2828 76.0601 34.59C76.417 34.8699 76.7514 35.1775 77.0601 35.51C78.1901 36.62 79.2101 37.76 80.3301 38.78C81.4047 39.821 82.6449 40.676 84.0001 41.31C84.8226 41.6487 85.7132 41.7892 86.6001 41.72C87.5542 41.6463 88.5027 41.5127 89.4401 41.32C90.3708 41.1332 91.2892 40.8894 92.1901 40.59C93.0433 40.3456 93.8483 39.9566 94.5701 39.44L94.7401 39.29C94.7401 39.29 94.8101 39.29 94.8201 39.29C94.8301 39.29 94.9501 39.29 95.0201 39.22C95.0901 39.15 95.1901 39.22 95.3101 39.35C95.3294 39.4558 95.3294 39.5642 95.3101 39.67C95.2833 39.8102 95.2431 39.9475 95.1901 40.08C94.6301 41.26 92.7801 42.45 90.4701 42.99C89.4417 43.2247 88.3997 43.3951 87.3501 43.5L86.5601 43.56C86.3001 43.56 85.9601 43.56 85.6701 43.56C85.3665 43.5469 85.065 43.5033 84.7701 43.43C84.4793 43.384 84.1944 43.3069 83.9201 43.2C82.8382 42.8415 81.8241 42.304 80.9201 41.61C80.0776 40.9714 79.2822 40.2729 78.5401 39.52C77.8001 38.8 77.1101 38.05 76.4301 37.33C75.8962 36.6875 75.2487 36.1485 74.5201 35.74C73.6527 35.596 72.7675 35.596 71.9001 35.74C70.9001 35.84 69.9001 35.98 68.9001 36.06C67.615 36.2197 66.3151 36.2197 65.0301 36.06C63.6885 35.8277 62.4148 35.3019 61.3001 34.52C60.098 33.737 59.2013 32.565 58.7601 31.2C58.5371 30.2102 58.5727 29.1797 58.8634 28.2077C59.1542 27.2356 59.6903 26.3548 60.4201 25.65C60.8931 25.2298 61.4695 24.9433 62.0901 24.82C62.5446 24.759 62.9954 24.6722 63.4401 24.56C63.587 24.5006 63.7223 24.416 63.8401 24.31L64.0001 24.12C64.0368 24.0524 64.0804 23.9887 64.1301 23.93C64.178 23.8648 64.2038 23.7859 64.2038 23.705C64.2038 23.624 64.178 23.5452 64.1301 23.48C63.8869 23.2552 63.6103 23.0697 63.3101 22.93C62.9509 22.746 62.5801 22.5857 62.2001 22.45L61.6101 22.24L60.8201 21.99C59.6455 21.7252 58.5025 21.3363 57.4101 20.83C57.1737 20.659 56.9467 20.4754 56.7301 20.28C56.6706 20.221 56.6201 20.1536 56.5801 20.08C56.5801 19.96 56.5801 19.98 56.6501 19.92C56.7287 19.838 56.8022 19.7511 56.8701 19.66L56.9901 19.5C57.5101 19.38 57.9901 19.25 58.5901 19.14C59.1901 19.03 59.7201 18.93 60.3201 18.85L61.2201 18.73L61.9901 18.66C62.4001 18.66 62.8101 18.6 63.2201 18.59C64.8689 18.5099 66.5215 18.5701 68.1601 18.77C70.7424 19.0562 73.2634 19.748 75.6301 20.82C77.9222 21.9607 80.1105 23.2991 82.1701 24.82C85.4066 27.0294 88.4507 29.5082 91.2701 32.23C91.8701 32.85 92.4701 33.46 93.0401 34.14C95.1101 36.68 95.4001 37.84 95.2801 38.63C95.2678 38.8133 95.2342 38.9945 95.1801 39.17C94.9201 39.56 94.3801 38.44 93.0101 36.67C90.825 33.9847 88.3425 31.5558 85.6101 29.43C82.8198 27.1858 79.887 25.1248 76.8301 23.26C74.5802 21.9628 72.1192 21.0725 69.5601 20.63C68.2687 20.3951 66.9619 20.2548 65.6501 20.21C64.9901 20.21 64.3301 20.21 63.6501 20.21H62.6501L61.8101 20.28L61.8401 20.19Z" fill="white"/>
<path d="M53.9994 81.0502C55.9294 82.1402 58.5294 82.3702 61.1094 82.5602C63.6453 82.8038 66.2018 82.7299 68.7194 82.3402C70.4879 82.0168 72.1825 81.3729 73.7194 80.4402C74.3892 80.0382 75.0188 79.5727 75.5994 79.0502C76.1857 78.5468 76.7215 77.9874 77.1994 77.3802C78.0543 76.0969 78.583 74.6242 78.7394 73.0902C78.8594 72.2902 78.9394 71.4602 79.0194 70.6102C79.0185 69.6724 79.1533 68.7394 79.4194 67.8401C79.5371 67.5458 79.7064 67.2749 79.9194 67.0402C80.1106 66.8481 80.3218 66.6771 80.5494 66.5302L81.6194 65.8102C82.3145 65.36 82.9823 64.8692 83.6194 64.3401C84.7095 63.5132 85.5363 62.3877 85.9994 61.1002C86.1891 60.5616 86.1641 59.9707 85.9294 59.4502C85.6422 58.9099 85.218 58.4547 84.6994 58.1302C84.3417 57.8935 83.9635 57.6894 83.5694 57.5202C83.3694 57.4302 83.1594 57.3502 82.9594 57.2802L82.6494 57.1802C82.573 57.1719 82.4958 57.1719 82.4194 57.1802C81.6053 57.0742 80.7776 57.1704 80.0094 57.4602C78.3721 58.1357 76.9015 59.1594 75.6994 60.4602C75.2994 60.8602 75.0494 60.9602 74.8794 60.8102C74.7094 60.6602 74.6494 60.2702 74.7794 59.7002C75.0461 58.7716 75.5129 57.9126 76.1469 57.1836C76.7809 56.4546 77.5668 55.8731 78.4494 55.4802C79.5505 54.966 80.7543 54.7096 81.9694 54.7302L82.9094 54.8402C83.2519 54.9018 83.5871 54.999 83.9094 55.1302C84.4444 55.3324 84.9627 55.5765 85.4594 55.8602C85.9665 56.1876 86.436 56.5699 86.8594 57.0002C87.3406 57.4729 87.7274 58.0329 87.9994 58.6502C88.2757 59.3414 88.3687 60.0924 88.2694 60.8302C88.1796 61.4689 87.9906 62.0897 87.7094 62.6702C86.6115 64.6047 85.0298 66.2208 83.1194 67.3602C82.3294 67.9102 81.2294 68.5302 81.3294 68.6402C81.2103 68.9812 81.1462 69.339 81.1394 69.7002C81.1394 70.1602 81.0494 70.7702 80.9894 71.2202C80.8703 72.4595 80.6833 73.6913 80.4294 74.9102C80.1431 76.2283 79.603 77.4782 78.8394 78.5902C78.4475 79.1275 78.0091 79.6295 77.5294 80.0902C77.0726 80.5522 76.5883 80.9863 76.0794 81.3902C75.0521 82.2014 73.9223 82.8739 72.7194 83.3902C70.1175 84.4065 67.3424 84.9058 64.5494 84.8602C63.1794 84.8602 61.8294 84.8002 60.4894 84.7002C59.124 84.615 57.7648 84.448 56.4194 84.2002C54.6618 83.905 53.0149 83.1455 51.6494 82.0002C50.9492 81.3705 50.4107 80.5817 50.0794 79.7002C49.9266 79.2808 49.7964 78.8535 49.6894 78.4202C49.5953 77.9885 49.5318 77.5507 49.4994 77.1102C49.3702 75.7402 49.6048 74.3604 50.1794 73.1102C50.7552 71.879 51.6281 70.8103 52.7194 70.0002C53.7805 69.2104 54.9767 68.6208 56.2494 68.2602C56.5294 68.1802 56.9694 68.0802 57.0494 68.0302C57.2954 67.9103 57.5326 67.7733 57.7594 67.6202C58.2135 67.306 58.6296 66.9402 58.9994 66.5302C59.593 65.8953 60.0522 65.147 60.3494 64.3302C60.6606 63.3788 61.073 62.4636 61.5794 61.6002C62.1399 60.6666 62.9367 59.8974 63.8894 59.3702C64.8257 58.8813 65.8415 58.563 66.8894 58.4302C67.7609 58.3118 68.64 58.2584 69.5194 58.2702C70.7157 58.2856 71.8977 58.5336 72.9994 59.0002C73.5417 59.1996 73.986 59.6009 74.2394 60.1202C74.3409 60.2925 74.4088 60.4825 74.4394 60.6802C74.4394 61.2202 73.3294 60.8202 71.2494 60.5602C69.6851 60.386 68.1032 60.4534 66.5594 60.7602C65.8869 60.8655 65.2469 61.1218 64.6875 61.5098C64.1281 61.8977 63.6638 62.4072 63.3294 63.0002C62.9306 63.7019 62.5959 64.4382 62.3294 65.2002C61.9375 66.1929 61.3757 67.11 60.6694 67.9102C59.9598 68.7143 59.1176 69.3907 58.1794 69.9102L57.9994 70.0002L57.6994 70.1402L57.2294 70.2702L56.6594 70.4202C56.2948 70.5428 55.9375 70.6864 55.5894 70.8502C54.598 71.2873 53.7141 71.9358 52.9994 72.7502C52.3111 73.5618 51.8611 74.5483 51.6994 75.6002C51.5755 76.6966 51.7126 77.8068 52.0994 78.8402C52.4429 79.7709 53.1201 80.5407 53.9994 81.0002V81.0502Z" fill="white"/>
<path d="M67.1991 114.91V108.16C66.4245 108.08 65.6437 108.08 64.8691 108.16V114.91C65.6446 114.97 66.4236 114.97 67.1991 114.91V114.91Z" fill="white"/>
<path d="M71.3988 121.46C72.3988 121.34 73.3988 121.21 74.3988 121.06C74.8988 120.99 75.3987 120.9 75.8787 120.84L76.6287 120.74C76.6287 120.74 76.7387 120.74 76.7687 120.74C76.7987 120.74 77.0188 120.74 77.0288 120.65C77.0303 120.554 77.0024 120.46 76.9487 120.38C76.9069 120.32 76.86 120.263 76.8088 120.21C76.6525 120.027 76.4856 119.853 76.3088 119.69C75.9588 119.36 75.5887 119.03 75.1987 118.69C73.8355 117.551 72.2514 116.706 70.5459 116.209C68.8405 115.712 67.0506 115.572 65.2888 115.8C63.7246 116.083 62.2445 116.715 60.9588 117.65C59.3242 118.92 57.847 120.38 56.5588 122C56.1388 122.5 55.8888 122.24 55.9188 121.57C56.0151 120.543 56.4233 119.569 57.0888 118.78C58.5905 116.952 60.5309 115.535 62.7288 114.66C64.9611 113.803 67.3987 113.632 69.7288 114.17C72.5266 114.778 75.1369 116.05 77.3387 117.88C77.6624 118.159 77.9696 118.456 78.2588 118.77C78.6878 119.214 79.0484 119.72 79.3288 120.27C79.4589 120.508 79.5393 120.77 79.565 121.04C79.5908 121.31 79.5615 121.582 79.4788 121.84C79.2588 122.38 78.6787 122.45 78.1987 122.7L76.7388 123.02L75.7388 123.23L73.6588 123.56C71.8488 123.84 70.0287 124.05 68.1987 124.22C66.8087 124.35 65.4088 124.42 64.0088 124.44C62.5978 124.45 61.1879 124.363 59.7888 124.18C57.6388 123.91 55.5688 123.63 53.5188 123.45L52.1888 123.37C50.5388 123.24 50.0488 123.13 49.6688 122.45C49.576 122.302 49.4925 122.149 49.4188 121.99C49.2288 121.48 49.9488 120.99 51.2988 120.92C55.2988 120.73 59.1988 121.92 62.8288 122C65.6893 122 68.5463 121.8 71.3787 121.4L71.3988 121.46Z" fill="white"/>
<path d="M79.8194 4.8602C79.6694 4.7402 79.8194 4.5702 80.1794 4.3502C80.346 4.26061 80.5305 4.20936 80.7194 4.2002C80.8394 4.2426 80.9536 4.2997 81.0594 4.3702C81.1194 4.3702 81.5394 5.1702 81.6894 5.3702C81.826 5.61923 81.9302 5.88472 81.9994 6.1602L82.4394 7.7902C82.4596 7.91271 82.4596 8.03768 82.4394 8.1602C82.4233 8.5876 82.4842 9.01442 82.6194 9.4202C82.6258 9.49517 82.6575 9.56574 82.7094 9.6202C82.9089 10.0557 83.0308 10.5227 83.0694 11.0002C83.0694 11.3802 83.0094 11.7602 82.9894 12.1302C82.9894 12.1902 82.9894 12.2402 82.9894 12.3002C82.9894 12.3602 82.8894 12.5502 82.8994 12.6702C82.9187 12.8296 82.9187 12.9908 82.8994 13.1502C82.867 13.2489 82.8161 13.3405 82.7494 13.4202C82.7494 13.5002 82.4494 13.5202 82.4194 13.5002C82.3894 13.4802 82.2294 13.5002 82.1294 13.5602H82.0294C81.7468 13.3 81.4952 13.008 81.2794 12.6902C81.2794 12.6902 80.8394 11.3902 80.7694 11.2502C80.7495 11.1714 80.7495 11.089 80.7694 11.0102C80.7694 11.0102 80.3994 10.0102 80.3994 9.9302C80.3994 9.7102 80.2594 9.5102 80.3994 9.2702C80.414 9.22466 80.414 9.17573 80.3994 9.1302C80.3194 8.76488 80.2692 8.39365 80.2494 8.0202C80.1748 7.84607 80.0914 7.67585 79.9994 7.5102C79.9948 7.47702 79.9948 7.44337 79.9994 7.4102C80.0045 7.36366 80.0045 7.31673 79.9994 7.2702C79.9497 6.84094 79.8661 6.41628 79.7494 6.0002C79.7641 5.75708 79.7641 5.51331 79.7494 5.2702C79.6794 5.1802 79.8794 4.9002 79.8194 4.8602Z" fill="white"/>
<path d="M111.28 28.8004C111.17 28.9804 110.95 28.8004 110.66 28.4104C110.544 28.2124 110.463 27.9959 110.42 27.7704C110.451 27.6281 110.491 27.4878 110.54 27.3504C110.54 27.2904 111.25 26.7304 111.47 26.5104C111.679 26.3145 111.914 26.1495 112.17 26.0204C112.67 25.7504 113.17 25.4404 113.68 25.1504C113.796 25.0818 113.926 25.0376 114.06 25.0204C114.516 24.925 114.948 24.7379 115.33 24.4704C115.39 24.4704 115.47 24.4004 115.5 24.2904C115.899 23.9424 116.371 23.6864 116.88 23.5404C117.33 23.5404 117.76 23.4604 118.2 23.4304C118.26 23.4304 118.31 23.3804 118.39 23.4304C118.47 23.4804 118.69 23.5204 118.82 23.5004C119.002 23.47 119.188 23.47 119.37 23.5004C119.488 23.5373 119.597 23.5986 119.69 23.6804C119.79 23.7404 119.84 24.0804 119.83 24.1204C119.82 24.1604 119.89 24.3804 119.93 24.5104V24.6504C119.714 24.9978 119.455 25.3169 119.16 25.6004L118.96 25.7104L118.54 25.9504C118.305 26.0871 118.078 26.2373 117.86 26.4004C117.8 26.4504 117.7 26.4004 117.61 26.4004C117.52 26.4004 116.61 27.0204 116.61 27.0404C116.4 27.1104 116.23 27.2904 115.93 27.2204C115.87 27.2204 115.84 27.2204 115.8 27.2204C115.441 27.4062 115.066 27.5601 114.68 27.6804C114.488 27.7637 114.301 27.8572 114.12 27.9604H114C113.95 27.9547 113.9 27.9547 113.85 27.9604C113.42 28.2004 112.92 28.3204 112.5 28.6104C112.4 28.6804 111.8 28.7004 111.68 28.7804C111.56 28.8604 111.32 28.7304 111.28 28.8004Z" fill="white"/>
<path d="M86.9987 104.78L81.0987 92.2202C80.2191 92.4606 79.3871 92.8495 78.6387 93.3702L84.5087 105.92C85.3886 105.66 86.227 105.277 86.9987 104.78V104.78Z" fill="white"/>
<path d="M48.3085 21.6404L42.9985 9.86035C42.0987 10.0912 41.246 10.4769 40.4785 11.0004L45.8485 22.8104C46.7174 22.5327 47.5448 22.1391 48.3085 21.6404V21.6404Z" fill="white"/>
<path d="M64.5901 24.2704C64.7901 23.8704 65.0901 23.5204 65.3801 23.0404C65.4028 23.0038 65.4357 22.9746 65.4747 22.9565C65.5138 22.9383 65.5573 22.9321 65.5999 22.9385C65.6425 22.9449 65.6823 22.9636 65.7143 22.9924C65.7464 23.0212 65.7693 23.0587 65.7801 23.1004C65.9099 23.5105 65.9475 23.9441 65.8901 24.3704C65.829 24.666 65.7064 24.9454 65.5301 25.1904C65.2044 25.6284 64.8092 26.0101 64.3601 26.3204C63.9201 26.6604 63.4701 26.9704 63.1501 27.2504C62.8955 27.463 62.6702 27.7085 62.4801 27.9804C62.2224 28.2531 62.0421 28.5896 61.9577 28.9552C61.8733 29.3208 61.888 29.7023 62.0001 30.0604C62.0691 30.2262 62.1563 30.3839 62.2601 30.5304L62.7401 31.0804C62.8874 31.263 63.059 31.4245 63.2501 31.5604C63.4142 31.7111 63.5955 31.842 63.7901 31.9504C64.561 32.4425 65.4669 32.6803 66.3801 32.6304C66.8201 32.6304 67.2701 32.6304 67.7501 32.6304C69.3801 32.5604 71.0901 32.0404 73.0201 31.8204C73.355 31.8103 73.6889 31.7802 74.0201 31.7304C74.435 31.6756 74.8553 31.6756 75.2701 31.7304C75.5901 31.8004 75.9701 31.9104 76.3501 32.0304C76.7323 32.1849 77.1004 32.3722 77.4501 32.5904C78.4033 33.2586 79.2154 34.1081 79.8401 35.0904C80.1858 35.7235 80.5803 36.3287 81.0201 36.9004C81.4577 37.4345 81.9542 37.9176 82.5001 38.3404C82.6685 38.4437 82.8231 38.5681 82.9601 38.7104C83.246 39.0488 83.6251 39.2957 84.0501 39.4204C84.6124 39.6708 85.1903 39.8846 85.7801 40.0604L86.6901 40.3604C86.9701 40.4404 86.8201 40.6304 86.6901 40.6604C86.3901 40.7204 86.6301 40.8304 86.6901 40.9204C86.6994 40.9497 86.6994 40.9811 86.6901 41.0104H86.5001C86.345 41.0411 86.188 41.0612 86.0301 41.0704C85.5408 41.1051 85.0495 41.1051 84.5601 41.0704C83.7222 41.0145 82.9018 40.8043 82.1401 40.4504C82.1401 40.4504 81.7501 40.2604 81.2301 39.9404C80.6059 39.5391 80.023 39.0769 79.4901 38.5604C78.9443 38.0272 78.4489 37.4447 78.0101 36.8204C77.7829 36.5077 77.5392 36.2072 77.2801 35.9204C77.0801 35.7004 76.9301 35.4604 76.7601 35.2504C76.3222 34.8265 75.7863 34.5173 75.2001 34.3504C74.5904 34.2116 73.962 34.1744 73.3401 34.2404C72.5401 34.2404 71.7001 34.5104 70.7801 34.5304C70.5975 34.5417 70.4166 34.5718 70.2401 34.6204C68.5788 35.0667 66.846 35.1822 65.1401 34.9604C64.6653 34.8851 64.1995 34.7611 63.7501 34.5904C63.3033 34.4488 62.8765 34.2506 62.4801 34.0004C62.3294 33.9093 62.1944 33.7945 62.0801 33.6604C61.9301 33.5104 61.7801 33.3404 61.6201 33.2004C61.2444 32.8195 60.9093 32.4005 60.6201 31.9504C60.2584 31.4482 60.0156 30.8703 59.9101 30.2604C59.8261 29.6474 59.8716 29.0235 60.0439 28.4292C60.2161 27.8349 60.5113 27.2834 60.9101 26.8104C61.2978 26.3732 61.7537 26.0018 62.2601 25.7104C62.8701 25.3504 63.4401 25.0704 63.6201 24.9304C63.8001 24.7904 64.5401 24.4804 64.5901 24.2704Z" fill="white"/>
</svg>
