<svg width="128" height="128" viewBox="0 0 128 128" fill="none" xmlns="http://www.w3.org/2000/svg">
<path d="M84.3698 47.48C83.9894 47.2585 83.7072 46.9012 83.5798 46.48C83.5717 46.4512 83.5724 46.4207 83.5818 46.3924C83.5912 46.364 83.6089 46.3391 83.6325 46.3209C83.6561 46.3026 83.6847 46.2918 83.7145 46.2899C83.7443 46.2879 83.774 46.2949 83.7998 46.31C84.0298 46.43 84.2698 46.54 84.5198 46.65C85.5483 47.1971 86.6397 47.6169 87.7698 47.9C88.5217 48.0675 89.2894 48.1547 90.0598 48.16C90.3089 48.1565 90.557 48.1263 90.7998 48.07C90.9159 48.0519 91.0299 48.0217 91.1398 47.98C91.415 47.8703 91.6767 47.7294 91.9198 47.56C92.0933 47.422 92.2985 47.3297 92.5168 47.2912C92.7351 47.2528 92.9596 47.2696 93.1698 47.34C93.2559 47.3752 93.3367 47.4224 93.4098 47.48L93.5698 47.64L93.7098 47.89C93.7423 48.0052 93.769 48.122 93.7898 48.24C93.7898 48.74 93.7898 49.24 93.7198 49.79L93.6298 50.66C93.5801 51.0599 93.51 51.4571 93.4198 51.85C93.0898 53.28 92.8098 54.53 92.5198 55.85C92.4475 56.0752 92.394 56.306 92.3598 56.54C92.3273 56.7135 92.2805 56.8841 92.2198 57.05C92.2198 57.19 92.1098 57.34 92.0298 57.52C91.9805 57.6323 91.9202 57.7395 91.8498 57.84C91.7999 57.9271 91.7394 58.0077 91.6698 58.08C91.6168 58.134 91.56 58.1842 91.4998 58.23C91.3985 58.3022 91.2874 58.3595 91.1698 58.4L91.5198 58.19C91.4068 58.2949 91.2743 58.3764 91.1298 58.43C91.0361 58.4608 90.9384 58.4777 90.8398 58.48C90.663 58.4891 90.487 58.4511 90.3298 58.37C90.2548 58.341 90.1867 58.2967 90.1298 58.24L89.9998 58.14L89.9198 58C89.8622 57.9139 89.8183 57.8195 89.7898 57.72C89.7461 57.5764 89.7159 57.4291 89.6998 57.28C89.6998 57.07 89.6998 56.89 89.6998 56.72V55.78C89.6998 55.22 89.6998 54.78 89.6998 54.63C89.7363 54.1311 89.7026 53.6295 89.5998 53.14C89.5198 52.91 89.5998 52.94 89.4798 52.86C89.3598 52.78 89.3898 52.79 89.2198 52.86C89.111 52.9143 88.9971 52.9579 88.8798 52.99C88.5611 53.0795 88.2736 53.2561 88.0498 53.5C87.6873 53.8528 87.3068 54.1865 86.9098 54.5C86.6976 54.6338 86.4772 54.7541 86.2498 54.86C86.0498 54.96 86.0298 54.8 86.0598 54.72C86.0898 54.64 85.9898 54.59 85.9298 54.57C85.8698 54.55 85.9298 54.57 85.8698 54.57C86.0917 54.0964 86.3965 53.6663 86.7698 53.3C87.1421 52.8136 87.5682 52.3708 88.0398 51.98C88.2849 51.7859 88.5625 51.6369 88.8598 51.54C89.2465 51.3941 89.6731 51.3941 90.0598 51.54C90.5111 51.7295 90.8702 52.0886 91.0598 52.54C91.2973 53.1204 91.4424 53.7346 91.4898 54.36C91.5498 54.86 91.5598 55.22 91.5698 55.36C91.5899 55.6162 91.5899 55.8737 91.5698 56.13V56.65C91.5598 56.8065 91.5598 56.9635 91.5698 57.12C91.5698 57.21 91.5698 57.27 91.5698 57.31C91.5698 57.35 91.4098 57.31 91.2498 57.37L90.9998 57.3C90.957 57.2898 90.9125 57.2898 90.8698 57.3C90.7698 57.39 90.7798 57.37 90.7698 57.39C90.7678 57.3494 90.7545 57.3101 90.7316 57.2766C90.7087 57.2431 90.6769 57.2165 90.6398 57.2L90.8098 57.29C90.7925 57.2229 90.7539 57.1632 90.6998 57.12C90.6291 57.0277 90.5448 56.9468 90.4498 56.88C90.389 56.8423 90.3321 56.7987 90.2798 56.75C90.2098 56.75 90.2798 56.75 90.2798 56.75L90.3598 56.55C90.3598 56.38 90.4698 56.21 90.5098 56.04L90.6698 55.43C90.8698 54.79 90.9698 54.12 91.2398 53.43C91.2836 53.3029 91.3171 53.1725 91.3398 53.04C91.5498 51.91 91.7998 50.67 91.9498 49.63C91.9547 49.5935 91.9547 49.5565 91.9498 49.52C91.9498 49.52 91.9498 49.38 91.9498 49.43C91.9498 49.48 91.9498 49.43 91.9498 49.43H91.8898C91.8252 49.4644 91.7584 49.4945 91.6898 49.52L91.0598 49.67C90.6488 49.7246 90.234 49.7447 89.8198 49.73C89.0356 49.6714 88.2606 49.5237 87.5098 49.29C86.7525 48.9914 86.023 48.6266 85.3298 48.2C85.0598 48.13 84.5398 47.58 84.3698 47.48Z" fill="white"/>
<path d="M91.8405 41.4998C91.2863 41.9519 90.5805 42.1758 89.867 42.1256C89.1535 42.0754 88.486 41.755 88.0005 41.2298C85.7305 38.8598 88.7605 34.7398 91.6905 37.9198C92.1766 38.3795 92.4642 39.0108 92.4923 39.6793C92.5203 40.3478 92.2864 41.0009 91.8405 41.4998V41.4998Z" fill="white"/>
<path d="M26.7201 85.2096C28.6942 77.6405 30.2136 69.9601 31.2701 62.2096C31.6501 59.3796 31.8901 56.5296 32.1601 53.6896C32.6201 48.6896 32.8801 43.6896 32.8601 38.5996C32.8721 33.5751 32.4707 28.5582 31.6601 23.5996C31.3045 21.4035 30.7489 19.2445 30.0001 17.1496C29.637 16.135 29.1783 15.1573 28.6301 14.2296C28.1401 13.3586 27.4557 12.6126 26.6301 12.0496C26.1408 11.7599 25.5734 11.6302 25.0068 11.6786C24.4403 11.727 23.9031 11.9511 23.4701 12.3196C22.4546 13.1423 21.6492 14.1946 21.1201 15.3896C20.5189 16.6312 20.0367 17.927 19.6801 19.2596C19.2881 20.5983 18.9842 21.9612 18.7701 23.3396C18.5801 25.0296 18.2001 24.8696 17.8301 23.3396C17.366 20.6877 17.6642 17.9586 18.6901 15.4696C19.2724 13.9258 20.1486 12.5097 21.2701 11.2996C21.9265 10.6143 22.7206 10.0758 23.6001 9.71958C24.5885 9.34967 25.6717 9.31802 26.6801 9.62958C27.6052 9.9427 28.4371 10.4824 29.1001 11.1996C29.6847 11.8033 30.195 12.4747 30.6201 13.1996C31.3909 14.5699 32.0144 16.0179 32.4801 17.5196C33.363 20.411 33.9822 23.3764 34.3301 26.3796C34.7039 29.3564 34.9275 32.3502 35.0001 35.3496C35.2014 42.6172 34.9643 49.8904 34.2901 57.1296C33.4689 65.0818 32.1631 72.9765 30.3801 80.7696C29.2601 85.5596 28.0001 90.3196 26.5701 94.9996C25.4901 98.5596 24.3101 102.1 23.0201 105.59C22.3654 107.261 21.8894 108.998 21.6001 110.77C21.3396 112.432 21.6952 114.131 22.6001 115.55C23.2877 116.586 24.3412 117.326 25.5501 117.62C26.7896 117.904 28.0836 117.842 29.2901 117.44C31.7601 116.76 33.5801 114.71 34.9501 112.44C35.5358 111.406 36.0568 110.337 36.5101 109.24C37.3901 107.17 37.8701 105.73 38.3201 104.76C38.5906 104.037 39.0294 103.389 39.6001 102.87C39.7901 102.686 39.9977 102.522 40.2201 102.38C40.8101 102.1 40.7201 104.02 39.7401 107.38C39.0103 109.963 37.9196 112.431 36.5001 114.71C35.7123 115.952 34.7336 117.062 33.6001 118C32.3922 118.975 30.9915 119.684 29.4901 120.08C27.9253 120.48 26.2849 120.48 24.7201 120.08C23.8973 119.845 23.1174 119.481 22.4101 119C21.7067 118.495 21.0889 117.88 20.5801 117.18C19.6255 115.795 19.0781 114.17 19.0001 112.49C18.9626 110.971 19.1651 109.455 19.6001 108C20.1401 105.94 20.9101 104.06 21.5401 102.23C22.1701 100.4 22.8201 98.4996 23.4101 96.6196C24.6101 92.8596 25.6901 89.0496 26.6601 85.2196L26.7201 85.2096Z" fill="white"/>
<path d="M90.9202 7.47976C93.0037 7.28201 95.1024 7.30883 97.1802 7.55976C99.3749 7.8376 101.482 8.59556 103.35 9.77976C104.262 10.3923 105.107 11.0995 105.87 11.8898C106.06 12.0898 106.25 12.2798 106.43 12.4898L106.94 13.1698L107.45 13.8598C107.59 14.0998 107.71 14.3498 107.84 14.5898C108.817 16.4677 109.472 18.4957 109.78 20.5898C110.257 23.5113 110.468 26.4701 110.41 29.4298C110.245 34.5566 109.774 39.669 109 44.7398C108.29 49.7398 107.43 54.7398 106.55 59.7398C105.76 64.1598 105.02 68.6198 104.35 73.0198C103.91 75.8398 103.53 78.6798 103.21 81.5098C103.05 82.9198 102.92 84.3398 102.82 85.7398C102.684 87.132 102.637 88.5315 102.68 89.9298C102.85 91.5998 102.47 91.5398 101.79 90.0698C100.922 87.5844 100.615 84.9378 100.89 82.3198C101.39 76.3998 102.31 70.6098 103.31 64.8298C104.31 59.0498 105.31 53.2898 106.31 47.4998C107.515 40.4635 108.028 33.326 107.84 26.1898C107.64 22.3598 107.14 18.3898 105.31 15.2898L104.53 14.2398C104.23 13.8998 103.9 13.5698 103.53 13.2398C102.866 12.6242 102.131 12.0904 101.34 11.6498C99.725 10.7677 97.9367 10.2489 96.1002 10.1298C93.7279 9.98666 91.3474 10.067 88.9902 10.3698L81.7102 11.1598C74.3802 11.9998 67.0002 12.6998 59.5702 12.9298C53.8628 13.1836 48.1442 12.9762 42.4702 12.3098C41.2202 12.1798 40.0002 11.9298 38.7402 11.6998C34.1002 10.6998 32.7402 9.83976 32.0502 8.84976C31.878 8.63502 31.7273 8.40392 31.6002 8.15976C31.5002 7.81976 31.9302 7.69976 32.7902 7.76976C33.6502 7.83976 34.8902 8.17976 36.5302 8.47976C46.1502 10.6098 56.6802 10.5798 67.2102 9.80976C75.0702 9.22976 82.8902 8.21976 90.9102 7.40976L90.9202 7.47976Z" fill="white"/>
<path d="M84.3909 98.6598L73.5509 99.6598C72.2409 99.7898 70.9209 99.9798 69.5509 100.1C64.9009 100.52 60.2209 100.85 55.5509 101.1C53.4709 101.1 51.3809 101.24 49.3209 101.26C47.9909 101.26 46.6609 101.26 45.3209 101.26C43.9809 101.26 42.6709 100.98 41.3209 100.79C40.5009 100.66 40.6209 100.55 41.3209 100.36C42.0209 100.17 43.3209 99.8198 44.8209 99.5898C50.1709 99.4098 55.4709 98.8998 60.8909 98.7498C64.1209 98.6198 67.4709 98.1298 70.7709 97.7498L81.6809 96.6098L88.4009 95.9298C91.7809 95.5698 95.1909 95.2398 98.5509 94.8198C101.21 94.3454 103.922 94.2377 106.611 94.4998C107.227 94.5808 107.836 94.7112 108.431 94.8898C110.681 95.6898 111.161 96.4498 111.151 97.2398C111.167 97.4228 111.167 97.6068 111.151 97.7898C110.971 98.3298 110.071 98.1098 108.781 97.6298C104.911 96.1698 100.221 97.1598 95.2609 97.6298L84.4009 98.7198L84.3909 98.6598Z" fill="white"/>
<path d="M89.2011 117.88C85.2011 118 81.2011 117.95 77.2811 118.03L72.9511 118.15C67.8611 118.21 62.7811 118.27 57.7211 118.64L54.3211 118.92L50.9311 119.1C48.0919 119.173 45.2615 119.447 42.4611 119.92C41.6211 120.1 41.5911 119.71 42.2211 119.12C43.2885 118.265 44.5804 117.737 45.9411 117.6C48.9411 117.21 51.9411 117.17 54.7711 116.99C57.6011 116.81 60.6811 116.53 63.6511 116.47C67.2111 116.4 70.9011 116.15 74.5311 116.04L86.5311 115.73C88.9711 115.66 91.4111 115.54 93.8311 115.31C95.6596 115.141 97.4786 114.881 99.2811 114.53L100.621 114.24C101.039 114.137 101.45 114.007 101.851 113.85C102.656 113.532 103.413 113.104 104.101 112.58C106.17 110.89 107.584 108.531 108.101 105.91C108.251 105.35 108.291 104.79 108.391 104.21C108.651 102.07 108.731 101.37 109.281 100.83C109.388 100.695 109.509 100.571 109.641 100.46C109.851 100.32 110.061 100.46 110.271 100.9C110.405 101.169 110.513 101.45 110.591 101.74C110.682 102.139 110.749 102.543 110.791 102.95C111.008 105.836 110.263 108.713 108.671 111.13C107.026 113.767 104.443 115.683 101.441 116.49C97.4301 117.36 93.3445 117.843 89.2411 117.93L89.2011 117.88Z" fill="white"/>
<path d="M60.38 28.8898C59 28.8898 57.61 28.8298 56.23 28.8398L54.72 28.8998C52.94 28.8998 51.16 28.8998 49.4 29.0698C48.6188 29.1257 47.841 29.2225 47.07 29.3598C46.58 29.4598 46.07 29.5398 45.62 29.6698C45.38 29.6698 45.14 29.7798 44.9 29.8198C44.66 29.8598 44.45 29.9498 44.21 29.9998C43.97 30.0498 43.83 29.8298 43.98 29.4998C44.0931 29.2651 44.2523 29.0556 44.4482 28.8838C44.6441 28.712 44.8725 28.5814 45.12 28.4998C47.1376 27.8536 49.2414 27.5164 51.36 27.4998C52.62 27.4998 53.91 27.2998 55.19 27.2198C56.47 27.1398 57.99 27.1098 59.39 27.0698H61.98C63.29 27.0698 64.6 27.0698 65.9 27.0098C66.9 27.0098 67.9 26.8098 68.9 26.7598C69.12 26.7598 69.33 26.7598 69.55 26.7598C70.37 26.7598 70.6399 26.9198 70.8099 27.3498C70.8099 27.4398 70.9 27.5398 70.93 27.6298C70.9421 27.711 70.9317 27.7941 70.9 27.8699C70.8682 27.9457 70.8164 28.0114 70.75 28.0598C70.5615 28.2373 70.3251 28.3556 70.07 28.3998C69.1754 28.5915 68.2706 28.7317 67.36 28.8198C66.44 28.8898 65.51 28.9198 64.57 28.9398L60.39 28.9898L60.38 28.8898Z" fill="white"/>
<path d="M59.0803 49.2797C57.8603 49.1897 56.6403 49.0797 55.4203 49.0197C54.9803 49.0197 54.5303 49.0197 54.0903 49.0197C52.5203 48.9397 50.9503 48.8597 49.3803 48.8797C48.6854 48.8845 47.9912 48.9245 47.3003 48.9997C46.4203 49.0897 45.5503 49.2297 44.6603 49.2397C44.3803 49.2397 44.3703 48.9797 44.5603 48.6897C44.8245 48.3152 45.2152 48.0488 45.6603 47.9397C47.4732 47.5293 49.3341 47.3712 51.1903 47.4697C52.3003 47.5297 53.4403 47.4097 54.5703 47.4097C55.7003 47.4097 57.0603 47.4097 58.2903 47.4697L60.5803 47.5697C61.7303 47.5697 62.8903 47.6897 64.0403 47.6797C64.9203 47.6797 65.8003 47.5597 66.6803 47.5397H67.2503C67.9703 47.5397 68.1903 47.7097 68.3503 48.1497C68.3503 48.2397 68.4303 48.3397 68.4503 48.4297C68.4617 48.509 68.453 48.5899 68.425 48.665C68.3971 48.7401 68.3508 48.807 68.2903 48.8597C68.1243 49.0278 67.9119 49.1427 67.6803 49.1897C66.8827 49.3622 66.0741 49.4792 65.2603 49.5397C64.4403 49.5397 63.6103 49.5397 62.7803 49.5397L59.0803 49.4097V49.2797Z" fill="white"/>
<path d="M58.8106 38.13C57.8106 38.13 56.8106 38.05 55.8806 38.05C55.5306 38.05 55.1706 38.05 54.8206 38.05C53.5606 38.05 52.3106 38.05 51.0606 38.05C50.5053 38.0627 49.9511 38.1061 49.4006 38.18C48.7006 38.3036 47.9914 38.3672 47.2806 38.37C47.0606 38.37 47.0406 38.12 47.1906 37.83C47.2744 37.6575 47.3934 37.5044 47.5397 37.3804C47.6861 37.2564 47.8566 37.1643 48.0406 37.11C49.4633 36.7178 50.9351 36.5326 52.4106 36.56C53.3006 36.56 54.2106 36.42 55.1106 36.37C56.0106 36.32 57.1106 36.29 58.1106 36.27H59.9306C60.8506 36.27 61.7806 36.27 62.6906 36.27C63.4006 36.27 64.1006 36.07 64.8006 36.02C64.9537 36.0096 65.1074 36.0096 65.2606 36.02C65.8406 36.02 66.0206 36.17 66.1506 36.6C66.1506 36.69 66.2206 36.79 66.2406 36.88C66.2524 36.9561 66.2478 37.0338 66.2271 37.108C66.2064 37.1821 66.1701 37.251 66.1206 37.31C66.0093 37.4755 65.8427 37.596 65.6506 37.65C65.031 37.8508 64.3953 37.998 63.7506 38.09C63.1006 38.16 62.4406 38.19 61.7506 38.21H58.8106V38.13Z" fill="white"/>
<path d="M55.7512 57.9L53.9312 57.78C53.7112 57.78 53.4912 57.78 53.2712 57.78C52.4812 57.78 51.7012 57.69 50.9212 57.68C50.5881 57.6612 50.2542 57.6612 49.9212 57.68C49.4894 57.7604 49.0498 57.7906 48.6112 57.77C48.4712 57.77 48.4512 57.54 48.5312 57.3C48.5682 57.1702 48.6343 57.0506 48.7243 56.9501C48.8144 56.8496 48.9262 56.7709 49.0512 56.72C49.9369 56.4448 50.8659 56.3363 51.7912 56.4C52.349 56.408 52.9067 56.3813 53.4612 56.32C54.0812 56.32 54.6912 56.32 55.3112 56.32H56.4412C57.0112 56.32 57.5912 56.32 58.1512 56.32C58.7112 56.32 59.0212 56.14 59.4512 56.09C59.5443 56.0804 59.6381 56.0804 59.7312 56.09C60.0912 56.04 60.2112 56.2 60.3112 56.56C60.3112 56.65 60.3112 56.72 60.3712 56.8C60.393 56.9347 60.372 57.0728 60.311 57.1949C60.2499 57.3169 60.152 57.4167 60.0312 57.48C59.656 57.662 59.2596 57.7964 58.8512 57.88C58.4472 57.9419 58.0397 57.9786 57.6312 57.99C57.0112 57.99 56.4012 57.99 55.7912 57.99L55.7512 57.9Z" fill="white"/>
<path d="M91.2409 36.9999C90.9723 36.7628 90.6469 36.5995 90.2963 36.5258C89.9457 36.4522 89.5821 36.4708 89.2409 36.5799C88.9818 36.6754 88.7389 36.8104 88.5209 36.9799C88.0937 37.2769 87.7685 37.6984 87.5896 38.1869C87.4106 38.6754 87.3866 39.2072 87.5209 39.7099C87.667 40.1652 87.9771 40.5501 88.3909 40.7899C88.9512 41.0509 89.5427 41.2391 90.1509 41.3499C90.3409 41.4099 90.3709 41.8499 90.1509 42.2799C90.0431 42.5214 89.8574 42.7197 89.6235 42.843C89.3896 42.9663 89.121 43.0075 88.8609 42.9599C87.8363 42.7197 86.9399 42.1019 86.3509 41.2299C86.0716 40.7885 85.8866 40.2942 85.8075 39.7779C85.7283 39.2617 85.7567 38.7346 85.8909 38.2299C86.1604 37.0554 86.878 36.0327 87.8909 35.3799C88.4458 35.0488 89.074 34.86 89.7195 34.8303C90.3651 34.8006 91.0079 34.931 91.5909 35.2099C92.2713 35.56 92.837 36.0979 93.2209 36.7599C93.7783 37.7439 93.9256 38.908 93.6309 39.9999C93.4267 40.8963 92.8908 41.6823 92.1309 42.1999C91.9634 42.3153 91.7861 42.4157 91.6009 42.4999C90.8809 42.7599 90.6009 42.6199 90.4409 42.1799C90.4409 42.0799 90.3609 41.9799 90.3309 41.8799C90.3118 41.7135 90.3461 41.5454 90.4288 41.3999C90.5115 41.2543 90.6383 41.1387 90.7909 41.0699C91.2008 40.8728 91.5431 40.5586 91.7745 40.167C92.0059 39.7754 92.116 39.324 92.0909 38.8699C92.0859 38.5144 92.0059 38.1641 91.8559 37.8418C91.706 37.5195 91.4896 37.2326 91.2209 36.9999H91.2409Z" fill="white"/>
<path d="M92.3896 31.5896C91.2338 31.1487 89.9848 31.0091 88.7602 31.184C87.5356 31.359 86.3757 31.8427 85.3896 32.5896C84.6655 33.1544 84.0345 33.8292 83.5196 34.5896C82.5869 35.9439 82.0787 37.5453 82.0596 39.1896C82.0596 39.3996 82.0596 39.5996 82.0596 39.8096L82.1396 40.4196C82.3197 41.6507 82.8006 42.8185 83.5396 43.8196C84.467 44.997 85.7455 45.8482 87.1896 46.2496C89.0505 46.7209 90.9961 46.7483 92.8696 46.3296C93.4496 46.2296 93.5996 46.7596 93.2196 47.4296C92.925 47.9012 92.5174 48.2917 92.0337 48.5659C91.55 48.8401 91.0055 48.9891 90.4496 48.9996C87.9844 49.0999 85.5595 48.3516 83.5796 46.8796C82.5773 46.1053 81.755 45.1227 81.1696 43.9996C80.8763 43.4548 80.6481 42.8776 80.4896 42.2796L80.2496 41.4096C80.2496 41.1096 80.1796 40.7996 80.1396 40.4996C79.9802 39.0523 80.1131 37.5878 80.5305 36.193C80.948 34.7981 81.6414 33.5013 82.5696 32.3796C83.3938 31.4004 84.4071 30.5974 85.5487 30.0188C86.6904 29.4401 87.937 29.0976 89.214 29.0117C90.4911 28.9258 91.7723 29.0983 92.9812 29.5189C94.19 29.9395 95.3016 30.5996 96.2496 31.4596C97.3188 32.423 98.184 33.5911 98.7937 34.8948C99.4035 36.1985 99.7455 37.6113 99.7996 39.0496C99.9103 41.3168 99.1602 43.542 97.6996 45.2796C97.3795 45.6646 97.0246 46.0195 96.6396 46.3396C95.1296 47.4796 94.4296 47.4696 93.8996 47.1096C93.7699 47.0293 93.6493 46.9355 93.5396 46.8296C93.2396 46.4496 93.7696 45.9396 94.6396 45.2896C95.9467 44.3454 96.9112 43.0015 97.3875 41.461C97.8637 39.9204 97.8258 38.2667 97.2796 36.7496C96.8904 35.5828 96.2486 34.5163 95.3998 33.6261C94.5511 32.7359 93.5164 32.044 92.3696 31.5996L92.3896 31.5896Z" fill="white"/>
<path d="M88.2213 52.2499C88.3668 52.1883 88.5232 52.1565 88.6813 52.1565C88.8393 52.1565 88.9957 52.1883 89.1413 52.2499C89.3402 52.3922 89.5128 52.5682 89.6513 52.7699C89.8149 53.08 89.9136 53.4203 89.9413 53.7699L90.1413 55.4799C90.2213 56.2799 90.3113 57.0899 90.4513 57.8199C90.4718 57.9874 90.5299 58.148 90.6213 58.2899C90.6213 58.3399 90.7313 58.4199 90.7813 58.3699C90.8759 58.2606 90.9504 58.1353 91.0013 57.9999C91.0013 57.9399 91.2313 57.2699 91.3613 56.7999C91.6313 55.7999 91.8713 54.7399 92.0813 53.6899C92.2913 52.6399 92.4813 51.6099 92.6413 50.5699C92.7861 49.2126 93.0641 47.8728 93.4713 46.5699C93.6313 46.1499 93.8913 46.2999 94.1113 46.7099C94.4037 47.2875 94.5318 47.9344 94.4813 48.5799C94.1899 51.3551 93.6681 54.1012 92.9213 56.7899C92.7413 57.4399 92.5613 58.0799 92.3713 58.7299C92.3013 58.9599 92.2113 59.1899 92.1313 59.4199C92.0507 59.6273 91.9537 59.8279 91.8413 60.0199C91.6594 60.3333 91.4222 60.6111 91.1413 60.8399C90.9939 60.8798 90.8386 60.8798 90.6913 60.8399C90.5431 60.8111 90.401 60.757 90.2713 60.6799C90.0106 60.5103 89.7945 60.2805 89.6413 60.0099C89.4592 59.697 89.3212 59.3605 89.2313 59.0099C89.2313 58.8199 89.1313 58.6399 89.0913 58.4499L89.0013 57.9999C88.9213 57.5099 88.8613 56.9999 88.8113 56.5699L88.6613 55.1599C88.6474 54.9319 88.6207 54.7049 88.5813 54.4799C88.5717 54.4029 88.5479 54.3283 88.5113 54.2599C88.4213 54.1399 88.3013 54.2599 88.2313 54.3199C88.1407 54.3957 88.0571 54.4793 87.9813 54.5699L87.8613 54.6999L87.6913 54.8999L87.2413 55.4899L86.0013 57.0999C85.5582 57.7334 84.9981 58.2765 84.3513 58.6999C84.153 58.8391 83.913 58.9061 83.6713 58.8899C83.3513 58.7999 83.3113 58.5299 83.2413 58.3299C83.0732 57.5286 83.0732 56.7012 83.2413 55.8999L83.4013 54.6999L83.5213 53.6999L83.6013 52.8499C83.7213 51.8499 83.8213 51.5599 84.2213 51.2999C84.3013 51.2399 84.3813 51.1599 84.4613 51.1099C84.6913 50.9099 85.1613 51.4299 85.2013 52.3199C85.2515 52.9255 85.2515 53.5343 85.2013 54.1399L85.1013 55.0299L85.0513 55.4699V55.5699C85.0513 55.6199 85.1213 55.5699 85.1213 55.5699L85.2113 55.4599L85.6413 54.9099L86.5413 53.7899L86.9413 53.3099C87.0813 53.1299 87.2313 52.9799 87.3813 52.8099C87.6414 52.534 87.9543 52.313 88.3013 52.1599L88.2213 52.2499Z" fill="white"/>
<path d="M79.16 97.7097L70.67 98.5397L67.57 98.8797C63.93 99.2197 60.27 99.4897 56.57 99.6797L51.7 99.8897C50.7 99.8897 49.62 99.9697 48.58 99.9697C47.54 99.9697 46.5 99.8497 45.47 99.7697C44.83 99.7097 44.91 99.6397 45.47 99.5097C46.03 99.3797 47.02 99.1297 48.2 98.9597C52.4 98.7397 56.58 98.3397 60.82 98.1697C63.36 98.0397 65.99 97.6897 68.57 97.4097L77.12 96.4797C78.88 96.2997 80.61 96.1197 82.34 95.8297L90.23 94.4997C92.23 94.1497 94.23 93.7597 96.31 93.4997L97.66 93.3497C99.36 93.2197 99.91 93.3497 100.27 93.7597C100.358 93.8455 100.439 93.9392 100.51 94.0397C100.67 94.3597 99.99 94.6397 98.79 94.7697C95.23 95.1797 91.49 95.7697 87.7 96.4397C84.89 96.9097 82.04 97.4397 79.14 97.7297L79.16 97.7097Z" fill="white"/>
<path d="M30.9997 45.43C30.9997 41.04 30.8397 36.6499 30.4697 32.2899C30.3297 30.6999 30.0997 29.12 29.8997 27.54C29.5793 24.7751 29.041 22.04 28.2897 19.36C27.9415 18.0843 27.3984 16.87 26.6797 15.7599C26.3987 15.3269 25.9845 14.997 25.4997 14.8199C25.0086 14.7723 24.518 14.9155 24.1297 15.2199C23.2778 15.9476 22.6674 16.9172 22.3797 17.9999C22.0263 19.1625 21.7754 20.3537 21.6297 21.5599C21.5797 21.9499 21.5297 22.3399 21.4897 22.7299V23.2599V23.3799C21.4897 23.3799 21.5597 23.3799 21.5997 23.3799H22.6497C24.3027 23.3926 25.9493 23.5871 27.5597 23.9599C28.6297 24.2899 28.2497 24.7599 27.3497 25.0999C26.0002 25.595 24.5656 25.816 23.1297 25.7499L21.7697 25.7C21.3597 25.7 20.9397 25.7 20.5497 25.62C20.3654 25.6023 20.1841 25.562 20.0097 25.4999L19.8397 25.3499L19.7297 25.1499L19.5997 24.9999V24.95C19.2497 25.24 19.4997 25.0299 19.4197 25.0899V24.9699L19.3297 24.4799C19.2412 24.1535 19.1908 23.818 19.1797 23.4799L19.2997 22.3799L19.3897 21.7499C19.5959 20.0019 20.0157 18.2858 20.6397 16.6399C20.993 15.7075 21.5226 14.8519 22.1997 14.1199C22.5943 13.7046 23.0621 13.3656 23.5797 13.1199C23.8464 12.9861 24.1285 12.8853 24.4197 12.8199C24.899 12.6961 25.4003 12.6831 25.8855 12.7818C26.3706 12.8806 26.8269 13.0886 27.2197 13.3899C27.65 13.7172 28.0277 14.1084 28.3397 14.5499C28.8376 15.3149 29.2406 16.1376 29.5397 16.9999C30.2311 18.9575 30.7792 20.9628 31.1797 22.9999C31.5997 24.9999 31.9297 27.0599 32.1797 29.0899C32.6897 33.5499 32.9297 38.02 33.0297 42.49C33.0897 45.24 33.0297 48 33.0297 50.74C32.9597 54.91 32.7197 59.0799 32.4197 63.2099C32.1797 66.4099 31.9697 69.5599 31.5097 72.7399C31.4097 73.4299 31.3197 74.12 31.1797 74.82C30.6597 77.42 30.1797 78.2099 29.5197 78.5799C29.368 78.6729 29.2072 78.75 29.0397 78.8099C28.5297 78.8999 28.5497 77.81 28.8697 75.98C29.7506 70.2545 30.3281 64.4864 30.5997 58.7C30.8297 54.3 30.9497 49.8599 30.8997 45.4399L30.9997 45.43Z" fill="white"/>
<path d="M24.1407 113.67C24.5785 114.117 25.106 114.467 25.6885 114.696C26.271 114.925 26.8954 115.029 27.5207 115C27.7577 115.002 27.9937 114.968 28.2207 114.9C28.4552 114.85 28.6858 114.783 28.9107 114.7C30.6512 114.085 32.1411 112.915 33.1507 111.37C33.6544 110.66 34.1056 109.915 34.5007 109.14C34.9789 108.099 35.5691 107.113 36.2607 106.2C36.4907 105.92 36.7207 106.12 36.8407 106.53C36.9992 107.079 36.9782 107.664 36.7807 108.2C36.3326 109.284 35.8045 110.334 35.2007 111.34C34.5828 112.416 33.8151 113.399 32.9207 114.26C31.8233 115.437 30.4217 116.289 28.8707 116.72C27.4619 117.085 25.9705 116.954 24.6467 116.349C23.3229 115.745 22.2474 114.703 21.6007 113.4C20.9211 111.972 20.6742 110.376 20.8907 108.81C20.9793 107.653 21.1939 106.51 21.5307 105.4C21.6007 105.16 21.6707 104.93 21.7507 104.69C22.1007 103.83 22.3607 103.61 22.6507 103.5L22.8407 103.43C23.0407 103.43 23.0707 103.82 23.0207 104.51C22.6396 106.415 22.4985 108.36 22.6007 110.3C22.6867 110.935 22.8548 111.557 23.1007 112.15C23.3653 112.706 23.7277 113.211 24.1707 113.64L24.1407 113.67Z" fill="white"/>
<path d="M61.4008 118.68C59.9008 118.68 58.4008 118.79 56.9008 118.89L55.2708 119.03C53.3408 119.16 51.4008 119.25 49.4808 119.42C48.6208 119.49 47.7708 119.62 46.9308 119.75C46.3908 119.84 45.8608 119.97 45.3108 120.03C44.7608 120.09 44.2208 120.11 43.6708 120.11C43.3208 120.11 43.3208 119.84 43.5608 119.51C43.8885 119.049 44.3491 118.701 44.8808 118.51C47.093 118.049 49.342 117.788 51.6008 117.73C52.9608 117.73 54.3508 117.46 55.7308 117.35C57.1108 117.24 58.7308 117.13 60.2908 117.04L63.1008 117L67.3508 116.83C68.4508 116.83 69.5308 116.61 70.6308 116.6C70.8708 116.6 71.1208 116.6 71.3608 116.6C71.6008 116.6 71.7808 116.6 71.9408 116.67C72.0791 116.709 72.2106 116.77 72.3308 116.85C72.5044 116.945 72.6362 117.102 72.7008 117.29C72.7377 117.363 72.7678 117.44 72.7908 117.52C72.7908 117.74 72.4308 117.92 71.7908 118.06C69.8406 118.352 67.8726 118.509 65.9008 118.53L61.3808 118.74L61.4008 118.68Z" fill="white"/>
<path d="M25.2205 75.5798C25.9605 71.5798 26.5805 67.4898 26.9905 63.4098C27.1305 61.9098 27.2605 60.4098 27.3705 58.9298C27.8405 53.6698 28.1005 48.3798 28.1305 43.0898C28.1305 40.7398 28.0505 38.3798 27.9305 36.0898C27.7605 33.0898 27.5605 30.0898 27.4805 27.0898C27.4805 26.1598 27.8005 26.2498 28.2205 27.0098C28.831 28.2339 29.2138 29.5587 29.3505 30.9198C29.5205 32.4598 29.6505 33.9898 29.7705 35.5298C29.8905 37.0698 29.8905 38.6198 29.9305 40.1598C29.9705 41.6998 29.9305 43.2498 29.9305 44.7998C29.9305 46.3498 29.8105 47.8998 29.7605 49.4598C29.6205 51.3098 29.5705 53.2098 29.4805 55.1098C29.3905 57.0098 29.2905 58.9298 29.0905 60.8198C28.6705 64.9798 28.1405 69.1398 27.3905 73.2498L26.7005 76.9998L25.8505 80.7598C25.4705 82.6698 24.9205 84.5398 24.4105 86.4198C24.1405 87.3598 23.9305 88.3098 23.6205 89.2298C23.3105 90.1498 23.0005 91.0998 22.7305 91.9998C22.2905 93.4398 21.8705 94.8598 21.3305 96.2498C20.7905 97.6398 20.3305 99.0398 19.8005 100.43L19.0005 102.23C17.9005 104.42 17.4605 105.08 17.0005 105.43C16.9014 105.515 16.7979 105.595 16.6905 105.67C16.4305 105.79 16.6905 104.81 17.2805 103.14C19.1705 98.2198 20.9505 92.9998 22.4505 87.6598C22.9405 85.6598 23.5105 83.6598 23.9505 81.6598C24.3905 79.6598 24.8605 77.6598 25.1905 75.5798H25.2205Z" fill="white"/>
</svg>
