<svg width="40" height="41" viewBox="0 0 40 41" fill="none" xmlns="http://www.w3.org/2000/svg">
<path fill-rule="evenodd" clip-rule="evenodd" d="M20.0198 40.5172C30.9913 40.5172 39.8854 31.6231 39.8854 20.6517C39.8854 9.68023 30.9913 0.786133 20.0198 0.786133C9.0484 0.786133 0.154297 9.68023 0.154297 20.6517C0.154297 22.0841 0.305912 23.4812 0.593969 24.8276L8.67198 16.7498L11.4816 19.5594L16.6787 24.7565L26.1964 15.2388L22.0671 11.1096L33.4948 10.7501L33.1354 22.1778L29.0061 18.0485L19.4884 27.5662L19.4855 27.5633L16.6758 30.373L8.67188 22.3691L2.00505 29.0359C5.16652 35.8172 12.0443 40.5172 20.0198 40.5172Z" fill="white"/>
</svg>
