<svg width="41" height="41" viewBox="0 0 41 41" fill="none" xmlns="http://www.w3.org/2000/svg">
<path fill-rule="evenodd" clip-rule="evenodd" d="M0.630859 20.6517C0.630859 9.68023 9.52496 0.786133 20.4964 0.786133C31.4677 0.786133 40.3619 9.68023 40.3619 20.6517C40.3619 31.623 31.4677 40.5172 20.4964 40.5172C9.52496 40.5172 0.630859 31.623 0.630859 20.6517ZM14.5367 19.6584C14.5367 16.9156 16.7603 14.692 19.5031 14.692C22.2459 14.692 24.4695 16.9156 24.4695 19.6584C24.4695 22.4012 22.2459 24.6248 19.5031 24.6248C16.7603 24.6248 14.5367 22.4012 14.5367 19.6584ZM19.5031 10.7189C14.566 10.7189 10.5636 14.7212 10.5636 19.6584C10.5636 24.5956 14.566 28.5979 19.5031 28.5979C21.2523 28.5979 22.8842 28.0955 24.2623 27.2272L27.0379 30.0026C27.8137 30.7783 29.0715 30.7783 29.8473 30.0026C30.623 29.2268 30.623 27.9689 29.8473 27.1932L27.0719 24.4176C27.9402 23.0395 28.4426 21.4075 28.4426 19.6584C28.4426 14.7212 24.4403 10.7189 19.5031 10.7189Z" fill="white"/>
</svg>
