<svg width="40" height="41" viewBox="0 0 40 41" fill="none" xmlns="http://www.w3.org/2000/svg">
<path fill-rule="evenodd" clip-rule="evenodd" d="M23.9461 20.6517C23.9461 22.8468 22.1681 24.6248 19.973 24.6248C17.7778 24.6248 15.9998 22.8468 15.9998 20.6517C15.9998 18.4565 17.7778 16.6786 19.973 16.6786C22.1681 16.6786 23.9461 18.4565 23.9461 20.6517ZM19.973 28.5979C15.5906 28.5979 12.0267 25.034 12.0267 20.6517C12.0267 16.2693 15.5906 12.7055 19.973 12.7055C24.3553 12.7055 27.9192 16.2693 27.9192 20.6517C27.9192 25.034 24.3553 28.5979 19.973 28.5979ZM19.973 8.73235C13.3895 8.73235 8.05363 14.0682 8.05363 20.6517C8.05363 27.2351 13.3895 32.571 19.973 32.571C26.5564 32.571 31.8923 27.2351 31.8923 20.6517C31.8923 14.0682 26.5564 8.73235 19.973 8.73235ZM19.973 36.5441C11.2103 36.5441 4.08053 29.4144 4.08053 20.6517C4.08053 11.889 11.2103 4.75924 19.973 4.75924C28.7356 4.75924 35.8654 11.889 35.8654 20.6517C35.8654 29.4144 28.7356 36.5441 19.973 36.5441ZM19.973 0.786133C9.00122 0.786133 0.107422 9.67993 0.107422 20.6517C0.107422 31.6234 9.00122 40.5172 19.973 40.5172C30.9447 40.5172 39.8385 31.6234 39.8385 20.6517C39.8385 9.67993 30.9447 0.786133 19.973 0.786133Z" fill="white"/>
</svg>
