<svg width="41" height="41" viewBox="0 0 41 41" fill="none" xmlns="http://www.w3.org/2000/svg">
<path d="M33.538 35.8519C37.7464 32.1911 40.4088 26.7834 40.4088 20.7507C40.4088 9.72456 31.5147 0.786133 20.5433 0.786133C9.57184 0.786133 0.677734 9.72456 0.677734 20.7507C0.677734 27.0893 3.61708 32.738 8.20067 36.3952V18.917C8.20067 18.2762 8.7176 17.7567 9.35527 17.7567H13.3163C13.954 17.7567 14.4709 18.2762 14.4709 18.917V39.7653C15.5232 40.1044 16.6138 40.3578 17.7344 40.5172V10.0316C17.7344 9.39072 18.2513 8.87122 18.889 8.87122H22.85C23.4877 8.87122 24.0046 9.39072 24.0046 10.0316V40.4132C25.1276 40.2149 26.2182 39.9218 27.2677 39.5424V15.3242C27.2677 14.6833 27.7846 14.1638 28.4223 14.1638H32.3834C33.021 14.1638 33.538 14.6833 33.538 15.3242V35.8519Z" fill="white"/>
</svg>
