<svg width="415" height="415" viewBox="0 0 415 415" fill="none" xmlns="http://www.w3.org/2000/svg">
<path d="M345.29 345.812H276.29V276.812H345.29V345.812ZM241.79 173.312H172.79V242.312H241.79V173.312ZM345.29 173.312H276.29V242.312H345.29V173.312ZM138.29 276.812H69.29V345.812H138.29V276.812ZM241.79 276.812H172.79V345.812H241.79V276.812ZM138.29 173.312H69.29V242.312H138.29V173.312ZM414.29 35.3125V414.812H0.290039V35.3125H52.04V52.5625C52.04 71.5893 67.5133 87.0625 86.54 87.0625C105.567 87.0625 121.04 71.5893 121.04 52.5625V35.3125H293.54V52.5625C293.54 71.5893 309.013 87.0625 328.04 87.0625C347.067 87.0625 362.54 71.5893 362.54 52.5625V35.3125H414.29ZM379.79 138.812H34.79V380.312H379.79V138.812ZM345.29 18.0625C345.29 8.5405 337.579 0.8125 328.04 0.8125C318.501 0.8125 310.79 8.5405 310.79 18.0625V52.5625C310.79 62.0845 318.501 69.8125 328.04 69.8125C337.579 69.8125 345.29 62.0845 345.29 52.5625V18.0625ZM103.79 52.5625C103.79 62.0845 96.0793 69.8125 86.54 69.8125C77.0008 69.8125 69.29 62.0845 69.29 52.5625V18.0625C69.29 8.5405 77.0008 0.8125 86.54 0.8125C96.0793 0.8125 103.79 8.5405 103.79 18.0625V52.5625Z" fill="#FF2868"/>
</svg>
