<svg width="508" height="466" viewBox="0 0 508 466" fill="none" xmlns="http://www.w3.org/2000/svg">
<path d="M391.173 433.367C435.09 433.367 480.631 423.153 507.243 403.779V417.539C507.243 443.771 453.218 465.022 391.173 465.022C329.15 465.022 275.103 443.771 275.103 417.539V403.779C301.694 423.153 347.278 433.367 391.173 433.367ZM391.173 327.849C435.09 327.849 480.631 317.634 507.243 298.261V312.021C507.243 338.232 453.218 359.504 391.173 359.504C329.15 359.504 275.103 338.253 275.103 312.021V298.261C301.694 317.634 347.278 327.849 391.173 327.849ZM391.173 380.608C435.09 380.608 480.631 370.394 507.243 351.042V364.78C507.243 391.012 453.218 412.263 391.173 412.263C329.15 412.263 275.103 391.012 275.103 364.78V351.042C301.694 370.394 347.278 380.608 391.173 380.608ZM391.173 275.089C435.09 275.089 480.631 264.875 507.243 245.523V259.262C507.243 285.494 453.218 306.745 391.173 306.745C329.15 306.745 275.103 285.494 275.103 259.262V245.523C301.694 264.875 347.278 275.089 391.173 275.089ZM391.173 0.742188C329.15 0.742188 275.103 21.9935 275.103 48.2254C275.103 74.4572 329.15 95.7086 391.173 95.7086C453.218 95.7086 507.243 74.4572 507.243 48.2254C507.243 21.9935 453.218 0.742188 391.173 0.742188ZM391.173 222.33C435.09 222.33 480.631 212.116 507.243 192.743V206.503C507.243 232.734 453.218 253.986 391.173 253.986C329.15 253.986 275.103 232.734 275.103 206.503V192.743C301.694 212.116 347.278 222.33 391.173 222.33ZM391.173 116.812C435.09 116.812 480.631 106.598 507.243 87.2249V100.984C507.243 127.216 453.218 148.468 391.173 148.468C329.15 148.468 275.103 127.216 275.103 100.984V87.2249C301.694 106.598 347.278 116.812 391.173 116.812ZM391.173 169.571C435.09 169.571 480.631 159.357 507.243 140.005V153.744C507.243 179.975 453.218 201.227 391.173 201.227C329.15 201.227 275.103 179.975 275.103 153.744V140.005C301.694 159.357 347.278 169.571 391.173 169.571ZM116.826 211.779C54.8023 211.779 0.755859 233.03 0.755859 259.262C0.755859 285.494 54.8023 306.745 116.826 306.745C178.871 306.745 232.896 285.494 232.896 259.262C232.896 233.03 178.871 211.779 116.826 211.779ZM116.826 433.367C160.743 433.367 206.284 423.153 232.896 403.779V417.539C232.896 443.771 178.871 465.022 116.826 465.022C54.8023 465.022 0.755859 443.771 0.755859 417.539V403.779C27.3464 423.153 72.9303 433.367 116.826 433.367ZM116.826 327.849C160.743 327.849 206.284 317.634 232.896 298.261V312.021C232.896 338.253 178.871 359.504 116.826 359.504C54.8023 359.504 0.755859 338.253 0.755859 312.021V298.261C27.3464 317.634 72.9303 327.849 116.826 327.849ZM116.826 380.608C160.743 380.608 206.284 370.394 232.896 351.042V364.78C232.896 391.012 178.871 412.263 116.826 412.263C54.8023 412.263 0.755859 391.012 0.755859 364.78V351.042C27.3464 370.394 72.9303 380.608 116.826 380.608Z" fill="#FF2868"/>
</svg>
