<svg width="345" height="265" viewBox="0 0 345 265" fill="none" xmlns="http://www.w3.org/2000/svg">
<path d="M172.512 180.39C185.21 180.39 197.388 175.345 206.367 166.367C215.345 157.388 220.39 145.21 220.39 132.512C220.39 119.814 215.345 107.636 206.367 98.6569C197.388 89.6781 185.21 84.6338 172.512 84.6338C159.814 84.6338 147.636 89.6781 138.657 98.6569C129.678 107.636 124.634 119.814 124.634 132.512C124.634 145.21 129.678 157.388 138.657 166.367C147.636 175.345 159.814 180.39 172.512 180.39Z" fill="#FF2868"/>
<path fill-rule="evenodd" clip-rule="evenodd" d="M2.10797 123.686C25.8554 52.3324 93.1558 0.847656 172.521 0.847656C251.839 0.847656 319.108 52.2845 342.887 123.575C344.802 129.352 344.802 135.576 342.887 141.337C319.156 212.692 251.839 264.176 172.49 264.176C93.1718 264.176 25.8873 212.739 2.12393 141.449C0.204785 135.684 0.204785 129.452 2.12393 123.686H2.10797ZM256.292 132.512C256.292 154.733 247.464 176.045 231.751 191.758C216.038 207.471 194.727 216.298 172.506 216.298C150.284 216.298 128.973 207.471 113.26 191.758C97.5466 176.045 88.7191 154.733 88.7191 132.512C88.7191 110.29 97.5466 88.979 113.26 73.266C128.973 57.553 150.284 48.7256 172.506 48.7256C194.727 48.7256 216.038 57.553 231.751 73.266C247.464 88.979 256.292 110.29 256.292 132.512Z" fill="#FF2868"/>
</svg>
