<svg width="310" height="310" viewBox="0 0 310 310" fill="none" xmlns="http://www.w3.org/2000/svg">
<path d="M155.232 28.1809C196.511 28.1809 201.407 28.3355 217.717 29.0827C259.614 30.9895 279.184 50.8687 281.091 92.4565C281.838 108.754 281.98 113.65 281.98 154.928C281.98 196.22 281.825 201.103 281.091 217.4C279.171 258.95 259.653 278.867 217.717 280.774C201.407 281.521 196.537 281.676 155.232 281.676C113.954 281.676 109.058 281.521 92.7605 280.774C50.7604 278.854 31.2935 258.885 29.3868 217.387C28.6395 201.09 28.4849 196.207 28.4849 154.916C28.4849 113.637 28.6524 108.754 29.3868 92.4436C31.3064 50.8687 50.8248 30.9766 92.7605 29.0699C109.071 28.3355 113.954 28.1809 155.232 28.1809ZM155.232 0.313965C113.245 0.313965 107.989 0.494333 91.4979 1.24157C35.3518 3.81827 4.14805 34.9705 1.57135 91.1682C0.811228 107.672 0.630859 112.928 0.630859 154.916C0.630859 196.903 0.811228 202.172 1.55847 218.663C4.13516 274.809 35.2874 306.013 91.485 308.589C107.989 309.337 113.245 309.517 155.232 309.517C197.22 309.517 202.489 309.337 218.98 308.589C275.074 306.013 306.355 274.861 308.893 218.663C309.654 202.172 309.834 196.903 309.834 154.916C309.834 112.928 309.654 107.672 308.906 91.181C306.381 35.0864 275.19 3.83115 218.993 1.25446C202.489 0.494333 197.22 0.313965 155.232 0.313965ZM155.232 75.5276C111.39 75.5276 75.8445 111.073 75.8445 154.916C75.8445 198.758 111.39 234.316 155.232 234.316C199.075 234.316 234.62 198.771 234.62 154.916C234.62 111.073 199.075 75.5276 155.232 75.5276ZM155.232 206.449C126.773 206.449 103.699 183.388 103.699 154.916C103.699 126.456 126.773 103.382 155.232 103.382C183.692 103.382 206.766 126.456 206.766 154.916C206.766 183.388 183.692 206.449 155.232 206.449ZM237.764 53.8448C227.509 53.8448 219.199 62.1546 219.199 72.3969C219.199 82.6393 227.509 90.9491 237.764 90.9491C248.006 90.9491 256.303 82.6393 256.303 72.3969C256.303 62.1546 248.006 53.8448 237.764 53.8448Z" fill="#FF2868"/>
</svg>
