<svg width="462" height="462" viewBox="0 0 462 462" fill="none" xmlns="http://www.w3.org/2000/svg">
<path d="M96.3054 422.677H0.306641V192.28H96.3054V422.677ZM434.509 261.168C418.055 258.96 423.411 247.076 435.104 243.466C445.107 240.394 461.101 233.866 461.101 214.475C461.101 201.572 451.501 184.485 417.498 185.867C393.921 186.827 347.112 182.065 321.902 168.875C339.297 98.6809 335.112 0.282227 289.493 0.282227C258.889 0.282227 253.091 34.9762 243.894 66.8862C220.451 148.331 180.304 182.411 134.705 199.076V407.931C218.838 421.39 256.527 461.076 336.398 461.076C397.799 461.076 429.555 427.765 429.555 409.89C429.555 403.458 424.333 398.888 411.124 397.871C395.553 396.68 397.031 382.28 411.719 379.573C436.064 375.08 446.778 362.025 446.778 349.948C446.778 339.791 439.174 330.326 425.696 327.273C409.626 323.644 412.948 312.739 426.291 311.683C448.045 309.955 458.701 297.014 458.701 284.611C458.701 273.763 450.56 263.319 434.509 261.168Z" fill="#FF2868"/>
</svg>
